<svg width="114" height="114" viewBox="0 0 114 114" fill="none" xmlns="http://www.w3.org/2000/svg">
<path d="M61.5467 73.2842C61.9542 72.8295 62.0495 72.7396 62.6902 72.7093C64.3832 72.6294 70.5124 73.1093 71.1913 74.9209C71.1192 75.3618 71.1584 75.2186 70.8704 75.587L71.2694 75.8676C71.6348 75.8669 71.821 75.8382 72.145 76.0229C73.0271 77.2813 71.6439 89.1723 71.2603 91.3902C71.1284 92.1525 70.262 95.8307 70.3781 96.1843C70.9411 96.2341 71.0919 95.3805 72.281 96.5972C73.5222 97.8674 73.1995 102.208 71.1143 101.942C70.8801 101.76 70.8423 101.732 70.686 101.481C70.4338 101.666 70.4076 101.693 70.3077 101.989C70.5134 103.368 67.3949 104.053 66.3542 104.274C59.515 105.723 50.2251 105.702 43.9507 102.389C40.8512 100.752 41.5267 95.9745 45.2449 95.4438C44.9033 94.5653 44.6919 93.548 44.5324 92.6301C43.6411 87.5019 43.1508 82.1724 43.4366 76.9687C43.4583 76.5725 43.826 75.6996 44.3586 75.8192C44.6435 76.2636 44.5561 77.3443 44.5431 77.8809C44.3844 84.3865 45.2042 91.0888 46.968 97.3572C47.0488 97.6443 46.8077 97.9476 46.6478 98.1589L46.7738 98.5176C47.5769 98.4893 48.5228 99.1662 49.4445 99.2723C46.9679 95.9223 45.4761 81.0321 46.9912 77.182L46.9911 77.1377C46.9863 76.7054 47.0978 76.5847 47.3316 76.217C47.4097 75.8536 47.5586 75.5768 47.7167 75.2418C47.0927 75.0134 46.3925 75.7838 45.5617 75.2742C45.4649 74.9318 45.4534 75.0677 45.5892 74.7606C46.744 73.8426 51.3351 72.9607 52.9371 73.0935C53.5147 73.1414 53.5746 73.2583 53.8962 73.6353L54.1796 73.7006C54.4743 73.9416 54.5978 74.693 54.5947 75.0702C54.4863 75.1532 54.4738 75.1915 54.3631 75.2073C55.2764 75.6415 54.7191 76.7868 55.2472 77.3221C55.6371 77.4705 55.8325 77.4404 56.2401 77.2589C56.3046 77.2304 56.3683 77.2008 56.4316 77.1699C57.1385 77.1448 58.7737 77.0729 59.4608 77.1966C61.645 77.9459 60.2393 75.6748 61.3184 75.2244C61.0852 75.1745 61.0942 75.184 60.9302 75.0145C60.812 74.4635 60.7763 74.0451 60.9859 73.5029L61.214 73.458L61.5467 73.2842Z" fill="#FEF1E0"/>
<path d="M47.7167 75.2418C47.0927 75.0135 46.3924 75.7838 45.5617 75.2742C45.4649 74.9318 45.4534 75.0677 45.5892 74.7606C46.744 73.8426 51.3351 72.9607 52.9371 73.0935C53.5147 73.1414 53.5745 73.2583 53.8962 73.6353L54.1796 73.7006C54.4743 73.9416 54.5978 74.693 54.5946 75.0702C54.4863 75.1532 54.4737 75.1915 54.3631 75.2073C55.2764 75.6415 54.7191 76.7868 55.2471 77.3221C55.6371 77.4705 55.8325 77.4404 56.2401 77.2589C56.3045 77.2304 56.3683 77.2008 56.4316 77.1699C57.1385 77.1448 58.7737 77.0729 59.4608 77.1966C61.6449 77.9459 60.2393 75.6749 61.3184 75.2244L61.3644 75.2109C62.6125 74.8583 66.7345 75.6398 67.8411 76.2739C68.3152 76.17 68.7455 75.8876 69.0781 76.0096C69.3142 76.2251 69.3178 76.2872 69.3912 76.6028C69.1104 77.3995 67.9621 77.5021 67.1735 77.6819C62.4064 78.7681 51.9738 79.4438 47.5558 77.4662C47.3637 77.3796 47.1753 77.2848 46.9912 77.182L46.991 77.1377C46.9863 76.7054 47.0978 76.5847 47.3316 76.217C47.4096 75.8536 47.5586 75.5768 47.7167 75.2418Z" fill="#432A24"/>
<path d="M47.7167 75.2418C47.0927 75.0135 46.3924 75.7838 45.5617 75.2742C45.4649 74.9318 45.4534 75.0677 45.5892 74.7606C46.744 73.8426 51.3351 72.9607 52.9371 73.0935C53.5147 73.1414 53.5745 73.2583 53.8962 73.6353L54.1796 73.7006C54.4743 73.9416 54.5978 74.693 54.5946 75.0702C54.4863 75.1532 54.4737 75.1915 54.3631 75.2073C52.7227 75.3683 50.1658 75.8553 48.6658 76.5732C48.2912 76.476 47.6795 76.3378 47.3316 76.217C47.4096 75.8536 47.5586 75.5768 47.7167 75.2418Z" fill="#FEF1E0"/>
<path d="M47.7167 75.2418C47.0927 75.0135 46.3924 75.7838 45.5617 75.2742C45.4649 74.9318 45.4534 75.0677 45.5892 74.7606C46.744 73.8426 51.3351 72.9607 52.9371 73.0935C53.5147 73.1414 53.5745 73.2583 53.8962 73.6353C52.5364 74.8646 48.9564 74.2093 47.7167 75.2418Z" fill="#432A24"/>
<path d="M45.2449 95.4438C44.9033 94.5653 44.6919 93.548 44.5324 92.6301C43.6411 87.5019 43.1508 82.1724 43.4366 76.9687C43.4583 76.5725 43.826 75.6996 44.3586 75.8192C44.6435 76.2636 44.5561 77.3443 44.5431 77.8809C44.3844 84.3865 45.2042 91.0888 46.968 97.3572C47.0488 97.6443 46.8077 97.9476 46.6478 98.1589C45.4778 97.5903 45.6177 97.2764 45.4062 96.0844C44.1129 97.1572 43.6121 97.4644 43.1223 99.1056C43.5036 100.377 43.9615 101.129 45.2894 101.773C50.6191 104.358 58.5392 104.452 64.3594 103.462C66.5141 103.095 68.1934 102.325 70.3077 101.989C70.5134 103.368 67.3949 104.053 66.3542 104.274C59.515 105.723 50.2251 105.702 43.9507 102.389C40.8512 100.752 41.5267 95.9745 45.2449 95.4438Z" fill="#432A24"/>
<path d="M71.2694 75.8676C71.6347 75.8669 71.821 75.8382 72.145 76.0229C73.0271 77.2813 71.6439 89.1723 71.2602 91.3901C71.1284 92.1525 70.262 95.8307 70.3781 96.1843C70.9411 96.2341 71.0919 95.3805 72.281 96.5972C73.5222 97.8674 73.1995 102.208 71.1143 101.942C70.88 101.76 70.8423 101.732 70.686 101.481C72.9896 99.0304 71.499 98.208 70.3099 96.0648C70.1054 96.7794 70.0109 97.5785 69.4131 97.9345C69.0319 97.8572 69.1762 97.9174 68.8492 97.6089C68.5975 97.0717 69.62 93.4253 69.8034 92.4369C70.8289 86.9093 71.0355 81.4513 71.2694 75.8676Z" fill="#432A24"/>
<path d="M49.4445 99.2723C49.4896 99.295 49.5345 99.3178 49.5795 99.3405C54.5197 100.912 60.322 100.777 65.3212 99.5014C66.1595 99.2874 67.9924 98.2116 68.5782 98.4904C68.7871 98.8544 68.7411 98.6878 68.7133 99.1476C67.2928 101.705 55.2758 102.012 52.3543 101.245C50.7515 100.825 47.9224 100.696 46.7472 99.3696C46.5565 99.1544 46.7158 98.7478 46.7737 98.5176C47.5768 98.4893 48.5228 99.1662 49.4445 99.2723Z" fill="#4A2F2C"/>
<path d="M61.5466 73.2842C61.9542 72.8295 62.0495 72.7396 62.6902 72.7093C64.3832 72.6294 70.5123 73.1093 71.1913 74.9209C71.1192 75.3618 71.1584 75.2186 70.8704 75.587C70.5992 75.524 69.8851 75.1834 69.6012 75.0529C67.1566 73.9284 64.533 74.2281 61.9786 73.7383C61.9786 73.7383 61.5882 73.3278 61.5466 73.2842Z" fill="#432A24"/>
<path d="M36.3926 36.5908C36.3336 37.5955 37.3065 37.5575 37.2446 38.3688L37.0451 38.4367C36.418 38.2578 36.1058 37.8584 35.5959 37.5668C34.0836 36.7019 32.0015 36.2084 30.2924 36.6693C29.7585 36.8132 28.8444 36.9423 28.6557 36.251C28.8426 35.6673 29.1257 35.2038 29.503 34.7099C32.7372 30.4761 40.3791 27.8986 44.7829 31.7772C45.371 32.2951 45.7749 33.0144 46.1672 33.6984C46.357 34.1836 46.5225 34.565 46.6214 35.0817C46.6783 36.0574 46.2866 36.2602 46.3825 36.9985L46.5977 37.1533C47.1674 36.9985 47.8479 36.6614 48.3971 36.4122C48.5637 36.2983 48.8609 35.9971 49.0207 35.8453L48.9699 35.2932C49.3623 35.244 49.7595 35.1726 50.1503 35.1068L50.2947 35.7245C50.5901 35.9701 51.8315 36.2825 52.2964 36.4651C57.5659 38.534 58.4639 45.8486 55.337 50.1009C54.4566 51.318 53.3176 52.3251 52.0018 53.0497C51.6488 52.3866 51.5429 52.1837 51.3365 51.4491C50.84 49.9724 50.1296 48.9769 49.1643 47.777C48.5938 47.1442 48.2755 46.8552 47.511 46.4832L46.2947 45.9556C48.1935 48.7833 50.0867 51.7393 49.7302 55.3291C49.6152 56.4878 45.9916 59.2578 44.8253 58.6542C44.7335 58.3624 44.72 58.064 44.7085 57.7595C44.6162 55.3498 44.5596 53.1065 42.9259 51.1682C42.5748 51.5083 42.1698 51.9518 41.6836 52.054C41.6808 52.3921 41.6728 52.724 41.6937 53.0617C42.6255 54.4135 42.7485 56.5136 42.5171 58.1014C42.1115 60.8845 38.3934 60.6274 36.7091 62.3194C35.7007 63.3325 35.5504 64.4893 34.1534 63.6422L33.9621 63.5907C30.6347 62.4628 27.3445 58.215 28.3039 54.5114C28.846 52.4188 31.0123 49.8325 32.8329 48.7284C33.2934 48.4491 33.6701 48.4873 34.1655 48.6473C34.3743 48.2914 34.5967 47.7718 34.7748 47.3865C34.1782 46.1264 33.1645 45.1324 31.6547 45.7886C31.5887 46.7832 31.5992 46.6839 30.7625 47.1199C28.1124 48.4503 28.4046 49.0502 26.7262 50.249L26.4531 50.1799C25.0939 48.8034 25.7666 44.2065 26.144 42.4209C26.3215 41.5817 27.0526 40.8447 27.8011 40.4648C29.0249 39.8434 34.8323 38.4073 35.4649 39.8448C35.4276 40.1876 35.3481 40.2664 35.1368 40.5251L35.071 40.6047C35.7635 41.0066 36.2875 41.0851 37.0598 41.2494C38.3721 40.7068 38.582 40.579 39.0815 39.2191C38.7594 38.1615 37.6029 36.5154 36.3926 36.5908ZM32.8192 61.5517C32.9957 60.6026 31.9768 59.2404 31.697 58.1427C31.3456 56.7643 31.3868 56.6503 31.4463 55.3443C31.526 53.5953 33.0142 52.2206 33.3108 50.8819C33.2039 50.5289 33.2049 50.6213 32.8037 50.3754C31.3511 51.3576 29.6935 53.4081 29.4052 55.1325C29.0103 57.4932 30.8241 60.4502 32.8192 61.5517ZM26.8392 48.2741C27.2131 47.99 28.1841 47.3308 28.2758 46.895C28.2474 46.789 28.2264 46.681 28.2132 46.572C28.1521 46.0841 28.3075 45.4995 28.4065 45.0208C29.2015 41.1737 32.8101 41.8203 33.7423 40.6516C31.7608 40.4939 29.3586 40.9637 27.6117 41.9158C26.8681 43.766 26.7484 46.3039 26.8392 48.2741ZM40.4724 31.287C39.8396 30.8737 38.2206 31.0501 37.4858 31.2034C34.6736 31.7899 32.7282 33.2347 30.6882 35.1437C31.0781 35.1761 33.0756 35.4124 33.3356 35.3666C34.124 33.6974 37.028 32.3819 38.694 31.8575C39.2701 31.6762 39.9444 31.5468 40.4724 31.287Z" fill="#93B66F"/>
<path d="M45.2084 34.6668C45.5019 34.2613 45.7071 33.9025 46.1672 33.6984C46.357 34.1836 46.5226 34.565 46.6214 35.0817C46.6783 36.0574 46.2867 36.2602 46.3825 36.9985L46.5977 37.1533C47.1674 36.9985 47.8479 36.6614 48.3971 36.4122C48.5638 36.2983 48.8609 35.9971 49.0208 35.8453L48.9699 35.2932C49.3623 35.244 49.7596 35.1726 50.1503 35.1068L50.2947 35.7245C50.5902 35.9701 51.8315 36.2825 52.2964 36.4651C57.5659 38.534 58.464 45.8486 55.337 50.1009C54.4566 51.318 53.3176 52.3251 52.0018 53.0497C51.6488 52.3866 51.5429 52.1837 51.3365 51.4491C50.84 49.9724 50.1296 48.9769 49.1643 47.777C48.5938 47.1442 48.2756 46.8552 47.5111 46.4832L46.2947 45.9556C48.1935 48.7833 50.0868 51.7393 49.7303 55.3291C49.6153 56.4878 45.9917 59.2578 44.8254 58.6542C44.7335 58.3624 44.7201 58.064 44.7085 57.7595C44.6162 55.3498 44.5596 53.1065 42.9259 51.1682C42.5749 51.5083 42.1699 51.9518 41.6836 52.054C41.5851 51.8686 41.3688 51.6286 41.2286 51.4574C40.9575 50.7365 39.1025 49.1312 38.4152 48.7159C39.3058 46.5003 42.8437 42.1114 44.7716 40.6705C45.4074 40.1952 46.633 39.4302 47.0337 38.8768C46.988 38.3965 46.9003 38.286 46.4784 38.1488C45.3684 38.3088 43.2249 40.3369 42.3117 41.1522C42.6365 40.1331 45.3388 38.6289 46.0341 37.7788C46.7308 36.9269 45.3622 36.8168 45.1203 35.257L45.4256 35.185C45.3974 34.9198 45.3624 34.8961 45.2084 34.6668Z" fill="#74A867"/>
<path d="M48.5561 55.1808C48.6024 53.2106 48.0439 51.102 47.0324 49.401C46.4728 48.4597 44.9295 46.6703 45.3073 45.5531C45.9954 44.6224 47.6479 45.1478 48.4346 45.7236C47.9747 45.9624 47.7505 46.0338 47.511 46.4832L46.2947 45.9556C48.1935 48.7833 50.0867 51.7393 49.7303 55.3291C49.6153 56.4878 45.9916 59.2578 44.8254 58.6542C44.7335 58.3624 44.72 58.064 44.7085 57.7595C44.6162 55.3498 44.5596 53.1065 42.9259 51.1682C42.5749 51.5083 42.1699 51.9518 41.6836 52.054C41.585 51.8686 41.3687 51.6286 41.2286 51.4574C41.408 50.8715 41.6899 50.5435 42.0997 50.0835L43.4934 50.114C45.2195 51.7566 45.8725 53.8595 45.9002 56.2195L46.0208 55.7233C46.6094 55.414 47.4056 55.5778 47.856 56.0474C48.0236 55.9156 48.405 55.3813 48.5561 55.1808Z" fill="#432A24"/>
<path d="M45.9002 56.2195L46.0208 55.7233C46.6094 55.414 47.4056 55.5778 47.8561 56.0474C47.4072 56.42 46.4224 57.193 45.8424 57.0137C45.721 56.6098 45.774 56.6879 45.9002 56.2195Z" fill="#93B66F"/>
<path d="M50.1503 35.1068L50.2947 35.7245C50.5901 35.9701 51.8315 36.2825 52.2964 36.4651C57.5659 38.534 58.4639 45.8486 55.337 50.1009C54.4566 51.318 53.3176 52.3251 52.0018 53.0497C51.6488 52.3866 51.5429 52.1837 51.3365 51.4491C51.5267 51.3295 52.1122 51.0806 52.346 50.9747L52.6541 51.0842C52.6711 51.0752 52.688 51.0663 52.7049 51.0574C56.99 48.0311 57.0348 40.4554 52.3809 37.756C51.2504 37.1003 50.1412 37.3859 48.9453 37.1044C48.6107 37.0256 48.5219 36.6726 48.3971 36.4122C48.5638 36.2983 48.8609 35.9971 49.0208 35.8453L48.9699 35.2932C49.3623 35.244 49.7595 35.1726 50.1503 35.1068Z" fill="#432A24"/>
<path d="M50.1503 35.1068L50.2947 35.7245C49.9244 35.916 49.447 35.8577 49.0208 35.8453L48.9699 35.2932C49.3623 35.244 49.7596 35.1726 50.1503 35.1068Z" fill="#74A867"/>
<path d="M49.5704 46.5325C51.1189 47.8462 51.7664 49.1098 52.3461 50.9747C52.1123 51.0806 51.5268 51.3295 51.3365 51.4491C50.84 49.9724 50.1296 48.9769 49.1643 47.777C49.324 47.4383 49.4612 46.9065 49.5704 46.5325Z" fill="#432A24"/>
<path d="M45.2084 34.6668C45.5019 34.2613 45.7071 33.9025 46.1672 33.6984C46.3571 34.1836 46.5226 34.565 46.6215 35.0817C46.6783 36.0574 46.2867 36.2602 46.3826 36.9985C46.255 36.066 45.5012 36.5765 45.4256 35.185C45.3974 34.9198 45.3625 34.8961 45.2084 34.6668Z" fill="#7D4439"/>
<path d="M45.2084 34.6668C45.5019 34.2613 45.7071 33.9025 46.1672 33.6984C46.3571 34.1836 46.5226 34.565 46.6215 35.0817L46.4561 35.3271C45.9544 35.0538 45.9977 34.9733 45.4256 35.185C45.3974 34.9198 45.3625 34.8961 45.2084 34.6668Z" fill="#954E42"/>
<path d="M48.4346 45.7236C48.6385 45.8559 49.4306 46.3603 49.5704 46.5325C49.4612 46.9065 49.3239 47.4382 49.1643 47.777C48.5938 47.1442 48.2755 46.8552 47.511 46.4832C47.7505 46.0338 47.9747 45.9624 48.4346 45.7236Z" fill="#766764"/>
<path d="M36.3926 36.5908C36.3336 37.5955 37.3065 37.5575 37.2446 38.3688L37.0451 38.4367C36.418 38.2578 36.1058 37.8584 35.596 37.5668C34.0837 36.7019 32.0015 36.2084 30.2924 36.6693C29.7586 36.8132 28.8445 36.9423 28.6558 36.251C28.8427 35.6673 29.1258 35.2038 29.5031 34.7099C32.7373 30.4761 40.3792 27.8986 44.783 31.7772C45.371 32.2951 45.7749 33.0144 46.1672 33.6984C45.7071 33.9025 45.5019 34.2613 45.2084 34.6668C44.9897 34.4474 44.8086 33.9416 44.6298 33.669C43.6824 32.2244 42.2967 31.0723 40.4725 31.287C39.8397 30.8737 38.2206 31.0501 37.4859 31.2034C34.6736 31.7899 32.7283 33.2347 30.6883 35.1437C31.0782 35.1761 33.0756 35.4124 33.3357 35.3666C34.1117 35.5545 36.1833 36.5646 36.3926 36.5908Z" fill="#432A24"/>
<path d="M30.7625 47.1199C28.1124 48.4503 28.4046 49.0502 26.7262 50.249L26.4531 50.1799C25.0939 48.8034 25.7666 44.2065 26.144 42.4209C26.3215 41.5817 27.0526 40.8447 27.8011 40.4648C29.0249 39.8434 34.8323 38.4073 35.4649 39.8448C35.4276 40.1876 35.3481 40.2664 35.1368 40.5251L35.071 40.6047C34.6628 40.4936 34.1294 40.4516 33.7423 40.6516C31.7608 40.4939 29.3586 40.9637 27.6117 41.9158C26.8681 43.766 26.7484 46.3039 26.8392 48.2741C27.2131 47.99 28.1841 47.3308 28.2758 46.895C28.6489 46.7878 29.1328 46.5787 29.582 46.4458C30.3384 46.5425 30.2326 46.4679 30.7625 47.1199Z" fill="#432A24"/>
<path d="M42.3117 41.1522C43.2249 40.3369 45.3685 38.3088 46.4784 38.1488C46.9003 38.286 46.9881 38.3965 47.0337 38.8768C46.633 39.4302 45.4074 40.1952 44.7716 40.6705C42.8438 42.1114 39.3059 46.5003 38.4152 48.7159C37.9482 49.529 35.9755 54.1866 35.8811 54.2852C35.4062 54.2296 35.2759 54.0465 34.9136 53.6801C36.0779 49.2851 39.2488 44.4551 42.3117 41.1522Z" fill="#5E7F3A"/>
<path d="M33.9621 63.5907C30.6347 62.4628 27.3446 58.215 28.304 54.5114C28.846 52.4189 31.0124 49.8325 32.8329 48.7284C33.2935 48.4491 33.6701 48.4873 34.1655 48.6473C33.7813 49.4481 33.446 49.7662 32.8037 50.3754C31.3511 51.3576 29.6936 53.4081 29.4052 55.1325C29.0104 57.4932 30.8241 60.4502 32.8192 61.5517C32.9444 61.6632 33.1092 61.8197 33.2425 61.9099C33.8568 62.407 33.8505 62.8168 33.9621 63.5907Z" fill="#432A24"/>
<path d="M41.1152 58.6894C41.5379 56.5648 41.296 55.8039 41.0227 53.6652C41.229 53.2775 41.2763 53.3351 41.6937 53.0617C42.6255 54.4135 42.7485 56.5136 42.5171 58.1014C42.1115 60.8845 38.3934 60.6274 36.7091 62.3194C35.7007 63.3325 35.5504 64.4893 34.1534 63.6422C34.1802 63.3769 34.5215 62.9301 34.6691 62.6938C36.1144 60.3799 39.0092 60.0433 41.1152 58.6894Z" fill="#432A24"/>
<path d="M29.582 46.4458C30.1835 46.1686 31.011 45.9429 31.6547 45.7886C31.5887 46.7832 31.5992 46.6839 30.7625 47.1199C30.2326 46.4679 30.3384 46.5425 29.582 46.4458Z" fill="#5E4A47"/>
<path d="M34.593 54.8857C34.8832 55.2413 35.2033 55.6549 35.523 55.9768C35.3323 56.7184 35.1895 58.0405 34.1009 57.4877C34.0431 56.7274 34.2941 55.5915 34.593 54.8857Z" fill="#5E7F3A"/>
<path d="M70.7551 13.3921C72.1826 12.0926 74.3288 13.6441 75.4076 14.7809C76.5989 16.036 77.7138 18.7529 77.9615 20.426C78.1096 21.4259 74.7107 20.7657 74.1837 20.8069C73.1699 20.886 69.9755 21.1207 69.6591 22.1783C69.7217 22.3051 69.8382 22.6293 69.9899 22.6535C72.6568 23.078 77.2823 22.4292 78.8058 25.2002C79.4042 26.2886 79.982 29.1435 78.8848 29.9692C77.9136 30.2097 73.9986 27.8526 72.3738 28.309C72.8559 29.834 78.6986 30.3644 77.8378 34.8252C77.2663 37.7865 76.8021 39.1285 74.7485 41.6265L73.7057 41.0211C73.3481 40.9684 72.7858 40.7656 72.2534 40.6809C71.4323 41.2673 64.3362 40.0987 63.6633 38.9664C62.2837 36.6447 64.2615 32.9738 64.5297 30.5065C64.1877 30.6241 63.7757 30.7351 63.5018 30.9546C61.9355 32.7159 61.3361 34.716 61.4925 37.0632C61.667 39.6809 60.1998 39.0083 58.494 38.2497C57.0465 37.6057 55.694 36.8907 55.0736 35.3166C54.9076 34.8143 54.9056 34.7443 54.9426 34.215C55.0704 32.4588 56.8978 28.8001 58.257 27.6849C59.3901 26.5991 60.6014 24.0646 58.012 24.1974C58.0947 24.4041 58.2725 24.7338 58.0953 24.9234C57.1663 25.917 56.1946 26.3739 55.244 27.4144C53.683 29.1234 53.5108 31.4581 52.5196 33.2149C51.5399 33.3795 50.6428 31.8736 49.8823 31.5057L49.8297 31.4346C49.484 31.4841 48.9395 31.54 48.6375 31.6736L48.5434 30.1844C48.5575 29.5659 47.3017 27.532 47.0464 26.4931C46.5165 24.3377 47.1299 23.2521 46.9538 21.1497C46.917 20.7095 46.9541 20.5035 47.2341 20.2084C47.6499 20.2253 48.5743 20.1999 48.8436 20.4128C48.5419 21.6778 48.1095 22.9021 48.0756 24.2102C48.0368 25.6994 48.4746 27.8049 49.562 28.8812C49.8072 28.768 50.2003 28.5451 50.1749 28.2702C49.9466 25.8005 49.1849 24.23 50.3784 21.7737C51.7661 18.9178 54.1185 17.9135 56.9557 16.8668C56.5878 16.3656 56.6573 16.2384 56.8176 15.672C59.871 16.5186 61.3747 17.4397 63.6384 19.8416C63.9264 18.4851 64.3069 17.9472 65.2152 16.954L65.4581 16.9228C65.5112 16.7629 66.0107 16.0488 66.1328 15.8657C66.4188 15.972 66.9025 16.1356 67.1625 16.2581C68.6317 15.091 68.9049 14.4733 70.7551 13.3921Z" fill="#74A867"/>
<path d="M70.7551 13.3921C72.1826 12.0926 74.3288 13.6441 75.4076 14.7809C76.5989 16.036 77.7138 18.7529 77.9615 20.426C78.1096 21.4259 74.7107 20.7657 74.1837 20.8069C73.1699 20.886 69.9755 21.1207 69.6591 22.1783C69.7217 22.3051 69.8382 22.6293 69.9899 22.6535C72.6568 23.078 77.2823 22.4292 78.8058 25.2002C79.4042 26.2886 79.982 29.1435 78.8847 29.9692C77.9136 30.2097 73.9986 27.8526 72.3738 28.309C72.8559 29.834 78.6986 30.3644 77.8378 34.8252C77.2663 37.7865 76.8021 39.1285 74.7485 41.6265L73.7057 41.0211L74.2877 40.0739C73.9263 39.745 73.7359 39.2337 73.5269 38.7835C72.9148 34.8268 68.9898 27.3545 66.7505 23.9502C65.9476 22.7296 64.5731 20.9944 63.6384 19.8416C63.9264 18.4851 64.3069 17.9472 65.2152 16.954L65.4581 16.9228C65.5112 16.7629 66.0107 16.0488 66.1328 15.8657C66.4188 15.972 66.9025 16.1356 67.1625 16.2581C68.6317 15.091 68.9049 14.4733 70.7551 13.3921Z" fill="#93B66F"/>
<path d="M70.7552 13.3921C72.1826 12.0926 74.3288 13.6441 75.4077 14.7809C76.5989 16.036 77.7138 18.7529 77.9615 20.426C78.1096 21.4259 74.7108 20.7657 74.1837 20.8069C73.17 20.886 69.9755 21.1207 69.6591 22.1783C69.7217 22.3051 69.8383 22.6293 69.9899 22.6535C72.6569 23.078 77.2823 22.4292 78.8058 25.2002C79.4042 26.2886 79.982 29.1435 78.8848 29.9692C77.9137 30.2097 73.9986 27.8526 72.3739 28.309C72.8559 29.834 78.6986 30.3644 77.8378 34.8252C77.2663 37.7865 76.8022 39.1285 74.7485 41.6265L73.7057 41.0211L74.2877 40.0739C75.8017 38.2292 76.781 35.728 76.6869 33.3155C75.4069 31.017 72.7169 30.7695 71.071 28.9042C70.1734 27.7816 71.3111 26.8965 72.4452 27.0045C74.2735 27.1786 75.7885 27.8029 77.4999 28.3607C77.808 28.4611 78.0104 28.4016 78.273 28.2402C78.477 27.7879 78.1326 27.1042 78.0249 26.6142C77.3892 23.8891 74.3103 24.36 71.9151 24.0264C70.9257 23.8886 66.7644 23.8289 68.8079 21.1109C70.0897 19.406 74.3229 19.7124 76.4966 19.8456C76.0673 18.0539 75.2628 15.8618 73.5713 14.8917C72.7607 14.4268 71.3736 13.958 70.7552 13.3921Z" fill="#432A24"/>
<path d="M66.1328 15.8657C66.4188 15.972 66.9025 16.1356 67.1625 16.2581C66.8421 17.0226 66.2182 17.2311 65.4581 16.9228C65.5112 16.7629 66.0107 16.0488 66.1328 15.8657Z" fill="#766764"/>
<path d="M56.8176 15.672C59.871 16.5186 61.3747 17.4397 63.6384 19.8416C64.5731 20.9944 65.9476 22.7296 66.7505 23.9502C68.9898 27.3545 72.9148 34.8268 73.5269 38.7835C73.2189 38.9654 73.1283 38.9966 72.7999 39.1079C72.4876 39.0312 72.4275 38.9989 72.3164 38.6537C70.2518 32.2327 63.9777 18.5087 56.9557 16.8668C56.5878 16.3656 56.6573 16.2384 56.8176 15.672Z" fill="#5E7F3A"/>
<path d="M48.5434 30.1844C48.5575 29.5659 47.3017 27.532 47.0464 26.4931C46.5165 24.3377 47.1299 23.2521 46.9538 21.1497C46.917 20.7095 46.9541 20.5035 47.2341 20.2084C47.6499 20.2253 48.5743 20.1999 48.8436 20.4128C48.5419 21.6778 48.1095 22.9021 48.0756 24.2102C48.0368 25.6994 48.4746 27.8049 49.562 28.8812C50.4133 30.2053 50.6885 30.5628 51.9014 31.6054C52.5139 29.2351 53.238 27.6853 54.9879 25.8887C55.7992 25.0557 56.8073 24.2074 58.012 24.1974C58.0947 24.4041 58.2725 24.7338 58.0953 24.9234C57.1663 25.917 56.1946 26.3739 55.244 27.4144C53.683 29.1234 53.5108 31.4581 52.5196 33.2149C51.5399 33.3795 50.6428 31.8736 49.8823 31.5057L49.8297 31.4346C49.484 31.4841 48.9395 31.54 48.6375 31.6736L48.5434 30.1844Z" fill="#432A24"/>
<path d="M48.5434 30.1844L48.7137 30.1411C49.0737 30.4262 49.5717 31.0445 49.8297 31.4346C49.484 31.4842 48.9395 31.54 48.6375 31.6736L48.5434 30.1844Z" fill="#74A867"/>
<path d="M65.1184 29.4893C65.4886 29.98 65.6159 30.2073 65.8982 30.7564C65.5471 32.1255 63.7992 36.8103 64.5561 38.1015C65.5449 39.7882 71.795 38.6231 72.2534 40.6809C71.4323 41.2673 64.3362 40.0987 63.6633 38.9664C62.2837 36.6447 64.2615 32.9738 64.5297 30.5065C64.9844 30.0707 64.9884 30.1096 65.1184 29.4893Z" fill="#432A24"/>
<path d="M63.0859 29.8749C63.0936 30.3622 63.0568 30.5183 63.4027 30.8622C63.435 30.8938 63.4681 30.9246 63.5018 30.9546C61.9355 32.7159 61.3361 34.716 61.4926 37.0632C61.667 39.6809 60.1998 39.0083 58.494 38.2497C57.0466 37.6057 55.694 36.8907 55.0736 35.3166C55.2583 35.158 55.4359 35.0475 55.6376 34.9138C56.235 34.9139 57.0247 36.023 57.7908 36.4999C58.8112 37.1352 58.9925 37.1857 60.1142 37.606C60.1395 34.8212 60.6297 31.5729 63.0859 29.8749Z" fill="#432A24"/>
<path d="M58.257 27.6849C58.6422 28.0182 58.5936 27.8886 58.7542 28.332C58.6491 29.1233 57.294 31.1429 56.9008 32.0551C56.6341 32.6737 56.2767 33.9867 55.9518 34.3417C55.6403 34.4736 55.2785 34.3139 54.9426 34.215C55.0704 32.4588 56.8978 28.8001 58.257 27.6849Z" fill="#5E7F3A"/>
<path d="M63.0859 29.8749C63.6177 29.5566 64.483 29.3925 65.1184 29.4893C64.9885 30.1096 64.9845 30.0707 64.5297 30.5065C64.1877 30.6241 63.7758 30.7351 63.5018 30.9546C63.4681 30.9246 63.435 30.8938 63.4027 30.8622C63.0568 30.5183 63.0936 30.3622 63.0859 29.8749Z" fill="#5E4A47"/>
<path d="M68.4269 50.3392C67.2339 50.0543 67.3177 49.1141 67.533 48.2981C68.2998 45.3937 71.7357 43.2651 74.6249 44.4348C74.8245 44.5157 76.0183 44.2799 76.2761 44.2752C78.1848 43.8754 79.7469 44.41 81.235 45.6067C81.8149 46.073 82.8349 46.7446 82.7114 47.5864C82.501 47.9866 82.2633 48.1385 81.6067 48.3435C80.2965 48.7524 76.2385 49.1524 76.4946 51.2479C76.5072 51.3511 76.8768 51.905 76.9708 52.035C77.3522 51.7873 77.7974 51.545 78.1956 51.3168C78.3639 50.8634 78.6155 50.5381 79.064 50.4041C81.1419 49.7838 84.7872 49.4699 85.704 52.018C86.285 53.6331 86.2155 54.7102 86.0668 56.3466C86.0664 56.3515 85.9929 56.5082 85.9207 56.5055C84.3641 56.4477 83.2481 55.8647 81.5839 55.8505C80.9602 55.9624 80.5032 56.0567 79.9236 56.3451L79.7692 56.7206C80.3516 57.6465 85.3626 57.8376 86.375 59.7658C87.2163 61.3682 86.3695 66.4383 85.43 67.6178C84.9687 68.4308 84.8277 68.8375 84.0081 69.294C83.855 69.489 83.756 69.581 83.5761 69.7531C83.1136 69.891 81.6627 69.3582 81.1129 69.3167C79.5255 69.1969 78.0138 69.5195 76.4736 68.9451C73.8081 67.9509 75.1825 62.9775 74.6584 61.6465L74.439 61.6091C72.3268 62.848 73.6968 67.9649 73.2442 68.7215C72.2311 69.2043 70.1699 68.5242 69.3569 67.7402C68.7513 66.1326 68.9075 61.1691 70.5645 60.4792C71.1646 59.527 71.921 57.6503 69.958 57.8584C67.3931 57.9296 65.9804 61.6162 65.3206 63.6962C64.4691 62.8457 63.2705 61.5658 62.924 60.3757L62.9588 60.2688C63.3591 60.0764 63.4208 60.032 63.7529 59.7361C63.9495 59.3665 63.7373 59.0241 63.7215 58.6258C63.5891 55.2893 65.1713 52.7939 68.6273 52.4026C68.7028 52.1281 68.8733 51.7091 68.9775 51.4291C68.8135 51.0709 68.6089 50.6923 68.4269 50.3392Z" fill="#93B66F"/>
<path d="M62.9588 60.2688C63.3591 60.0764 63.4208 60.032 63.7529 59.7361C63.9495 59.3665 63.7373 59.0241 63.7215 58.6258C63.5891 55.2893 65.1713 52.7939 68.6273 52.4026C72.0328 53.9541 75.4663 56.6687 77.6828 59.6918C76.2814 60.1421 76.7176 60.4629 75.9446 61.3245C75.8964 63.6887 75.6387 65.6676 76.6276 67.8436C78.6885 68.1043 82.911 67.4909 84.0081 69.294C83.855 69.489 83.756 69.581 83.5761 69.7531C83.1136 69.891 81.6627 69.3582 81.1129 69.3167C79.5255 69.1969 78.0138 69.5195 76.4736 68.9451C73.8081 67.9509 75.1825 62.9775 74.6584 61.6465L74.439 61.6091C72.3268 62.848 73.6968 67.9649 73.2442 68.7215C72.2311 69.2043 70.1699 68.5242 69.3569 67.7402C68.7513 66.1326 68.9075 61.1691 70.5645 60.4792C71.1646 59.527 71.921 57.6503 69.958 57.8585C67.3931 57.9296 65.9804 61.6162 65.3206 63.6962C64.4691 62.8457 63.2705 61.5658 62.924 60.3757L62.9588 60.2688Z" fill="#74A867"/>
<path d="M71.9216 66.8363C71.9138 66.4063 71.9109 65.9763 71.9127 65.5462C71.9282 63.4891 73.2631 57.9651 75.9446 61.3245C75.8964 63.6887 75.6388 65.6676 76.6276 67.8436C78.6885 68.1043 82.9111 67.4909 84.0081 69.294C83.855 69.489 83.756 69.581 83.5761 69.7531C83.1137 69.891 81.6627 69.3582 81.1129 69.3167C79.5256 69.1969 78.0138 69.5195 76.4736 68.9451C73.8081 67.9509 75.1826 62.9775 74.6584 61.6465L74.439 61.6091C72.3269 62.848 73.6969 67.9649 73.2442 68.7215C72.2311 69.2044 70.1699 68.5243 69.357 67.7402C68.7513 66.1326 68.9075 61.1691 70.5645 60.4792C71.0142 60.6297 70.9956 60.5403 71.1836 60.8624C71.1137 61.2066 71.0246 61.4786 70.8833 61.8C70.2268 63.2934 70.249 64.9023 70.2661 66.5022C70.9847 66.7441 71.1785 66.7669 71.9216 66.8363Z" fill="#432A24"/>
<path d="M70.2661 66.5022C70.9847 66.7441 71.1786 66.7669 71.9217 66.8363C72.0398 67.2072 72.0812 67.152 72.0053 67.4894L71.6727 67.6245C70.8597 67.5933 70.4544 67.2714 70.2661 66.5022Z" fill="#93B66F"/>
<path d="M68.4269 50.3392C67.2339 50.0543 67.3177 49.1141 67.5331 48.2981C68.2998 45.3937 71.7357 43.2651 74.6249 44.4348C74.8245 44.5157 76.0183 44.2799 76.2761 44.2752C78.1848 43.8754 79.7469 44.41 81.235 45.6067C81.8149 46.073 82.8349 46.7446 82.7114 47.5864C82.501 47.9866 82.2633 48.1385 81.6067 48.3435C80.2965 48.7524 76.2385 49.1524 76.4946 51.2479C76.5072 51.3511 76.8768 51.905 76.9708 52.035C76.7127 52.3908 76.6738 52.4319 76.2969 52.6564C75.4514 53.3666 75.4333 54.038 75.3411 55.0939L75.3293 55.2321C74.2624 54.5271 72.8681 53.0632 71.5963 52.3991C70.9806 52.0802 70.3147 51.8367 69.6622 51.6034C69.4051 51.5114 69.2453 51.5724 68.9775 51.4291C68.8136 51.0709 68.6089 50.6923 68.4269 50.3392Z" fill="#74A867"/>
<path d="M68.4269 50.3392C67.2339 50.0543 67.3177 49.1141 67.5331 48.2981C68.2998 45.3937 71.7357 43.2651 74.6249 44.4348C74.8245 44.5157 76.0183 44.2799 76.2761 44.2752C78.1848 43.8754 79.7469 44.41 81.235 45.6067C81.8149 46.073 82.8349 46.7446 82.7114 47.5864C82.501 47.9866 82.2633 48.1385 81.6067 48.3435C80.2965 48.7524 76.2385 49.1524 76.4946 51.2479C76.5072 51.3511 76.8768 51.905 76.9708 52.035C76.7127 52.3908 76.6738 52.4319 76.2969 52.6564C74.7886 51.91 74.6754 50.9586 75.6271 49.6503C76.9241 47.867 78.9201 48.0143 80.7941 47.4287C80.9678 47.3745 80.9776 47.1516 81.0026 47.0138C80.4983 45.5852 76.4998 45.422 75.9463 44.7843L75.8089 44.6268C75.7896 44.6035 75.7702 44.5802 75.751 44.557C75.4056 44.5096 74.855 44.5316 74.5261 44.6576C72.4855 45.4399 69.5934 45.6882 68.9571 48.2069C68.743 49.0542 68.9755 49.6444 68.4269 50.3392Z" fill="#432A24"/>
<path d="M68.9776 51.4291C69.2453 51.5724 69.4052 51.5114 69.6622 51.6034C70.3147 51.8367 70.9806 52.0802 71.5963 52.3991C72.8681 53.0632 74.2624 54.5271 75.3293 55.2321C76.8826 56.9055 84.618 64.9396 83.3423 67.084C82.4175 67.1233 81.7804 65.3796 81.3029 64.651C80.2727 63.0793 79.0671 60.9567 77.6829 59.6918C75.4663 56.6687 72.0328 53.9541 68.6273 52.4026C68.7028 52.1281 68.8734 51.7091 68.9776 51.4291Z" fill="#588D4B"/>
<path d="M78.1956 51.3168C78.3639 50.8634 78.6156 50.5381 79.064 50.4041C81.1419 49.7838 84.7872 49.4699 85.704 52.0179C86.2851 53.6331 86.2155 54.7102 86.0669 56.3466C86.0664 56.3515 85.9929 56.5081 85.9207 56.5055C84.3641 56.4477 83.2481 55.8647 81.5839 55.8505C80.9602 55.9624 80.5032 56.0567 79.9237 56.3451C79.4805 56.086 79.3842 55.8863 79.0956 55.452L79.6154 55.1604C81.5089 54.2339 83.049 54.7139 84.9804 55.107C84.7901 53.2377 84.836 53.1327 83.9129 51.4894C82.9575 51.3581 82.3836 51.2798 81.4369 51.2779C80.5526 51.2763 78.9948 51.4571 78.1956 51.3168Z" fill="#432A24"/>
<path d="M79.0956 55.452L79.6154 55.1604C80.2168 55.4869 81.2829 55.3222 81.5839 55.8505C80.9603 55.9624 80.5033 56.0567 79.9237 56.3451C79.4805 56.086 79.3842 55.8863 79.0956 55.452Z" fill="#766764"/>
<path d="M79.0956 55.452C79.3842 55.8863 79.4805 56.086 79.9237 56.3451L79.7692 56.7206C80.3516 57.6465 85.3626 57.8376 86.375 59.7658C87.2163 61.3682 86.3696 66.4383 85.4301 67.6178L84.8613 67.3888C84.7167 67.1696 84.6815 67.1453 84.721 66.8617C85.0191 64.7216 85.5853 62.7534 85.4747 60.5569C83.5997 58.6185 81.5335 59.1467 79.3985 58.0686C78.2957 57.5118 78.4845 56.3997 79.0956 55.452Z" fill="#432A24"/>
<path d="M46.6033 62.894L47.7117 62.5424C49.6842 63.0663 50.2506 63.7231 50.7943 65.6976C50.8165 66.0976 50.8261 66.6586 50.9297 67.029C50.7235 67.5739 50.2084 69.0257 49.8505 69.4515C48.3666 71.2168 45.8846 72.1407 43.9595 73.3631C43.6838 73.5382 43.2818 73.4192 43.0278 73.2555C42.1827 74.1042 42.0549 74.0452 41.1823 74.724C41.5272 75.0854 41.5592 75.0936 41.6114 75.5315C41.4655 75.949 40.4313 76.9588 39.9852 76.9671C39.321 76.5216 38.2022 73.6608 37.8144 72.8202C37.039 71.1395 38.5037 70.3998 39.9049 69.9485C39.7465 69.6426 39.561 69.359 39.3782 69.0672C39.0574 68.9234 38.88 68.8646 38.6206 68.6156C37.2912 65.9707 43.0928 60.6748 44.7087 63.4021C45.0142 63.6491 45.4341 64.0556 45.7986 64.0963L46.1018 63.8959C46.2498 63.558 46.39 63.1922 46.6033 62.894Z" fill="#74A867"/>
<path d="M46.6033 62.894L47.7117 62.5424C49.6842 63.0663 50.2506 63.7231 50.7944 65.6976C50.8165 66.0976 50.8261 66.6586 50.9297 67.029C50.7236 67.5739 50.2084 69.0257 49.8505 69.4515C48.3666 71.2168 45.8846 72.1407 43.9595 73.3631C43.6838 73.5382 43.2818 73.4192 43.0278 73.2555C43.5876 71.3279 46.9156 70.7199 48.291 69.2602C50.0625 67.3805 50.2838 65.8094 48.3739 63.9023C47.6506 63.8506 46.5874 64.0815 46.1018 63.8959C46.2498 63.558 46.39 63.1922 46.6033 62.894Z" fill="#432A24"/>
<path d="M39.9049 69.9485C40.3046 70.3418 40.333 70.2416 40.3954 70.6937C40.153 71.244 39.3018 71.5344 38.7643 71.926C39.0609 72.6145 40.1036 74.613 40.0906 75.1929C40.3581 75.2898 40.9282 74.8884 41.1823 74.724C41.5272 75.0854 41.5592 75.0936 41.6114 75.5315C41.4655 75.949 40.4313 76.9588 39.9852 76.9671C39.321 76.5216 38.2022 73.6608 37.8144 72.8202C37.039 71.1394 38.5037 70.3998 39.9049 69.9485Z" fill="#432A24"/>
<path d="M39.3782 69.0672C39.0574 68.9234 38.88 68.8646 38.6206 68.6156C37.2912 65.9707 43.0928 60.6748 44.7087 63.4022C43.1714 65.2313 41.536 61.8677 39.3782 69.0672Z" fill="#432A24"/>
<path d="M45.1813 65.423C45.4702 65.432 45.5864 65.4582 45.8696 65.5205C45.9648 65.6165 46.1318 65.7409 46.0851 65.8638C45.6269 67.0674 43.5629 70.1933 42.8127 70.9815L42.4088 70.9261C42.1132 70.6831 42.1968 70.8105 42.0896 70.447C42.1896 69.5299 44.4794 66.0485 45.1813 65.423Z" fill="#5E7F3A"/>
<path d="M56.7347 10.555C54.2737 11.9205 54.9609 14.0798 54.3624 14.5835C54.0647 14.5376 53.8906 14.4678 53.7096 14.1993C52.6742 12.6835 54.5675 10.4491 55.7908 9.6327C59.2574 7.31908 65.7307 6.36132 68.9487 9.54694C70.5391 11.1213 65.2994 14.1471 65.8907 15.7165L66.1328 15.8657C66.0107 16.0488 65.5113 16.7629 65.4582 16.9228L65.2153 16.9541C64.3069 17.9472 63.9264 18.4851 63.6384 19.8416C61.3748 17.4397 59.8711 16.5186 56.8177 15.672C55.8413 13.5299 56.3893 13.3446 57.2005 11.3499C57.3055 11.0916 56.9102 10.7537 56.7347 10.555Z" fill="#93B66F"/>
<path d="M56.7347 10.555C54.2737 11.9205 54.9609 14.0798 54.3624 14.5835C54.0647 14.5376 53.8906 14.4678 53.7096 14.1993C52.6742 12.6835 54.5675 10.4491 55.7908 9.6327C59.2574 7.31908 65.7307 6.36132 68.9487 9.54694C70.5391 11.1213 65.2994 14.1471 65.8907 15.7165L66.1328 15.8657C66.0107 16.0488 65.5113 16.7629 65.4582 16.9228L65.2153 16.9541C64.8502 16.5699 64.4942 16.2116 64.5053 15.6476C64.541 13.833 66.9425 11.6223 68.1332 10.3784C65.1967 7.98806 59.6173 8.33335 56.7347 10.555Z" fill="#432A24"/>
<path d="M38.062 20.1453C37.9516 20.0703 37.6121 19.9079 37.4757 19.8381C36.595 18.0327 43.6639 12.9902 45.2368 16.1124C46.1722 16.8651 47.0611 17.9989 46.5173 19.2752C46.6195 19.9206 46.4854 20.2209 46.0801 20.819C43.4235 24.7393 38.253 25.3276 34.088 26.7248C33.9672 26.7653 33.5838 26.736 33.4645 26.7204C32.5222 25.8115 34.5709 22.7411 35.25 21.93C35.4846 21.6499 35.6601 21.6297 35.9898 21.5783C36.2945 21.7069 36.3758 21.7473 36.6465 21.9363C37.0291 21.7218 37.7657 20.5694 38.062 20.1453Z" fill="#93B66F"/>
<path d="M41.6656 20.217C43.0191 19.8777 45.2217 19.1793 46.5173 19.2752C46.6195 19.9206 46.4854 20.2209 46.0801 20.819C43.4235 24.7393 38.253 25.3276 34.088 26.7248C33.9672 26.7653 33.5838 26.736 33.4645 26.7204C32.5222 25.8115 34.5709 22.7411 35.25 21.93C35.4846 21.6499 35.6601 21.6297 35.9898 21.5783C36.2945 21.7069 36.3758 21.7473 36.6465 21.9363C36.0444 22.7569 35.0588 24.46 34.6038 25.345C35.4997 25.0071 36.0929 25.0502 36.8815 24.7838C40.0325 23.7192 42.2931 23.0958 44.6939 20.7057C43.9299 20.974 43.0743 21.1581 42.2812 21.3475C41.8447 21.1666 41.7592 20.6241 41.6656 20.217Z" fill="#432A24"/>
<path d="M38.062 20.1453C37.9517 20.0703 37.6121 19.9079 37.4757 19.8381C36.595 18.0327 43.6639 12.9902 45.2369 16.1124C44.3941 16.7385 42.7336 15.917 40.8755 17.2742C39.4669 18.303 39.198 18.8285 38.062 20.1453Z" fill="#432A24"/>
<path d="M42.2812 21.3475C41.6001 21.512 40.0363 22.0264 39.4941 21.3956C39.4719 20.5626 41.035 20.3044 41.6657 20.217C41.7592 20.6241 41.8447 21.1666 42.2812 21.3475Z" fill="#635A37"/>
<path d="M57.4934 61.9008C57.3144 55.8882 57.8885 49.8769 59.2024 44.0069C59.4136 43.1022 60.0936 40.1662 61.0795 40.0679C61.2898 40.3077 61.3999 40.7001 61.3179 40.9846C59.2456 48.1671 58.488 55.6054 58.9109 63.0744C58.9916 64.4987 59.2922 67.1132 59.0593 68.5253L59.0515 68.5682L58.9254 68.38C58.781 68.3697 58.6369 68.357 58.4929 68.342C58.0367 68.2909 58.0069 68.2527 57.7676 67.9514C57.8058 67.3394 57.774 66.6345 57.7616 66.0147L57.7981 65.4152C57.7523 64.5347 57.7231 63.3929 57.5902 62.5443L57.4934 61.9008Z" fill="#5E7F3A"/>
<path d="M61.6569 61.0157C61.6845 60.8015 61.3693 59.7191 61.2978 59.4419C60.464 56.2109 61.3846 53.142 64.2639 51.314C64.8646 50.9326 66.0114 50.1886 66.5169 51.0955C66.3658 51.7315 64.4648 52.7104 63.8289 53.2199C62.1694 54.5493 61.4914 58.6372 62.9589 60.2688L62.924 60.3757C63.2706 61.5658 64.4691 62.8457 65.3207 63.6962C65.9804 61.6162 67.3932 57.9296 69.9581 57.8584C69.924 59.2986 67.5951 60.6041 67.2618 61.9907C65.7892 68.1168 65.2964 64.6411 62.434 62.3068C62.2536 61.8242 61.9519 61.4369 61.6569 61.0157Z" fill="#432A24"/>
<path d="M57.7676 67.9513C58.0068 68.2527 58.0367 68.2909 58.4929 68.342C58.6368 68.357 58.781 68.3697 58.9254 68.38L59.0514 68.5682C59.257 70.0236 59.3895 71.4882 59.4484 72.9569C59.532 73.4954 59.4348 76.3674 59.4608 77.1966C58.7737 77.0729 57.1385 77.1448 56.4315 77.1699C56.1733 76.112 56.2386 75.6529 56.1036 74.9022L56.0663 74.2752C56.0636 73.9824 56.0495 73.8285 56.131 73.5398C57.0848 72.7483 57.0012 72.6324 56.8988 71.4638C56.8608 70.6429 56.8299 68.99 56.6629 68.2515L57.3734 67.9384L57.7676 67.9513Z" fill="#93B66F"/>
<path d="M56.0663 74.2752C55.9989 73.2788 55.6877 72.3922 55.4767 71.424C54.7052 67.882 53.5103 64.7228 51.6259 61.6121C51.1402 60.8104 49.3451 58.7943 49.1912 58.1126C49.3155 57.8251 49.38 57.7997 49.648 57.6287C51.0534 57.5015 54.0371 63.3089 54.5897 64.4169C55.0382 65.3158 55.4427 66.857 55.8451 67.8272C56.2953 68.9123 56.3968 70.4341 56.8988 71.4637C57.0012 72.6324 57.0848 72.7483 56.131 73.5398C56.0495 73.8285 56.0636 73.9824 56.0663 74.2752Z" fill="#5E7F3A"/>
<path d="M61.6568 61.0157C61.9519 61.4369 62.2536 61.8242 62.4339 62.3068C61.7052 65.5177 60.9254 69.9673 61.0372 73.2522L61.214 73.458L60.9859 73.5029C60.7762 74.0451 60.812 74.4635 60.9302 75.0145C61.0942 75.184 61.0852 75.1745 61.3184 75.2244C60.2393 75.6749 61.6449 77.9459 59.4608 77.1966C59.4348 76.3674 59.532 73.4954 59.4484 72.9569C59.8227 71.8543 59.8799 69.6242 60.0403 68.36C60.3899 65.6019 60.8716 63.6483 61.6568 61.0157Z" fill="#5E7F3A"/>
<path d="M56.6629 68.2515C56.174 67.0874 56.186 64.0043 55.9798 62.5897C55.9367 61.4235 55.5009 60.0664 55.4286 58.9384C55.3169 57.1998 54.1865 54.7375 54.1278 53.1958C54.2542 52.8615 54.2768 52.8255 54.5495 52.5951C55.9862 52.6102 56.9871 60.5785 57.1768 62.0359C57.2211 62.4729 57.2643 63.0874 57.3638 63.5008C57.4805 64.1966 57.5675 64.6335 57.5575 65.346L57.5346 66.114C57.4092 66.6715 57.4012 67.3587 57.3734 67.9384L56.6629 68.2515Z" fill="#5E7F3A"/>
<path d="M50.7944 65.6976C53.3892 67.2834 54.3482 70.0202 55.2988 72.7735C55.4602 73.2411 55.8735 74.546 56.1036 74.9022C56.2387 75.6529 56.1733 76.112 56.4316 77.1699C56.3684 77.2008 56.3046 77.2304 56.2401 77.2589C55.8325 77.4404 55.6371 77.4705 55.2472 77.3221C54.7191 76.7868 55.2764 75.6414 54.3631 75.2073C54.4738 75.1915 54.4863 75.1532 54.5947 75.0702C54.5978 74.693 54.4743 73.9416 54.1796 73.7006C53.9335 71.5798 52.1107 68.7909 50.9297 67.029C50.8261 66.6586 50.8165 66.0976 50.7944 65.6976Z" fill="#5E7F3A"/>
<path d="M53.1736 15.5021C53.6262 15.5642 53.8017 15.5096 53.9343 15.971C53.7053 16.6575 51.9573 17.394 51.3356 17.9013C50.9163 18.2433 50.6819 18.4707 50.3003 18.861C49.8929 18.915 49.9862 18.9232 49.6942 18.6536C49.2539 17.2654 52.0776 15.8678 53.1736 15.5021Z" fill="#432A24"/>
<path d="M49.8297 31.4346L49.8823 31.5057C50.018 32.7927 50.1142 33.8082 50.1503 35.1068C49.7595 35.1726 49.3623 35.244 48.9699 35.2932C48.8947 34.0644 48.6431 32.9041 48.6375 31.6736C48.9395 31.54 49.484 31.4841 49.8297 31.4346Z" fill="#5E7F3A"/>
<path d="M57.7616 66.0147C57.774 66.6345 57.8058 67.3394 57.7676 67.9514L57.3734 67.9384C57.4012 67.3588 57.4093 66.6715 57.5346 66.114L57.7616 66.0147Z" fill="#93B66F" fill-opacity="0.988235"/>
<path d="M57.5902 62.5443C57.7231 63.3929 57.7523 64.5347 57.7981 65.4152L57.5575 65.346C57.5676 64.6335 57.4805 64.1966 57.3638 63.5008L57.4476 63.5688C57.6098 63.4086 57.5764 62.835 57.5902 62.5443Z" fill="#647336" fill-opacity="0.545098"/>
<path d="M57.4934 61.9008L57.5902 62.5443C57.5764 62.835 57.6098 63.4086 57.4476 63.5688L57.3638 63.5008C57.2643 63.0874 57.2211 62.4729 57.1768 62.0359L57.4934 61.9008Z" fill="#5E7F3A" fill-opacity="0.027451"/>
<path d="M57.5575 65.346L57.7981 65.4152L57.7616 66.0147L57.5346 66.114L57.5575 65.346Z" fill="#74A867" fill-opacity="0.639216"/>
</svg>
