<svg width="114" height="114" viewBox="0 0 114 114" fill="none" xmlns="http://www.w3.org/2000/svg">
<path d="M58.2104 78.6024C58.1338 77.3556 56.3443 75.2063 56.6784 74.3618L56.9323 74.2544C58.3446 74.316 59.021 78.0292 59.6676 78.3563C60.1217 78.3605 60.4358 78.3383 60.8668 78.4792C60.7481 79.291 60.7155 80.1692 60.5175 80.9463C60.7531 81.5566 60.9615 81.8501 61.6269 81.6187C61.8676 81.3866 61.86 81.2057 61.9198 80.8699C61.8447 80.0189 61.9338 79.2717 62.1001 78.4426C62.3031 78.4789 62.8927 78.5978 63.0659 78.605C64.5963 77.9167 73.431 78.7896 74.2407 80.2537C74.2726 80.6944 74.206 80.6517 73.9738 81.1083L74.0689 81.2148C74.4029 81.1757 74.5325 81.1329 74.8221 81.3192C75.745 82.5172 74.5481 92.6847 74.3458 94.5968C74.1547 96.4055 73.4777 99.0381 73.0877 100.854L73.8671 100.98C74.991 100.45 75.176 100.732 76.0885 101.433C76.9902 103.393 76.7071 105.125 74.9524 106.482C74.6714 106.251 74.4811 106.107 74.2461 105.826L73.8311 106.055C73.9435 106.316 73.9513 106.368 73.9859 106.651C73.31 108.687 64.0657 109.567 61.8987 109.57C57.7672 109.577 53.2027 109.298 49.2953 107.887C48.5305 107.61 46.7755 107.085 46.7821 106.165C47.0897 105.901 47.1745 105.981 47.6694 105.937L46.549 104.772C46.4692 104.958 46.3455 105.146 46.2387 105.32C45.8901 105.51 46.0416 105.491 45.6716 105.407C45.0906 104.921 44.9117 104.146 44.6945 103.436C45.0785 101.986 46.1847 99.7734 47.9704 100.968L48.1427 100.959C48.5544 101.628 48.6463 102.02 49.394 102.328L49.5976 102.717C50.0985 102.841 51.0934 103.112 51.5572 103.155C51.2734 102.564 50.8771 101.079 50.6856 100.387C49.5273 96.2001 48.788 91.9571 49.0632 87.5964C49.1825 85.7055 49.6307 84.2287 51.1212 82.9346C50.5376 82.8066 49.5262 82.708 49.2271 82.1612C49.2537 81.7119 49.235 81.8539 49.4884 81.4501C49.8338 80.8718 49.965 80.7698 50.4766 80.3252C49.6454 80.2824 47.8253 80.9943 47.4262 80.2225C48.0785 79.0141 56.1479 78.1392 57.6141 78.5467L58.2104 78.6024Z" fill="#C3CDAE"/>
<path d="M44.6945 103.436C45.0785 101.986 46.1847 99.7734 47.9704 100.968L48.1427 100.959C48.5544 101.628 48.6463 102.02 49.394 102.328L49.5976 102.717C49.4002 102.997 49.3775 103.034 49.381 103.374C49.4899 103.615 49.5613 103.831 49.8496 103.918C56.3758 105.894 65.9411 106.516 72.1844 103.616C72.5974 102.606 72.7981 101.894 73.0877 100.854L73.8671 100.98C74.991 100.45 75.176 100.732 76.0885 101.433C76.9902 103.393 76.7071 105.125 74.9524 106.482C74.6714 106.251 74.4811 106.107 74.2461 105.826L73.8311 106.055C73.9435 106.316 73.9513 106.368 73.9859 106.651C73.31 108.687 64.0657 109.567 61.8987 109.57C57.7672 109.577 53.2027 109.298 49.2953 107.887C48.5305 107.61 46.7755 107.085 46.7821 106.165C47.0897 105.901 47.1745 105.981 47.6694 105.937L46.549 104.772C46.4692 104.958 46.3455 105.146 46.2387 105.32C45.8901 105.51 46.0416 105.491 45.6716 105.407C45.0906 104.921 44.9117 104.146 44.6945 103.436Z" fill="#C3CDAE"/>
<path d="M47.6693 105.937C53.0516 108.946 64.9314 108.924 70.7299 107.15C71.7567 106.836 72.819 106.445 73.8311 106.055C73.9435 106.316 73.9512 106.368 73.9859 106.651C73.31 108.687 64.0656 109.567 61.8986 109.57C57.7671 109.577 53.2027 109.298 49.2953 107.887C48.5305 107.61 46.7755 107.085 46.7821 106.165C47.0897 105.901 47.1745 105.981 47.6693 105.937Z" fill="#492A26"/>
<path d="M73.8671 100.98C74.991 100.45 75.176 100.732 76.0886 101.433C76.9902 103.393 76.7071 105.125 74.9525 106.482C74.6715 106.251 74.4811 106.107 74.2461 105.826C74.7213 105.174 75.1602 104.459 75.431 103.697C75.8423 102.54 74.2726 101.857 73.8671 100.98Z" fill="#492A26"/>
<path d="M44.6945 103.436C45.0785 101.986 46.1847 99.7734 47.9704 100.968C47.1269 102.079 44.9172 102.695 46.549 104.772C46.4692 104.958 46.3455 105.146 46.2387 105.32C45.8901 105.51 46.0416 105.491 45.6716 105.407C45.0906 104.921 44.9117 104.146 44.6945 103.436Z" fill="#492A26"/>
<path d="M58.2103 78.6024C58.1337 77.3556 56.3443 75.2063 56.6784 74.3618L56.9323 74.2544C58.3446 74.316 59.021 78.0292 59.6676 78.3563C60.1217 78.3605 60.4358 78.3383 60.8667 78.4792C60.7481 79.291 60.7154 80.1692 60.5175 80.9463C60.7531 81.5566 60.9615 81.8501 61.6269 81.6187C61.8676 81.3866 61.86 81.2057 61.9198 80.8699L62.1912 80.8896C64.7588 80.4594 67.2873 81.1566 69.727 81.6996C70.2183 81.8089 71.4819 81.2185 72.0452 81.472C72.2846 81.7966 72.2371 81.6443 72.2264 82.0438C71.1081 83.8762 59.931 83.9278 57.668 83.7213C56.6403 83.6275 51.687 83.405 51.1212 82.9346C50.5376 82.8066 49.5262 82.708 49.2271 82.1612C49.2537 81.7119 49.235 81.8539 49.4883 81.4501C49.8338 80.8718 49.9649 80.7698 50.4766 80.3252C49.6454 80.2824 47.8253 80.9943 47.4262 80.2225C48.0785 79.0141 56.1479 78.1392 57.6141 78.5467L58.2103 78.6024Z" fill="#492A26"/>
<path d="M50.4766 80.3252C49.6454 80.2824 47.8253 80.9943 47.4262 80.2225C48.0785 79.0141 56.1479 78.1392 57.6141 78.5467L58.2103 78.6024C58.5428 78.9623 58.7442 80.2733 58.8644 80.8299C57.9792 80.836 57.3735 80.8515 56.4972 80.9324C53.9984 81.1631 51.9544 82.1292 49.4883 81.4501C49.8338 80.8718 49.9649 80.7698 50.4766 80.3252Z" fill="#C3CDAE"/>
<path d="M50.4766 80.3252C49.6454 80.2824 47.8253 80.9943 47.4262 80.2225C48.0785 79.0141 56.1479 78.1392 57.6141 78.5467C57.5148 78.8283 57.4666 79.1125 57.1543 79.2163C55.4419 79.7855 52.0832 79.6617 50.4766 80.3252Z" fill="#492A26"/>
<path d="M60.5175 80.9463C60.7531 81.5566 60.9615 81.8501 61.6269 81.6187C61.8676 81.3866 61.86 81.2057 61.9198 80.8699L62.1912 80.8896C62.2123 81.2143 62.2054 81.3203 62.3543 81.6226C62.9619 81.8194 67.0391 81.9663 67.9593 82.0423C65.3779 82.7143 56.6286 83.0094 54.1743 82.0914C54.6765 81.7949 58.9883 81.8677 59.75 81.6466C60.0117 81.5707 60.0769 81.2979 60.1693 81.0621L60.5175 80.9463Z" fill="#897750"/>
<path d="M59.6676 78.3563C60.1217 78.3605 60.4358 78.3383 60.8667 78.4792C60.7481 79.291 60.7155 80.1692 60.5175 80.9463L60.1693 81.0621C60.0375 80.7347 59.5561 78.6178 59.6676 78.3563Z" fill="#C3CDAE"/>
<path d="M74.069 81.2148C74.4029 81.1757 74.5325 81.1329 74.8221 81.3192C75.745 82.5172 74.5481 92.6847 74.3458 94.5968C74.1547 96.4055 73.4777 99.0381 73.0877 100.854C72.7982 101.894 72.5974 102.606 72.1844 103.616C65.9411 106.516 56.3758 105.894 49.8496 103.918C49.5613 103.831 49.4899 103.615 49.3811 103.374C49.3775 103.034 49.4002 102.997 49.5976 102.717C50.0986 102.841 51.0934 103.112 51.5572 103.155C51.6209 103.185 51.8006 103.271 51.8617 103.286C57.1187 104.549 66.3493 105.03 71.2849 102.802C72.8054 98.1455 73.4465 92.4091 73.8119 87.5447C73.9593 85.5828 73.7965 83.0661 74.069 81.2148Z" fill="#492A26"/>
<path d="M63.0659 78.605C64.5962 77.9167 73.431 78.7896 74.2407 80.2537C74.2725 80.6944 74.206 80.6517 73.9737 81.1083C73.8276 80.917 73.2013 80.766 72.9357 80.6853C71.2252 80.1762 69.4702 79.8302 67.6944 79.6519C66.4317 79.5213 65.0503 79.442 63.812 79.1894C63.2912 79.0832 63.2848 78.9797 63.0659 78.605Z" fill="#492A26"/>
<path d="M68.4537 33.0041L68.4906 32.835C67.9224 32.1055 65.8375 32.0805 65.4361 31.2843C65.4829 30.9513 65.4219 31.0686 65.6607 30.8408C67.0354 30.3945 69.3274 31.7969 70.2845 32.7581C73.2129 35.6994 72.9714 40.4975 71.1801 43.9654C70.9698 44.3674 70.7042 44.7742 70.482 45.1856L71.114 45.4785C72.1201 45.6222 72.8508 46.0664 73.1662 47.0881C73.2445 47.3925 73.3884 47.8935 73.4233 48.1889L73.5541 48.3657C74.1609 48.1767 75.1792 45.6625 75.9398 46.8826C75.7325 47.9304 72.8745 51.4489 72.0177 52.3512C71.883 52.4929 71.1932 52.1746 71.0163 52.0996C70.6723 52.1075 70.4432 51.9516 70.1416 51.7913C67.687 50.8023 66.6157 47.5706 68.2603 45.4945C68.426 45.2854 68.5429 45.1178 68.6604 44.8757C68.6001 44.5009 68.3752 44.3162 68.1152 44.0352C67.2589 43.2599 65.3329 42.8007 64.1866 42.4174C62.1809 41.7468 60.7164 40.7001 59.7497 38.763C59.5048 38.2007 59.4397 38.1388 59.443 37.5206L59.0681 37.1031C58.6197 35.6832 58.7345 34.0107 59.8255 32.9143C60.1007 32.9269 60.2897 32.9595 60.5479 32.8658C62.9568 31.7037 66.0009 32.2265 68.4537 33.0041Z" fill="#7BAB5E"/>
<path d="M68.4536 33.0041L68.4906 32.835C67.9224 32.1055 65.8374 32.0805 65.4361 31.2843C65.4829 30.9513 65.4218 31.0686 65.6606 30.8408C67.0353 30.3945 69.3274 31.7969 70.2844 32.7581C73.2128 35.6994 72.9713 40.4975 71.1801 43.9654C70.9698 44.3674 70.7041 44.7742 70.4819 45.1856L71.1139 45.4785C72.12 45.6222 72.8508 46.0664 73.1662 47.0881C73.2444 47.3925 73.3884 47.8935 73.4232 48.1889L73.554 48.3657C74.1609 48.1767 75.1792 45.6625 75.9398 46.8826C75.7325 47.9304 72.8745 51.4489 72.0177 52.3512C71.883 52.4929 71.1932 52.1746 71.0163 52.0996C70.6723 52.1075 70.4432 51.9516 70.1416 51.7913C67.6869 50.8023 66.6156 47.5706 68.2603 45.4945C68.4259 45.2854 68.5428 45.1178 68.6604 44.8757C68.6 44.5009 68.3752 44.3162 68.1152 44.0352C68.6186 43.8556 68.7015 43.7952 69.1256 43.4624C69.301 43.6696 69.5353 44.0051 69.768 44.0931C70.5861 43.5391 71.1501 40.3888 71.3168 39.3846C71.6135 37.5971 70.5409 33.1896 68.4536 33.0041Z" fill="#492A26"/>
<path d="M70.1416 51.7913C70.5379 51.1739 70.2868 50.9332 69.8597 50.453C68.7744 49.2335 68.0599 47.6722 69.0431 46.1428C69.4531 45.5052 69.8885 45.7176 70.482 45.1856L71.114 45.4785C72.1201 45.6222 72.8508 46.0664 73.1662 47.0881C73.2445 47.3925 73.3884 47.8935 73.4233 48.1889L73.5541 48.3657C74.1609 48.1767 75.1792 45.6625 75.9398 46.8826C75.7325 47.9304 72.8745 51.4488 72.0177 52.3512C71.883 52.4929 71.1933 52.1746 71.0164 52.0996C70.6723 52.1075 70.4432 51.9516 70.1416 51.7913Z" fill="#7BAB5E"/>
<path d="M73.4232 48.1889L73.554 48.3657C74.1609 48.1767 75.1792 45.6625 75.9398 46.8826C75.7325 47.9304 72.8745 51.4488 72.0177 52.3512C71.883 52.4929 71.1932 52.1746 71.0163 52.0996C71.7886 50.5982 72.0908 51.3812 72.5072 49.073L72.4374 47.8615L73.1662 47.0881C73.2444 47.3925 73.3884 47.8935 73.4232 48.1889Z" fill="#492A26"/>
<path d="M73.1662 47.0881C73.2445 47.3925 73.3884 47.8935 73.4232 48.1889C72.7316 48.7311 72.5841 48.1855 72.5072 49.073L72.4374 47.8615L73.1662 47.0881Z" fill="#816A64"/>
<path d="M71.114 45.4785C72.12 45.6222 72.8508 46.0664 73.1662 47.0881L72.4374 47.8615C71.9812 46.8883 71.4979 46.8173 70.9663 46.0194C70.9467 45.6716 70.9196 45.8123 71.114 45.4785Z" fill="#492A26"/>
<path d="M59.7497 38.763C60.2277 38.5249 60.1719 38.463 60.6345 38.4964C60.9963 38.7608 61.1528 39.0821 61.4351 39.4121C63.4662 41.7861 66.9437 41.4694 69.1256 43.4624C68.7015 43.7951 68.6187 43.8556 68.1152 44.0352C67.2589 43.2599 65.3329 42.8007 64.1866 42.4174C62.1809 41.7468 60.7164 40.7001 59.7497 38.763Z" fill="#553B37"/>
<path d="M60.5479 32.8658C60.5181 33.8537 60.1192 34.2543 59.9184 35.1768C59.7942 35.7469 60.1381 36.7499 59.8244 37.2266L59.443 37.5206L59.0681 37.1031C58.6197 35.6832 58.7345 34.0107 59.8255 32.9143C60.1007 32.9269 60.2897 32.9595 60.5479 32.8658Z" fill="#492A26"/>
<path d="M62.5806 32.4058C64.3246 32.427 67.8706 35.0337 67.3466 36.7726C66.0825 36.799 65.3452 34.8875 64.2709 34.1983C63.7898 33.8897 62.8562 33.4295 62.5175 33.0562C62.4179 32.6837 62.4257 32.8391 62.5806 32.4058Z" fill="#5C934A"/>
<path d="M66.8745 62.0773C67.4243 61.5695 67.7905 61.4275 68.6791 61.4589C69.7792 61.4979 72.3136 62.1935 72.3889 63.6132C72.3928 63.685 72.1878 64.0657 72.1365 64.1691C72.3325 64.6593 72.9097 66.5188 73.0879 66.7793C73.0202 66.2723 72.9542 65.9233 73.4338 65.5974C73.6651 65.5922 73.7247 65.5521 73.9136 65.7379C74.3311 66.1485 74.3969 66.8152 74.4075 67.3591C74.4599 70.0288 73.3253 72.4922 71.557 74.4477C71.3094 74.7214 70.8344 75.0791 70.4558 75.0905C70.1479 75.0997 70.0623 75.0477 69.8802 74.8321C69.3163 74.1642 69.1791 73.7116 68.511 73.0919L67.712 72.5677C61.4197 70.3686 62.0203 61.9355 65.5819 62.5096L66.8745 62.0773Z" fill="#7BAB5E"/>
<path d="M66.8745 62.0773C67.4243 61.5695 67.7905 61.4275 68.6791 61.4589C69.7792 61.4979 72.3136 62.1935 72.3889 63.6132C72.3928 63.685 72.1878 64.0657 72.1365 64.1691C72.3325 64.6593 72.9097 66.5188 73.0879 66.7793C73.0202 66.2723 72.9542 65.9233 73.4338 65.5974C73.6651 65.5922 73.7247 65.5521 73.9136 65.7379C74.3311 66.1485 74.3969 66.8152 74.4075 67.3591C74.4599 70.0288 73.3252 72.4922 71.557 74.4477C71.3094 74.7214 70.8344 75.0791 70.4558 75.0905C70.1479 75.0997 70.0623 75.0477 69.8802 74.8321C69.3163 74.1642 69.179 73.7116 68.511 73.0919C68.7775 72.6292 68.8108 72.5698 68.8435 72.026C69.447 72.4161 70.0639 73.0614 70.4909 73.6387L70.599 73.6524C70.4123 73.1348 70.8308 72.5542 70.8168 71.9879C70.7373 68.7849 70.3254 65.3172 68.0478 62.8731C67.9352 62.7522 68.0325 62.5949 68.0946 62.4692L68.4481 62.372C67.7675 62.2419 67.6091 62.6121 66.8745 62.0773Z" fill="#9CB863"/>
<path d="M73.0879 66.7793C73.0202 66.2723 72.9542 65.9233 73.4338 65.5974C73.6652 65.5922 73.7247 65.5521 73.9136 65.7379C74.3311 66.1485 74.3969 66.8152 74.4075 67.3591C74.4599 70.0288 73.3253 72.4922 71.557 74.4477C71.3094 74.7214 70.8344 75.0791 70.4558 75.0905C70.148 75.0997 70.0623 75.0477 69.8802 74.8321C69.3163 74.1642 69.1791 73.7116 68.511 73.0919C68.7775 72.6292 68.8108 72.5698 68.8435 72.026C69.447 72.416 70.0639 73.0614 70.491 73.6387L70.5991 73.6523C72.0478 72.2375 74.0633 68.7733 73.0879 66.7793Z" fill="#492A26"/>
<path d="M66.8745 62.0773C67.4243 61.5695 67.7905 61.4275 68.6791 61.4589C69.7792 61.4979 72.3136 62.1935 72.3889 63.6132C72.3928 63.685 72.1878 64.0657 72.1365 64.1691C70.7195 63.0148 70.2449 62.7785 68.4481 62.372C67.7675 62.2419 67.6091 62.6121 66.8745 62.0773Z" fill="#492A26"/>
<path d="M67.712 72.5677C61.4197 70.3686 62.0203 61.9355 65.5819 62.5096C65.5412 63.4675 64.8984 63.5754 64.5523 64.261C62.6229 68.0832 65.9855 70.3251 68.6321 71.9334L68.8435 72.026C68.8108 72.5698 68.7775 72.6292 68.511 73.0919L67.712 72.5677Z" fill="#492A26"/>
<path d="M68.6321 71.9334L68.8435 72.026C68.8108 72.5698 68.7775 72.6292 68.511 73.0919L67.712 72.5677C68.074 72.1657 68.1261 72.1228 68.6321 71.9334Z" fill="#816A64"/>
<path d="M50.8569 55.654C51.5298 55.1777 51.8522 55.0962 52.6329 55.3507C55.0356 56.1341 55.711 59.3744 55.1544 61.5737C54.5759 63.8591 52.9202 65.7331 51.9232 67.9635C50.8262 68.3001 50.4312 68.2377 49.3214 67.614C47.273 66.463 45.1963 64.7947 44.5092 62.4655C44.0958 61.0261 44.267 59.4817 44.9854 58.1677C45.6168 57.034 46.6329 56.1353 47.8952 55.7268C48.6934 55.4687 49.1823 55.9533 49.5186 55.9455L50.0345 55.9965C50.2393 55.9301 50.6426 55.7453 50.8569 55.654ZM47.8278 57.018C47.0218 57.2438 46.5522 57.6638 46.1363 58.3956C44.865 60.6322 45.5776 63.6619 47.7039 65.1045C47.7583 65.1414 47.9004 65.1765 47.9676 65.1899C46.3354 62.3338 46.2297 59.9194 47.8278 57.018Z" fill="#9CB863"/>
<path d="M50.8569 55.654C51.5298 55.1777 51.8522 55.0962 52.6329 55.3507C55.0356 56.1341 55.711 59.3744 55.1544 61.5737C54.5759 63.8591 52.9202 65.7331 51.9232 67.9635C50.8262 68.3001 50.4312 68.2377 49.3214 67.614C47.273 66.463 45.1963 64.7947 44.5092 62.4655C44.0958 61.0261 44.267 59.4817 44.9854 58.1677C45.6168 57.034 46.6329 56.1353 47.8952 55.7268C48.6934 55.4687 49.1823 55.9533 49.5186 55.9455C49.2058 56.0705 48.344 56.8031 47.8278 57.018C47.0218 57.2438 46.5522 57.6638 46.1363 58.3956C44.865 60.6322 45.5776 63.6619 47.7039 65.1045C47.7583 65.1414 47.9004 65.1765 47.9676 65.1899C48.8832 66.047 49.6865 66.5047 50.7898 67.0992C50.8273 67.1245 50.941 67.1508 50.9914 67.1653C51.2393 66.8036 51.2601 66.5747 51.474 66.2111C52.325 64.7648 53.5381 63.1597 53.9769 61.5361C54.325 60.2477 54.3394 58.8219 53.6172 57.659C52.8777 56.4681 52.9412 56.6179 51.5842 56.26C51.0646 56.123 51.0841 56.0518 50.8569 55.654Z" fill="#492A26"/>
<path d="M49.5186 55.9455L50.0345 55.9965L49.8054 56.8109C49.009 58.3064 48.7457 61.053 49.6379 62.5346C49.7197 63.8669 50.8079 66.5036 50.7898 67.0992C49.6865 66.5048 48.8832 66.047 47.9676 65.1899C46.3354 62.3338 46.2297 59.9194 47.8278 57.018C48.344 56.8031 49.2058 56.0705 49.5186 55.9455Z" fill="#D1D171"/>
<path d="M49.8054 56.8109C50.1296 57.0501 50.303 57.1432 50.4715 57.5093C50.4355 58.0043 50.2789 62.2065 50.2163 62.269C50.0854 62.4003 49.8107 62.4709 49.6379 62.5346C48.7457 61.053 49.009 58.3064 49.8054 56.8109Z" fill="#5C934A"/>
<path d="M40.2846 48.387C39.4218 48.0492 37.1226 47.4493 36.6609 46.8699C36.6187 46.5179 36.586 46.6612 36.8208 46.3337C37.7708 45.8437 39.351 47.0583 40.4174 47.3067C40.6657 46.975 40.1297 46.5317 40.3303 45.9388C40.6188 45.7395 40.4856 45.7917 40.9026 45.7994C41.639 46.2513 42.0525 47.6961 42.3178 48.5037C42.4628 48.9447 42.3419 49.0642 42.1493 49.4043C42.3813 49.7506 42.4708 49.888 42.7616 50.1857C43.4389 50.3793 43.9014 50.6638 44.0226 51.4207C44.4137 53.9023 43.5267 56.2559 41.5886 57.8431C40.2399 58.9477 39.0786 59.4452 38.3551 61.0562C38.072 61.6865 36.9825 61.4541 36.5186 61.0304C33.7839 58.5337 32.5336 54.0684 35.0434 50.954C36.5169 49.1265 38.1132 48.6728 40.2846 48.387Z" fill="#7BAB5E"/>
<path d="M40.2846 48.387C39.4218 48.0492 37.1226 47.4493 36.6609 46.8699C36.6187 46.5179 36.586 46.6612 36.8208 46.3337C37.7708 45.8437 39.351 47.0583 40.4174 47.3067C40.6657 46.975 40.1297 46.5317 40.3303 45.9388C40.6188 45.7395 40.4856 45.7917 40.9026 45.7994C41.639 46.2513 42.0525 47.6961 42.3178 48.5037C42.4628 48.9447 42.3419 49.0642 42.1493 49.4043C41.9828 49.4452 41.6967 49.5045 41.5493 49.5664C40.8629 49.5931 40.1418 49.6338 39.4574 49.6286C39.1362 49.6228 38.9764 49.6606 38.6782 49.756C34.0109 51.2505 33.9505 56.8774 37.0179 59.9111C37.1392 60.0305 37.2643 60.1457 37.3931 60.2567C39.3524 57.2166 42.1921 57.3626 42.9263 53.4198C43.1479 52.2303 42.6567 51.0572 42.7616 50.1857C43.4389 50.3793 43.9014 50.6638 44.0226 51.4207C44.4137 53.9023 43.5267 56.2559 41.5886 57.8431C40.2399 58.9477 39.0786 59.4452 38.3551 61.0562C38.072 61.6865 36.9825 61.4541 36.5186 61.0304C33.7839 58.5337 32.5336 54.0684 35.0434 50.954C36.5169 49.1265 38.1132 48.6728 40.2846 48.387Z" fill="#492A26"/>
<path d="M39.4575 49.6286C40.1418 49.6338 40.8629 49.5931 41.5494 49.5664C41.0526 50.8028 40.0289 51.4384 39.2927 52.5238C38.8837 53.1271 38.7852 54.1158 38.2483 54.5618C37.6675 54.6219 37.7035 54.3711 37.5494 53.8428C37.186 52.5967 40.4665 50.3576 39.4575 49.6286Z" fill="#5C934A"/>
<path d="M56.7418 58.7401C55.5596 57.6478 55.8089 56.1981 55.6813 54.8595C55.4359 52.2851 59.6388 47.5689 61.6409 50.0511C62.1131 50.0526 62.5811 50.0284 63.0334 50.1618C66.1825 49.0925 68.0279 53.335 66.4724 56.0282C64.7056 59.0871 62.2017 59.1613 60.1176 61.7664C58.6665 62.1495 58.7336 62.0446 58.007 60.7652C57.5518 60.1022 57.0864 59.4669 56.7418 58.7401Z" fill="#7BAB5E"/>
<path d="M63.0334 50.1618C66.1825 49.0925 68.0279 53.335 66.4724 56.0282C64.7056 59.0871 62.2017 59.1613 60.1176 61.7664C58.6665 62.1495 58.7336 62.0446 58.007 60.7652C58.8073 60.4705 59.1706 60.9154 59.4188 60.7587C59.6187 60.6325 60.3511 59.6759 60.6105 59.5083C62.6148 58.2138 65.0239 57.1998 65.8079 54.7178C66.1377 53.6741 65.6283 52.0478 64.7621 51.3558C64.3096 50.9942 63.5826 51.0288 63.3144 50.4408C63.2325 50.2612 63.205 50.2386 63.0334 50.1618Z" fill="#492A26"/>
<path d="M56.7418 58.7401C55.5596 57.6478 55.8089 56.1981 55.6813 54.8595C55.4359 52.2851 59.6388 47.5689 61.6409 50.0511C60.7411 50.5824 60.5413 50.3868 59.634 50.6864C58.3053 51.1251 57.3335 52.5375 57.0007 53.8457C56.8508 54.4177 56.7955 55.0103 56.8371 55.6002C56.8725 56.0517 56.9932 56.4761 57.0606 56.9192C57.1924 57.7875 57.552 58.1567 56.7418 58.7401Z" fill="#492A26"/>
<path d="M79.3625 45.1391C79.5279 44.8537 79.641 44.6359 79.9973 44.559C83.4371 43.8156 86.1895 46.1362 86.9624 49.429C87.4415 51.5321 87.0699 53.7394 85.9285 55.5698C85.6057 56.0819 85.0465 56.7802 84.4915 57.0455C83.8448 57.0724 83.5848 56.8466 83.2963 56.2691C83.0892 55.9952 82.7741 55.7102 82.5231 55.467C80.4241 54.3329 78.0266 53.6861 76.9154 51.3282C76.1487 49.7016 75.7516 46.9738 77.6714 46.0134C78.1658 45.6559 78.7994 45.4127 79.3625 45.1391Z" fill="#7BAB5E"/>
<path d="M79.3625 45.1391C79.5279 44.8537 79.641 44.6359 79.9973 44.559C83.4371 43.8156 86.1895 46.1362 86.9624 49.429C87.4415 51.5321 87.0699 53.7394 85.9285 55.5698C85.6057 56.0819 85.0465 56.7802 84.4915 57.0455C83.8448 57.0724 83.5848 56.8466 83.2963 56.2691C83.0892 55.9952 82.7741 55.7102 82.5231 55.467C80.4241 54.3329 78.0266 53.6861 76.9154 51.3282C76.1487 49.7016 75.7516 46.9738 77.6714 46.0134C77.9471 46.6834 77.4243 48.1838 77.4854 49.0324C77.7289 52.416 80.7055 53.2042 83.1577 54.6158C83.5414 54.8367 84.1161 55.401 84.441 55.7162C85.1314 54.6289 85.6518 53.6425 85.8403 52.3486C86.378 48.6597 84.3342 44.9192 80.1064 45.6007L79.79 45.5874L79.3625 45.1391Z" fill="#492A26"/>
<path d="M82.5231 55.467C82.8797 55.2982 82.9857 55.2179 83.3762 55.2778C83.6247 55.5001 83.5598 55.3784 83.594 55.7541C83.4972 55.9263 83.4013 56.1021 83.2962 56.2691C83.0892 55.9951 82.7741 55.7102 82.5231 55.467Z" fill="#553B37"/>
<path d="M79.79 45.5874L80.1064 45.6007C80.9164 46.439 82.8439 47.9342 83.2139 49.1362C83.1561 49.5131 83.2165 49.3719 82.9844 49.6736C81.9835 49.8144 81.1841 47.9664 80.5166 47.3657C80.3692 47.2331 79.5908 46.8994 79.2918 46.7323L79.2466 46.4878C79.3297 46.1122 79.5496 45.8891 79.79 45.5874Z" fill="#5C934A"/>
<path d="M50.2765 26.6218L50.2485 26.7074C49.0702 30.2525 44.4726 30.402 41.4676 30.8538C40.2722 31.0335 39.4922 32.3559 38.5299 31.984C38.2528 31.7688 38.0942 31.5579 38.0383 31.1983C37.428 27.267 40.3699 22.3302 44.4069 21.4908C46.0454 21.1588 47.7487 21.4916 49.1417 22.4159C49.9902 22.9876 50.6385 23.649 50.8352 24.6662C51.2486 25.6827 50.9949 25.8593 50.2765 26.6218Z" fill="#492A26"/>
<path d="M39.1567 30.5197C39.2791 27.9562 39.7541 26.1855 41.6734 24.3509C44.234 21.9035 47.1848 21.7982 49.6715 24.4645C49.7416 24.5359 49.9749 24.7648 50.0235 24.8297C49.9508 25.1101 49.8851 25.3515 49.7946 25.6293C49.5676 25.7324 49.5346 25.7541 49.2912 25.7909C46.9625 25.0227 46.9062 25.5547 44.9423 25.5732L44.8481 25.5736C42.4487 26.0323 40.5298 28.7987 39.1567 30.5197Z" fill="#9CB863"/>
<path d="M44.8481 25.5736C45.0164 23.1534 48.6414 24.8837 49.6715 24.4645C49.7416 24.5359 49.9749 24.7648 50.0235 24.8297C49.9508 25.1101 49.8851 25.3515 49.7946 25.6293C49.5676 25.7324 49.5346 25.7541 49.2912 25.7909C46.9624 25.0227 46.9062 25.5547 44.9423 25.5732L44.8481 25.5736Z" fill="#5C934A"/>
<path d="M44.8481 25.5736L44.9423 25.5732C46.9062 25.5547 46.9625 25.0227 49.2912 25.7909L49.6331 25.9014C49.6338 26.0061 49.6511 26.0578 49.6113 26.1359C46.6368 29.5399 45.6741 29.0896 41.4738 29.6755C40.924 29.7522 39.8861 30.3122 39.358 30.5851L39.1567 30.5197C40.5298 28.7987 42.4487 26.0323 44.8481 25.5736Z" fill="#D1D171"/>
<path d="M50.0235 24.8297C50.3263 24.8105 50.5439 24.7416 50.8352 24.6662C51.2486 25.6827 50.9949 25.8593 50.2764 26.6218C50.0995 26.4458 49.8238 26.2783 49.6113 26.1359C49.6511 26.0578 49.6338 26.0061 49.6331 25.9014L49.2912 25.7909C49.5346 25.7541 49.5676 25.7324 49.7946 25.6293C49.8851 25.3515 49.9508 25.1101 50.0235 24.8297Z" fill="#9CB863"/>
<path d="M58.785 37.3452C57.7872 40.0854 55.301 40.5112 52.9039 41.3459C52.3923 41.5316 51.3323 42.4513 50.8285 42.4049C49.2539 42.2594 49.0196 39.054 49.0724 37.9216C49.2542 34.1248 52.2547 30.8222 56.2147 31.0564C57.2081 31.1152 57.7778 31.3708 58.4136 32.1118C59.0667 32.3781 59.2904 32.4408 59.8255 32.9143C58.7345 34.0107 58.6197 35.6832 59.068 37.1031L58.785 37.3452Z" fill="#D1D171"/>
<path d="M58.785 37.3452C57.7872 40.0854 55.301 40.5112 52.9039 41.3459C52.3923 41.5316 51.3323 42.4513 50.8285 42.4049C49.2539 42.2594 49.0196 39.054 49.0724 37.9216C49.2542 34.1248 52.2547 30.8222 56.2147 31.0564C57.2081 31.1152 57.7778 31.3708 58.4136 32.1118C57.9227 32.3801 57.4917 32.3945 56.933 32.2754C52.1816 31.2626 48.7276 37.0217 50.8013 41.033L50.9372 41.141C51.4611 40.8645 52.0464 40.4068 52.5251 40.2263C54.0955 39.6346 55.6906 39.5901 56.9048 38.2552C57.4489 37.6571 57.5533 36.9592 58.3714 37.2072C58.5101 37.2505 58.6481 37.2965 58.785 37.3452Z" fill="#492A26"/>
<path d="M55.0162 22.3853C53.1338 22.0131 52.8892 19.3742 53.2568 17.8561C54.1494 14.1705 58.1032 11.2938 61.9174 12.3266C62.886 12.5865 64.8624 13.2211 64.828 14.4071C64.396 15.1914 62.9157 16.0906 62.63 16.6458C61.4835 18.8741 61.2025 21.6634 58.4157 22.6778C57.7831 22.908 57.2883 22.9839 56.6871 22.7141C55.8984 22.76 55.7265 22.7373 55.0162 22.3853Z" fill="#492A26"/>
<path d="M62.4776 13.6944C62.8105 13.8375 63.1328 13.9212 63.3143 14.212C63.2081 14.6696 61.9628 15.4944 61.6626 15.9982C60.6261 17.7379 60.6901 19.8503 58.8686 21.0478C58.2096 21.4812 56.9055 21.8898 56.5305 22.4149C56.5133 22.4875 56.4706 22.5118 56.4094 22.5791C55.2134 21.013 57.8805 16.1906 59.5032 15.2247C60.5858 14.5802 61.3405 14.2192 62.4776 13.6944Z" fill="#D1D171"/>
<path d="M55.0161 22.3853C55.4332 21.1019 53.6182 19.7535 54.6287 17.4549C56.018 14.295 59.0808 12.4459 62.4776 13.6944C61.3405 14.2192 60.5858 14.5802 59.5032 15.2247C57.8805 16.1906 55.2134 21.013 56.4094 22.5791C56.4706 22.5118 56.5133 22.4875 56.5305 22.4149L56.6871 22.7141C55.8984 22.76 55.7265 22.7373 55.0161 22.3853Z" fill="#9CB863"/>
<path d="M35.3853 47.3455C34.4866 51.2987 30.418 51.8377 27.3185 53.0571C26.5561 53.357 26.0977 54.4053 25.1745 54.3152C24.8609 54.1735 24.6316 53.9458 24.5441 53.6146C23.6067 49.9548 25.6179 45.3033 29.2666 43.9401C31.1174 43.2485 34.8596 43.338 35.6309 45.4968C35.911 46.3496 35.785 46.51 35.3853 47.3455Z" fill="#492A26"/>
<path d="M25.6008 52.344C25.3738 47.8389 28.5358 43.4254 33.4714 44.9587C33.7156 45.088 34.2039 45.3317 34.4067 45.477L35.0095 45.8873C34.9158 46.3134 34.968 46.3922 34.716 46.6784L34.526 46.696C33.1975 46.493 31.7248 46.9037 30.4912 47.3952C28.937 48.0881 25.9379 50.6986 25.6008 52.344Z" fill="#7BAB5E"/>
<path d="M33.4713 44.9587C33.7156 45.088 34.2039 45.3317 34.4066 45.477L35.0094 45.8873C34.9157 46.3134 34.9679 46.3922 34.716 46.6784L34.5259 46.696C33.1975 46.493 31.7247 46.9037 30.4912 47.3952L30.3476 47.1842C30.2628 45.8955 32.2167 45.8278 33.2035 45.6741L33.4713 44.9587Z" fill="#5C934A"/>
<path d="M30.4912 47.3952C31.7247 46.9037 33.1975 46.493 34.5259 46.696L34.7146 46.8958C33.7715 48.2541 32.4792 50.2995 30.8492 50.697C28.82 51.1918 27.5973 51.7508 25.7504 52.625L25.5938 52.5346L25.6008 52.344C25.9379 50.6986 28.9369 48.0881 30.4912 47.3952Z" fill="#D1D171"/>
<path d="M35.0094 45.8873C35.2001 45.8041 35.4516 45.6188 35.6309 45.4968C35.911 46.3496 35.7849 46.51 35.3853 47.3455C35.16 46.9762 35.1164 46.9 34.7146 46.8957L34.5259 46.696L34.716 46.6784C34.9679 46.3922 34.9157 46.3134 35.0094 45.8873Z" fill="#7BAB5E"/>
<path d="M63.3485 25.7177C62.9482 22.8115 66.2938 20.681 68.8548 20.4033C72.3145 20.0282 75.275 22.6751 75.5955 26.0881C75.6515 26.7232 75.6956 27.6542 75.2813 28.1743C74.4608 28.5493 73.6139 27.569 72.5429 27.6639C70.1759 27.8737 68.2124 29.5387 65.7862 28.2847C65.3289 28.069 64.6646 27.6456 64.3242 27.2346C63.7237 26.6542 63.563 26.5221 63.3485 25.7177Z" fill="#492A26"/>
<path d="M64.279 25.0112C64.5908 24.4583 64.9327 23.8466 65.3705 23.3898C68.4034 20.2258 73.0767 21.181 74.2496 25.4892L74.4529 26.259C71.7956 24.8748 73.0973 24.5517 69.1651 24.1839C66.8167 25.0181 67.1618 24.8383 64.919 26.0508C64.6637 25.752 64.4878 25.5137 64.26 25.1929L64.279 25.0112Z" fill="#9CB863"/>
<path d="M64.279 25.0112C65.0546 24.9945 67.0152 23.0633 68.7257 23.4527C69.1078 23.7545 68.9949 23.6602 69.1651 24.1839C66.8167 25.0181 67.1618 24.8383 64.919 26.0508C64.6637 25.752 64.4878 25.5137 64.26 25.1929L64.279 25.0112Z" fill="#5C934A"/>
<path d="M69.1651 24.1839C73.0974 24.5517 71.7956 24.8748 74.4529 26.259L74.324 26.6449C73.9551 26.7527 73.0277 26.3876 72.1581 26.5293C69.763 26.9196 68.1309 28.3645 65.6186 27.1127C65.3827 26.9952 65.0793 26.7387 64.8435 26.6045C64.8095 26.5895 64.7401 26.4838 64.7111 26.4459L64.919 26.0508C67.1618 24.8383 66.8167 25.0181 69.1651 24.1839Z" fill="#D1D171"/>
<path d="M64.2601 25.1929C64.4878 25.5137 64.6637 25.752 64.919 26.0508L64.7112 26.4459C64.7401 26.4838 64.8096 26.5895 64.8435 26.6045C64.5153 26.8283 64.4769 26.8604 64.3242 27.2346C63.7237 26.6542 63.563 26.5221 63.3485 25.7177C63.8447 25.5846 63.9122 25.5658 64.2601 25.1929Z" fill="#7BAB5E"/>
<path d="M36.2056 66.4115C36.4713 67.7887 35.4928 69.131 34.5904 70.0954C33.1659 71.6182 31.1956 72.1209 29.3648 72.9608C28.6482 73.2895 28.0592 74.4045 27.1772 74.4095C26.1461 74.1114 26.0446 72.3998 25.9416 71.478C25.3375 66.0654 30.2316 61.5481 35.5079 64.1503C36.0507 64.4179 36.2344 64.6477 36.5146 65.1878C36.6971 65.3917 36.7233 65.4193 36.7691 65.6873C36.6807 66.0181 36.4615 66.169 36.2056 66.4115Z" fill="#492A26"/>
<path d="M30.9432 67.5903C32.5153 66.8377 33.6777 66.113 35.4536 66.2971L35.5217 66.417C32.9832 71.1729 32.0415 70.3417 27.5759 72.7333L27.3855 72.7136C27.2556 72.4128 27.2586 72.2926 27.2331 71.9763C28.1548 71.2352 29.3607 68.0945 30.9432 67.5903Z" fill="#D1D171"/>
<path d="M27.2331 71.9763C26.4589 67.0644 29.9381 63.1345 34.9512 65.1548L35.7566 65.5419C35.6577 65.8393 35.6048 66.0148 35.4535 66.2971C33.6776 66.113 32.5153 66.8377 30.9432 67.5903C29.3607 68.0945 28.1548 71.2352 27.2331 71.9763Z" fill="#9CB863"/>
<path d="M34.9512 65.1548L35.7566 65.5419C35.6577 65.8393 35.6048 66.0148 35.4535 66.2971C33.6776 66.113 32.5153 66.8377 30.9432 67.5903C30.7499 67.2376 30.7891 67.395 30.7952 66.9918C31.6072 65.4801 34.3265 65.6611 34.9512 65.1548Z" fill="#7BAB5E"/>
<path d="M36.5146 65.1879C36.6971 65.3917 36.7233 65.4193 36.7691 65.6873C36.6807 66.0181 36.4615 66.169 36.2056 66.4115C35.9945 66.3786 35.7388 66.4051 35.5217 66.417L35.4536 66.2971C35.6048 66.0148 35.6577 65.8393 35.7566 65.5419L36.5146 65.1879Z" fill="#9CB863"/>
<path d="M45.4559 68.1494C45.4614 68.289 45.7032 68.8916 45.7718 69.0902C46.1838 70.226 45.84 71.7 45.3151 72.6901C44.3878 74.4395 42.8968 75.1601 41.3025 76.1113C40.8888 76.3582 40.7593 77.5475 39.8557 77.8169C39.6724 77.8086 39.4575 77.7808 39.3022 77.6757C36.5997 75.8229 35.9177 71.8601 37.5777 69.1008C38.9641 66.7965 42.1972 65.1281 44.6999 66.6858L45.0919 66.8092C45.6899 66.4901 46.047 66.4623 46.4627 67.0761C46.42 67.4776 46.4859 67.3281 46.2022 67.6351L45.5956 67.7924L45.4431 67.7528L45.4559 68.1494Z" fill="#7BAB5E"/>
<path d="M45.4559 68.1494C45.4614 68.289 45.7032 68.8916 45.7718 69.0902C46.1838 70.226 45.84 71.7 45.3151 72.6901C44.3878 74.4395 42.8968 75.1601 41.3025 76.1113C40.8888 76.3582 40.7593 77.5475 39.8557 77.8169C39.6724 77.8086 39.4575 77.7808 39.3022 77.6757C36.5997 75.8229 35.9177 71.8601 37.5777 69.1008C38.9641 66.7965 42.1972 65.1281 44.6999 66.6858C43.7966 67.8933 43.5056 67.0318 42.1446 67.3028C40.6786 67.5705 39.6847 68.0694 38.7864 69.3484C37.9649 70.5406 37.6563 72.0126 37.9295 73.4344C38.1642 74.66 38.7837 75.6617 39.6192 76.5624C41.1326 74.3997 43.0528 74.4325 44.3888 72.0853C45.3131 70.4616 43.7844 68.7203 45.4559 68.1494Z" fill="#492A26"/>
<path d="M45.0919 66.8092C45.69 66.4901 46.047 66.4623 46.4627 67.0761C46.4201 67.4777 46.486 67.3281 46.2022 67.6351L45.5957 67.7924L45.4431 67.7529C43.654 67.1991 41.8903 70.1377 41.0515 70.4844C40.731 70.3265 40.8333 70.4288 40.676 70.0887C40.783 68.7714 42.8716 67.7867 43.1289 67.4568C42.8812 67.273 42.4794 67.3127 42.1446 67.3028C43.5056 67.0318 43.7966 67.8934 44.6999 66.6858L45.0919 66.8092Z" fill="#5C934A"/>
<path d="M45.0919 66.8092C45.69 66.4901 46.047 66.4623 46.4627 67.0761C46.4201 67.4777 46.486 67.3281 46.2022 67.6351L45.5957 67.7924C45.4305 67.5164 45.2404 67.107 45.0919 66.8092Z" fill="#492A26"/>
<path d="M84.6536 40.3468C85.207 38.345 88.4888 37.7693 90.2192 38.2674C91.8011 38.7123 93.1389 39.772 93.9346 41.2098C95.0865 43.3002 95.3599 46.3359 93.553 48.1369C92.8008 47.6317 92.6118 47.3621 91.9861 46.7253C89.6092 46.1185 86.9239 45.8595 85.3885 43.5559C84.9654 42.9211 84.9128 42.5428 85.0983 41.8477L85.1117 41.7985L84.5036 41.2441C84.3488 41.0145 84.5703 40.5887 84.6536 40.3468Z" fill="#492A26"/>
<path d="M84.6536 40.3468C85.3731 40.5484 85.6797 40.2499 86.3653 39.8879C87.5284 40.6539 89.2969 39.8385 89.2921 41.6121C90.4904 41.8691 93.5455 44.7323 93.5769 45.8841L93.4718 46.0913C93.1201 46.1611 92.2083 45.7152 91.7676 45.5857C90.2573 45.1272 88.5506 44.9031 87.2412 43.9457C86.4111 43.3387 86.2802 42.0185 85.1117 41.7985L84.5036 41.2441C84.3488 41.0145 84.5703 40.5887 84.6536 40.3468Z" fill="#D1D171"/>
<path d="M84.6536 40.3468C85.3731 40.5484 85.6797 40.2499 86.3653 39.8879C87.5284 40.6539 89.2969 39.8385 89.2921 41.6121C88.7263 41.6499 88.1274 41.2257 87.4822 41.1963C86.4853 41.1509 85.5108 41.2431 84.5036 41.2441C84.3488 41.0145 84.5703 40.5887 84.6536 40.3468Z" fill="#7BAB5E"/>
<path d="M86.3652 39.8879C90.9836 37.8708 94.1686 41.5331 93.5768 45.8841C93.5455 44.7323 90.4904 41.8691 89.2921 41.6121C89.2968 39.8385 87.5284 40.6539 86.3652 39.8879Z" fill="#9CB863"/>
<path d="M72.6417 57.7228C73.372 56.8396 74.2416 56.4436 75.3638 56.3383C81.2755 55.7815 82.4541 62.8642 79.5435 66.6455C79.389 66.8463 79.0189 67.1127 78.7766 67.1076C77.9604 67.0902 77.4869 66.0012 76.8407 65.5282C74.2938 63.6635 72.3145 62.9176 72.293 59.3398C72.2925 59.2346 72.2965 59.1295 72.3052 59.0246L72.0707 58.6687C72.0577 58.6183 72.033 58.2198 72.0273 58.1425C72.3105 58.0268 72.4114 57.9176 72.6417 57.7228Z" fill="#7BAB5E"/>
<path d="M72.6417 57.7228C73.372 56.8396 74.2416 56.4436 75.3638 56.3383C81.2755 55.7815 82.454 62.8642 79.5435 66.6455C79.389 66.8463 79.0189 67.1127 78.7765 67.1076C77.9604 67.0902 77.4869 66.0012 76.8407 65.5282C74.2938 63.6635 72.3145 62.9176 72.293 59.3398C72.2925 59.2346 72.2965 59.1295 72.3052 59.0246L73.1913 59.0127C73.8477 63.7615 76.5077 62.9342 78.6005 65.7279C80.2289 65.0487 81.5086 56.1044 74.4272 57.649C73.8822 57.9271 73.2069 57.8546 72.6417 57.7228Z" fill="#492A26"/>
<path d="M72.6417 57.7229C73.2069 57.8546 73.8822 57.9271 74.4272 57.649C75.0267 58.2805 76.6407 58.5953 76.7633 59.2966C76.5621 59.6324 76.6787 59.5289 76.3257 59.6899C75.6269 59.6859 75.181 59.34 74.607 58.9525C74.3948 58.9592 73.3115 58.9844 73.1913 59.0127L72.3052 59.0246L72.0707 58.6687C72.0577 58.6183 72.033 58.2198 72.0273 58.1425C72.3105 58.0268 72.4114 57.9176 72.6417 57.7229Z" fill="#5C934A"/>
<path d="M84.1992 64.6928C83.8346 64.3627 83.8827 64.498 83.7724 64.0683C83.9327 63.5561 84.5318 63.1845 84.9867 62.9488C87.9099 61.4346 91.4795 61.8354 93.063 65.0441C93.9229 66.823 94.0492 68.8686 93.4148 70.7397C92.3159 73.9565 91.3986 71.3356 90.3071 70.8732C88.1666 69.9661 85.7331 69.2658 84.7286 66.8672C84.5214 66.3579 84.5561 65.7161 84.8837 65.2453C84.6535 65.0637 84.4253 64.8795 84.1992 64.6928Z" fill="#492A26"/>
<path d="M85.4993 63.9762L86.501 63.5178L86.9436 64.0601C87.945 64.2858 89.5494 64.5741 89.1277 65.9685C90.0738 66.7444 92.3988 69.2 91.7189 70.4671C90.1478 69.3951 88.5844 69.2035 87.0492 68.0401C85.8124 67.1029 85.9739 65.9362 84.9185 65.2465L84.8837 65.2453C84.6534 65.0637 84.4253 64.8795 84.1992 64.6928C84.3763 64.6297 85.2512 64.1104 85.4993 63.9762Z" fill="#D1D171"/>
<path d="M85.4993 63.9762L86.501 63.5178L86.9436 64.0601C87.945 64.2858 89.5494 64.5741 89.1277 65.9685C88.18 65.6156 85.6312 64.2632 84.9185 65.2465L84.8837 65.2453C84.6534 65.0637 84.4253 64.8795 84.1992 64.6928C84.3763 64.6297 85.2512 64.1104 85.4993 63.9762Z" fill="#5C934A"/>
<path d="M85.4993 63.9762L86.5011 63.5178L86.9436 64.0601C86.8287 64.0941 86.7125 64.1232 86.5951 64.1475C86.1751 64.234 85.8565 64.2144 85.4993 63.9762Z" fill="#7BAB5E"/>
<path d="M86.501 63.5178C88.4282 63.1601 88.8515 63.1597 90.7352 64.0238C92.4309 64.8018 93.1762 69.6683 92.0503 70.7235C91.7969 70.6316 91.887 70.6908 91.7189 70.4671C92.3988 69.2 90.0738 66.7444 89.1277 65.9685C89.5494 64.5741 87.945 64.2858 86.9436 64.0601L86.501 63.5178Z" fill="#9CB863"/>
<path d="M77.735 68.3665C76.914 68.0533 75.8226 67.9766 75.5204 67.4409C75.8231 66.364 78.3522 67.1818 78.9849 67.8748L79.5362 67.7582L80.5661 67.4105C81.5178 67.6785 82.2354 67.8732 83.0139 68.5388C85.9477 71.0473 85.1745 75.6911 81.9891 77.5552C81.5983 77.1927 80.9379 76.5497 80.5484 76.2517C78.7822 74.901 76.8854 73.8433 76.7634 71.318C76.7054 70.1176 77.1239 69.3313 77.735 68.3665Z" fill="#7BAB5E"/>
<path d="M77.735 68.3665C76.914 68.0533 75.8226 67.9766 75.5204 67.4409C75.8231 66.364 78.3522 67.1818 78.9849 67.8748L78.5241 68.5356C76.8028 73.734 79.3701 73.3115 82.205 76.2146C84.2983 73.4298 84.3687 69.2071 80.256 68.5202L79.9286 68.4665C79.5796 68.1821 79.6816 68.2583 79.5362 67.7582L80.5661 67.4105C81.5178 67.6785 82.2354 67.8732 83.0139 68.5388C85.9477 71.0473 85.1745 75.6911 81.9891 77.5552C81.5983 77.1927 80.9379 76.5497 80.5484 76.2517C78.7822 74.901 76.8854 73.8433 76.7634 71.318C76.7054 70.1176 77.1239 69.3313 77.735 68.3665Z" fill="#492A26"/>
<path d="M78.9848 67.8748L79.5361 67.7582C79.6815 68.2583 79.5796 68.1821 79.9286 68.4665L80.256 68.5202C80.6869 69.3091 82.1661 71.0092 81.5652 71.8129C80.7891 71.8309 79.479 69.1856 78.524 68.5356L78.9848 67.8748Z" fill="#5C934A"/>
<path d="M79.0487 30.6897C84.6035 30.8693 87.1979 36.7972 82.1925 39.1877C81.8724 39.1728 81.2909 39.122 81.0053 39.1899C80.3489 39.1833 80.1795 39.0777 79.6337 38.7472C76.4669 38.6751 76.5632 32.988 78.742 30.9543C78.8411 30.8625 78.9434 30.7742 79.0487 30.6897Z" fill="#492A26"/>
<path d="M79.8599 31.8197C81.1829 32.1448 82.649 32.9257 83.3809 34.1078C83.6971 34.6183 83.7992 35.1742 83.6583 35.76C83.255 37.4345 81.6038 38.0294 81.3698 38.8497C81.152 38.4532 80.8964 38.4197 80.4849 38.4246C80.3151 37.6921 80.4395 37.7761 80.5814 37.0738C81.0955 34.5269 81.0375 33.9586 79.8599 31.8197Z" fill="#7BAB5E"/>
<path d="M79.683 38.1578C79.4913 37.7225 79.0746 37.3751 78.7761 36.7255C78.2418 35.5622 78.046 34.9034 78.495 33.6307C78.6648 33.1498 79.1639 31.939 79.5982 31.7251L79.8599 31.8197C81.0375 33.9586 81.0955 34.5269 80.5814 37.0738C80.4396 37.7761 80.3151 37.6921 80.4849 38.4246C80.2848 38.4218 79.8884 38.2395 79.683 38.1578Z" fill="#D1D171"/>
<path d="M79.683 38.1578C79.8884 38.2395 80.2848 38.4218 80.4849 38.4246C80.8965 38.4197 81.1521 38.4532 81.3698 38.8497C81.2499 39.012 81.1943 39.1312 81.0053 39.1899C80.3489 39.1833 80.1795 39.0777 79.6337 38.7472L79.683 38.1578Z" fill="#9CB863"/>
<path d="M49.7036 51.6652C49.4111 51.4517 49.1745 51.3033 49.0092 50.9772C47.1679 47.3438 51.3274 43.094 55.0648 44.2328C55.801 44.4571 56.4294 44.9319 56.7786 45.6158C57.2231 46.0143 57.6142 46.3448 58.1929 46.5484L57.7504 46.973L56.9786 46.8945C56.2343 48.3185 56.0684 50.0925 54.3581 51.0219C53.7853 51.3331 52.474 52.0309 51.8336 51.9053C51.692 51.7373 51.5518 51.5682 51.4129 51.398C50.711 51.944 50.4665 52.2569 49.7036 51.6652Z" fill="#7BAB5E"/>
<path d="M55.959 46.8705C56.3211 46.6793 56.5809 46.7841 56.9786 46.8945C56.2343 48.3185 56.0684 50.0925 54.3581 51.0219C53.7853 51.3331 52.474 52.0309 51.8336 51.9053C51.692 51.7373 51.5518 51.5682 51.4129 51.398L51.5043 51.1386L51.1227 51.1484C50.6565 50.0391 53.7176 46.1527 55.959 46.8705Z" fill="#9CB863"/>
<path d="M55.959 46.8705C56.3211 46.6793 56.5809 46.7841 56.9786 46.8945C56.2343 48.3185 56.0684 50.0925 54.3581 51.0219C53.7853 51.3331 52.474 52.0309 51.8336 51.9053C51.692 51.7373 51.5518 51.5682 51.4129 51.398L51.5043 51.1386C51.8825 50.9266 52.6816 50.6162 53.1266 50.3918C54.8027 49.5463 55.2005 48.4281 55.959 46.8705Z" fill="#492A26"/>
<path d="M49.7036 51.6652C49.4111 51.4517 49.1745 51.3033 49.0092 50.9772C47.1679 47.3438 51.3274 43.094 55.0648 44.2328C55.801 44.4571 56.4294 44.9319 56.7786 45.6158C56.509 45.8205 56.4258 45.9214 56.0616 45.7914C54.4951 45.2317 53.0314 44.8592 51.5104 45.8568C50.6432 46.4185 50.0381 47.3052 49.8314 48.3176C49.6469 49.2112 49.8688 50.0979 50.0811 50.9631C50.1622 51.2937 49.9122 51.4495 49.7036 51.6652Z" fill="#492A26"/>
<path d="M39.7739 44.9555C38.6306 44.6823 37.5728 43.6855 37.2595 42.5473C36.9614 41.445 37.1122 40.2696 37.679 39.2784C38.6248 37.6517 40.538 36.5879 42.3995 36.5399C42.8964 36.5271 43.2745 36.404 43.726 36.6649C44.2089 37.1912 44.0196 37.5915 44.1405 38.1741C44.6199 40.4824 44.4503 44.5108 41.1898 44.6156C40.5733 45.0577 40.5125 45.1384 39.7739 44.9555Z" fill="#492A26"/>
<path d="M39.7739 44.9555L39.9626 44.4695C39.9156 44.0682 38.9113 43.0882 38.6164 42.6523C37.1291 40.4537 40.3844 37.1903 42.5887 37.6679C42.3311 38.1326 41.978 38.7006 41.7196 39.1338C41.2504 39.9207 40.466 43.8213 41.2365 44.442L41.1899 44.6156C40.5733 45.0577 40.5126 45.1384 39.7739 44.9555Z" fill="#7BAB5E"/>
<path d="M42.5887 37.6679L43.0294 37.6281C43.3753 37.9618 43.2542 41.2586 43.0385 41.8387C42.7529 42.6066 41.5169 43.6777 41.2365 44.442C40.466 43.8213 41.2504 39.9207 41.7196 39.1338C41.9779 38.7006 42.3311 38.1326 42.5887 37.6679Z" fill="#D1D171"/>
<path d="M48.1427 100.959C48.1445 100.937 48.1472 100.916 48.1482 100.895C48.1888 100.087 46.9702 96.9894 46.7244 95.9558C46.1957 93.733 44.4487 82.54 46.0273 81.1067C46.1066 81.0346 46.2591 81.0228 46.3635 80.9973C46.748 81.4633 46.52 84.8892 46.5778 85.9523C46.7763 89.6821 47.3427 93.3833 48.2689 97.0016C48.6381 98.4982 49.2255 99.8594 49.6687 101.324C49.7663 101.647 49.5529 102.044 49.3939 102.328C48.6463 102.02 48.5544 101.628 48.1427 100.959Z" fill="#492A26"/>
<path d="M54.3503 70.4528C55.3584 72.6169 53.7225 73.7947 52.0319 74.6544C51.9026 74.7202 51.3965 75.1675 51.204 75.3021C50.0346 75.5478 49.6766 74.4708 49.3435 73.604C48.3958 71.1381 50.8679 68.1669 53.3801 69.6827C53.9155 69.9491 53.9792 69.9941 54.3503 70.4528Z" fill="#492A26"/>
<path d="M50.6113 73.8039C50.3044 72.6624 49.966 71.5009 51.1833 70.566C51.491 70.3297 52.2864 70.2288 52.6703 70.3037C52.9096 70.729 52.8978 70.8159 53.4522 70.8276L53.4353 70.8975C52.0532 71.0407 51.3392 73.2836 50.6113 73.8039Z" fill="#7BAB5E"/>
<path d="M50.6113 73.8039C51.3392 73.2836 52.0532 71.0407 53.4353 70.8975C53.5315 72.6849 52.7714 73.3597 51.0072 73.9701C50.8613 74.0206 50.7245 73.8865 50.6113 73.8039Z" fill="#D1D171"/>
<path d="M53.3801 69.6827C53.9156 69.9491 53.9792 69.9941 54.3503 70.4528C53.9042 70.5535 53.8258 70.5642 53.4522 70.8276C52.8978 70.8159 52.9096 70.729 52.6703 70.3037C52.9202 70.1583 53.1673 69.8897 53.3801 69.6827Z" fill="#7BAB5E"/>
<path d="M59.237 63.039C59.5904 63.1829 59.8528 63.4055 59.8643 63.8492C59.9765 68.1727 60.5206 72.4856 60.5785 76.8091C60.5895 77.6336 60.6902 77.7222 60.1325 78.2827C60.0234 78.2471 59.9134 78.2044 59.8233 78.1313C59.3584 77.7546 59.17 72.7165 59.1064 71.8522C59.0215 70.696 58.6334 64.3056 58.78 63.7031C58.8377 63.4658 59.0792 63.2216 59.237 63.039Z" fill="#492A26"/>
<path d="M55.1842 23.5344C55.3875 23.5434 55.9415 23.6042 55.9187 23.8886C55.8199 25.1172 56.8645 29.925 55.5203 30.3501C54.888 30.2117 53.3249 28.293 52.7294 27.6879C52.2701 27.2429 51.7664 26.885 51.7027 26.2778C51.9923 25.9615 51.8454 26.0393 52.2488 25.9694C53.1231 26.202 54.3993 27.691 55.0837 28.3802C54.882 27.0532 54.6022 24.7201 55.1842 23.5344Z" fill="#492A26"/>
<path d="M72.0707 58.6687C71.5258 58.883 71.004 59.0208 70.4288 59.2832C69.8268 59.558 67.9075 60.7044 67.424 60.7616C67.0795 60.5043 67.0381 60.1648 67.1695 59.7741C67.5115 58.756 69.1644 54.7543 70.1437 54.6611C70.8661 55.5597 69.1831 58.0889 68.6112 58.9206C69.5303 58.4724 71.0828 57.517 72.0273 58.1424C72.033 58.2198 72.0577 58.6183 72.0707 58.6687Z" fill="#492A26"/>
<path d="M79.7491 40.0226C80.1664 40.0429 80.1811 40.0535 80.4039 40.2974C80.5815 41.0015 79.8942 41.9967 79.5384 42.6531C80.569 41.9637 82.245 40.9358 83.5049 41.0764L83.6075 41.3313C83.0211 42.1269 82.491 42.3049 81.6103 42.749C80.7129 43.2636 78.7788 44.878 77.8473 44.6409C77.1246 43.8692 79.1775 40.7534 79.7491 40.0226Z" fill="#492A26"/>
<path d="M58.1929 46.5484C58.7003 45.5456 57.3363 40.7972 58.3115 40.0447C58.6702 39.9863 58.5248 39.969 58.8619 40.1132C59.3022 40.8907 59.8503 47.5255 59.2157 48.0657C58.516 47.9951 58.4834 47.3245 57.7504 46.973L58.1929 46.5484Z" fill="#492A26"/>
<path d="M60.8667 78.4792C61.035 77.6853 61.6115 73.8601 62.6312 73.9525C62.7692 74.1228 63.0102 74.375 62.9761 74.5867C62.7866 75.7647 62.1792 77.2711 62.1 78.4426C61.9338 79.2718 61.8447 80.0189 61.9198 80.8699C61.86 81.2057 61.8676 81.3867 61.6269 81.6187C60.9615 81.8501 60.7531 81.5566 60.5175 80.9463C60.7155 80.1692 60.7481 79.291 60.8667 78.4792Z" fill="#492A26"/>
<path d="M62.5897 26.7986C62.9271 26.974 63.0345 27.2689 63.0439 27.6252C62.6337 28.3044 60.7878 31.6739 60.4736 31.9547C60.2758 31.914 60.1757 31.7994 60.0191 31.6674C59.4388 30.6001 61.67 27.3785 62.5897 26.7986Z" fill="#492A26"/>
<path d="M46.0327 50.7202C46.6834 50.8579 48.8455 52.5843 48.9394 53.3192C48.79 53.68 48.8451 53.5695 48.4877 53.8147C48.2781 53.686 48.0703 53.5543 47.8644 53.4197C47.2289 53.0021 45.6357 52.0102 45.4946 51.3304C45.6209 50.924 45.6206 51.0249 46.0327 50.7202Z" fill="#492A26"/>
</svg>
