<svg width="114" height="114" viewBox="0 0 114 114" fill="none" xmlns="http://www.w3.org/2000/svg">
<path d="M60.7675 25.0114C61.4631 25.2566 61.7603 25.3249 61.8116 26.1368C62.0269 26.1552 62.3326 26.1682 62.5329 26.2192C66.0282 26.3103 68.4233 28.9164 70.0618 28.8768L70.1587 28.9759C70.2843 29.1291 73.3387 33.5294 73.2953 33.4093C74.1996 34.3915 74.5848 35.4698 75.2084 36.1929L75.5243 36.676C75.6167 36.8576 75.7862 37.2295 75.9157 37.3614C76.3317 37.5856 76.2704 37.4742 76.4491 37.8433C76.4051 38.0373 76.3681 38.2286 76.2983 38.4148L76.5849 39.1187C77.0457 39.1543 77.4029 39.1592 77.7157 39.5608C79.0345 41.254 78.9039 44.9045 78.8014 46.9227C78.7586 47.7637 78.4791 49.2783 78.1233 50.0135C78.0888 50.0847 78.0965 50.0871 78.0802 50.1736L77.9798 50.1628L77.8691 49.9775L77.712 50.1028C77.784 50.6478 77.8942 51.0643 77.6069 51.5505C77.3887 51.8808 77.3171 51.9614 77.2377 52.3539C77.4438 52.5088 77.747 52.6794 77.7805 52.9343C78.1384 55.6624 75.2728 58.3631 73.8968 60.0155C73.2724 60.4996 72.9435 60.6002 72.1323 60.5208C71.7759 60.5598 70.8847 61.043 70.6697 61.3198L70.5228 61.1765C69.7238 61.2846 68.3223 62.3239 67.3438 62.402C66.5852 62.6996 66.1214 62.8884 65.3283 63.0706L65.0349 63.0645L64.9703 63.282C63.5767 63.6442 62.6259 63.793 61.1269 64.2138C60.5561 63.9199 60.4978 63.8996 59.8404 63.8591L58.7515 64.0794C55.8449 64.5986 53.3381 64.2226 50.4384 63.8452C50.0158 63.7661 49.5489 63.6323 49.1517 63.7691C48.9555 63.9229 48.9151 63.9426 48.7772 64.1456C48.5345 64.1161 47.7919 63.6347 47.4768 63.4707L47.0804 63.7297C47.0461 63.4364 47.0646 63.3507 46.8803 63.1413C46.2284 62.8581 44.6419 62.2132 43.9858 62.4556C43.8515 62.4339 43.6384 62.3178 43.5042 62.2537L43.3219 62.4276C42.9701 62.0789 42.4132 61.8222 41.9665 61.5847C40.2872 62.8949 37.6877 60.3213 38.2188 59.1186C38.606 58.9072 38.5039 58.9769 39.0492 59.1087C36.0549 54.9899 34.451 50.9551 34.021 45.8523C33.9262 45.4868 33.9852 44.7319 33.9997 44.3254C33.9808 43.7512 33.9948 43.6512 34.1565 43.1021C34.1829 42.3739 34.2042 42.1693 34.3713 41.4488C34.2761 40.3697 35.7029 36.914 36.193 35.7609C36.6621 34.7287 37.1454 33.8553 37.6902 32.8667C38.1716 32.0108 38.6412 31.5177 39.3667 30.8843L39.3948 30.6051L40.0131 30.1568C40.4924 29.998 40.8257 29.5999 41.1718 29.241C41.6602 28.9649 42.4607 28.5445 42.8779 28.211C42.5865 28.118 42.458 28.1024 42.2736 27.8484C41.9992 25.993 48.0982 25.113 49.4514 25.4326C49.8545 25.5278 49.814 26.0508 50.5513 26.265L50.6808 26.3101L51.4449 26.5602C51.6941 26.3525 51.6779 26.2454 51.6872 25.9647C52.2066 25.8001 52.5657 25.6931 53.0756 25.9256L53.2565 26.1258L53.1791 26.3857L53.713 26.9993C54.1571 26.7506 55.1455 26.4166 55.6665 26.2265C55.9955 26.4206 56.1969 26.537 56.5467 26.6905C57.5357 26.8154 57.7926 26.9604 58.6669 27.4659C58.6021 27.1687 58.6079 27.0943 58.6219 26.7889C58.7994 26.4171 58.9329 26.3687 59.2839 26.1541L59.3043 25.6361C59.6088 25.262 60.2276 25.3362 60.7675 25.0114Z" fill="#7AA863"/>
<path d="M60.7676 25.0114C61.4632 25.2566 61.7603 25.3249 61.8116 26.1368C62.0269 26.1552 62.3326 26.1682 62.5329 26.2192C66.0283 26.3103 68.4233 28.9164 70.0618 28.8768L70.1588 28.9759C70.2844 29.1291 73.3388 33.5294 73.2953 33.4093C74.1997 34.3915 74.5849 35.4698 75.2084 36.1929L75.5243 36.676C75.6167 36.8576 75.7862 37.2295 75.9158 37.3614C76.3317 37.5856 76.2705 37.4742 76.4491 37.8433C76.4052 38.0373 76.3681 38.2286 76.2983 38.4148L76.585 39.1187C77.0458 39.1543 77.4029 39.1592 77.7157 39.5608C79.0345 41.254 78.9039 44.9045 78.8014 46.9227C78.7587 47.7637 78.4791 49.2783 78.1233 50.0135C78.0888 50.0847 78.0966 50.0871 78.0802 50.1736L77.9798 50.1628L77.8691 49.9775L77.7121 50.1028C77.7841 50.6478 77.8942 51.0643 77.607 51.5505C77.3888 51.8808 77.3172 51.9614 77.2377 52.3539C77.4439 52.5088 77.747 52.6794 77.7805 52.9343C78.1384 55.6624 75.2729 58.3631 73.8968 60.0155C73.2724 60.4996 72.9435 60.6002 72.1323 60.5208C71.7759 60.5598 70.8848 61.043 70.6698 61.3198L70.5228 61.1765C69.7238 61.2846 68.3223 62.3239 67.3438 62.402C66.5853 62.6996 66.1215 62.8884 65.3284 63.0706L65.0349 63.0645L64.9703 63.282C63.5767 63.6442 62.626 63.793 61.1269 64.2138C60.5562 63.9199 60.4978 63.8996 59.8404 63.8591L58.7515 64.0794L58.6646 64.0084C58.5975 63.6156 59.5785 62.49 59.8617 61.8058C60.7177 59.7372 61.3848 57.5173 61.5632 55.2853C61.3063 55.2258 61.3005 55.2139 61.104 55.0275L61.1495 54.8583C61.46 54.6643 61.6745 54.5478 62.0028 54.3851L62.795 54.0544C62.8885 53.867 62.9654 53.6128 63.0359 53.4099L63.2416 53.3204L63.6286 52.7751C63.7533 52.6206 63.778 52.6565 64.0111 52.5851C63.5215 51.7059 64.2146 44.81 64.2878 43.2506C64.404 42.4965 64.063 37.5741 63.8351 36.8373C63.6834 35.7379 63.4159 34.6577 63.0369 33.6146C62.8441 33.2739 62.8353 33.3444 62.453 33.1156C62.3795 33.342 62.2523 33.8326 62.0287 33.9069C61.7812 33.3447 62.0457 32.6825 61.7623 32.0643C61.7851 31.7406 61.8004 31.679 61.644 31.3997L61.7447 31.2038C61.9081 31.1509 62.0159 31.0754 62.1617 30.9873L62.1929 30.7086C61.5969 30.1517 60.7632 29.2696 60.0488 28.9632C59.892 28.6201 58.9901 27.6531 58.6669 27.4659C58.6021 27.1687 58.6079 27.0943 58.622 26.7889C58.7994 26.4171 58.9329 26.3687 59.2839 26.1541L59.3043 25.6361C59.6089 25.262 60.2276 25.3362 60.7676 25.0114Z" fill="#7AA863"/>
<path d="M75.1099 39.0885C75.3533 38.8456 75.9752 38.3331 76.2983 38.4148L76.585 39.1187C77.0458 39.1543 77.4029 39.1592 77.7157 39.5608C79.0345 41.254 78.904 44.9045 78.8014 46.9227C78.7587 47.7637 78.4791 49.2783 78.1233 50.0135C78.0888 50.0847 78.0966 50.0871 78.0802 50.1736L77.9798 50.1628L77.8692 49.9775L77.7121 50.1028C77.7841 50.6478 77.8942 51.0643 77.607 51.5505C77.3888 51.8808 77.3172 51.9614 77.2377 52.3539C77.4439 52.5088 77.747 52.6794 77.7805 52.9343C78.1385 55.6624 75.2729 58.3631 73.8969 60.0155C73.2724 60.4996 72.9436 60.6002 72.1323 60.5207C72.1313 60.1488 72.113 60.0149 72.2628 59.6617C72.2179 58.9156 73.8315 56.5769 74.2564 55.735C76.2766 51.7321 77.52 43.185 75.1099 39.0885Z" fill="#BECF6D"/>
<path d="M76.5849 39.1187C77.0457 39.1543 77.4029 39.1592 77.7157 39.5608C79.0345 41.254 78.9039 44.9045 78.8014 46.9227C78.7586 47.7637 78.4791 49.2783 78.1233 50.0135C78.0888 50.0847 78.0966 50.0871 78.0802 50.1736L77.9798 50.1628L77.8691 49.9775L77.712 50.1028C77.4087 50.0604 77.3703 50.0727 77.1509 49.8797C77.0589 49.5605 77.1065 48.9498 77.1952 48.6564C77.9909 46.0256 77.9299 43.3907 76.9704 40.8061C76.7847 40.306 76.5251 39.7014 76.5849 39.1187Z" fill="#492C28"/>
<path d="M77.2377 52.3539C77.4439 52.5088 77.747 52.6794 77.7805 52.9343C78.1385 55.6624 75.2729 58.3631 73.8969 60.0155C73.2724 60.4996 72.9436 60.6002 72.1323 60.5208C72.1313 60.1488 72.113 60.0149 72.2628 59.6617C74.0237 58.3525 75.3003 56.9266 76.0947 54.8621C76.3685 54.1508 76.7427 52.8318 77.2377 52.3539Z" fill="#492C28"/>
<path d="M65.3284 63.0706C65.7391 62.1278 66.5615 61.2092 67.0327 60.2073C69.1113 55.786 70.336 49.3558 69.677 44.4695C69.5254 43.41 69.3174 42.3594 69.0536 41.3222C68.783 40.2705 68.1412 38.5181 68.6202 37.5171C69.2436 37.0886 69.8248 38.1585 70.1648 38.6226L70.3366 38.9925C70.5717 40.2892 71.005 41.49 71.2371 42.7266C71.6607 44.9836 71.6427 48.1641 71.4298 50.4933C70.8977 52.7942 70.4442 54.7453 69.5978 56.9711C69.1011 58.2772 67.8537 59.858 67.9672 61.1282C67.7793 61.4679 67.4168 62.054 67.3439 62.402C66.5853 62.6996 66.1215 62.8884 65.3284 63.0706Z" fill="#BECF6D"/>
<path d="M60.7676 25.0114C61.4632 25.2566 61.7603 25.3249 61.8116 26.1368C62.0269 26.1552 62.3326 26.1682 62.5329 26.2192C61.5353 27.3997 61.9834 27.955 63.4046 28.1952C64.1769 28.7584 65.395 29.6332 65.9599 30.3872C65.6081 30.5954 65.5 30.6047 65.5365 31.0577L65.4966 31.0495L65.3847 31.4081C65.1393 31.5262 65.097 31.5226 64.823 31.5197C64.3685 31.5974 63.5009 31.6075 63.2408 31.7568C63.0382 32.0352 62.9811 32.0986 62.8826 32.4378C62.5168 32.7236 62.6251 32.6304 62.453 33.1156C62.3795 33.342 62.2523 33.8326 62.0287 33.9069C61.7812 33.3447 62.0457 32.6825 61.7623 32.0643C61.7851 31.7406 61.8004 31.679 61.644 31.3997L61.7447 31.2038C61.9081 31.1509 62.0159 31.0754 62.1617 30.9873L62.1929 30.7086C61.5969 30.1517 60.7632 29.2696 60.0488 28.9632C59.892 28.6201 58.9901 27.6531 58.6669 27.4659C58.6021 27.1687 58.6079 27.0943 58.622 26.7889C58.7994 26.4171 58.9329 26.3687 59.2839 26.1541L59.3043 25.6361C59.6089 25.262 60.2276 25.3362 60.7676 25.0114Z" fill="#A3C069"/>
<path d="M62.1929 30.7086C62.4031 30.236 62.3173 29.1602 62.7457 28.7661C63.0236 28.9286 62.9598 28.9818 63.0764 29.3737C63.0492 29.8875 63.0353 30.2625 63.0573 30.7753L63.2305 30.9468L63.123 31.2319C63.4152 31.6861 64.2985 31.4911 64.823 31.5197C64.3685 31.5974 63.5009 31.6075 63.2408 31.7568C63.0382 32.0352 62.9811 32.0986 62.8826 32.4378C62.5167 32.7236 62.6251 32.6304 62.4529 33.1156C62.3795 33.342 62.2522 33.8326 62.0287 33.9069C61.7812 33.3447 62.0457 32.6825 61.7623 32.0643C61.7851 31.7406 61.8003 31.679 61.6439 31.3997L61.7447 31.2038C61.9081 31.1509 62.0159 31.0754 62.1617 30.9873L62.1929 30.7086Z" fill="#513A31"/>
<path d="M60.7675 25.0114C61.4631 25.2566 61.7603 25.3249 61.8116 26.1368C61.0191 26.1963 59.8731 26.5327 59.2839 26.1541L59.3042 25.6361C59.6088 25.262 60.2276 25.3362 60.7675 25.0114Z" fill="#492C28"/>
<path d="M63.2305 30.9468C63.888 30.8648 65.0002 30.5925 65.4966 31.0495L65.3847 31.4081C65.1393 31.5262 65.097 31.5226 64.823 31.5197C64.2986 31.4911 63.4152 31.6861 63.123 31.2319L63.2305 30.9468Z" fill="#492C28"/>
<path d="M63.6286 52.7751C63.7533 52.6206 63.778 52.6565 64.0111 52.5851L64.1065 53.0814C64.0895 53.635 64.2728 53.6209 64.351 53.9802L64.3441 54.1019C64.4079 54.3898 64.5224 54.7012 64.4186 54.9542C63.697 55.2999 64.054 56.2979 63.0911 56.8034C63.0696 57.0635 63.0204 57.8878 62.9564 58.0911C62.3502 59.538 61.8382 60.9927 61.267 62.451C61.0183 62.9142 60.796 63.4273 60.3846 63.7434L59.8404 63.8591L58.7515 64.0794L58.6646 64.0084C58.5975 63.6156 59.5785 62.49 59.8617 61.8058C60.7177 59.7372 61.3848 57.5173 61.5632 55.2853C61.3063 55.2258 61.3005 55.2139 61.104 55.0275L61.1496 54.8583C61.46 54.6643 61.6745 54.5478 62.0028 54.3851L62.795 54.0544C62.8885 53.867 62.9654 53.6128 63.0359 53.4099L63.2416 53.3204L63.6286 52.7751Z" fill="#D7D975"/>
<path d="M63.6286 52.7751C63.7533 52.6206 63.778 52.6565 64.0111 52.5851L64.1065 53.0814C64.0895 53.635 64.2728 53.6209 64.351 53.9802L64.3441 54.1019L63.7147 54.4888C63.5804 54.4781 63.2534 54.4014 63.1051 54.3711L62.795 54.0544C62.8885 53.867 62.9654 53.6128 63.0359 53.4099L63.2416 53.3204L63.6286 52.7751Z" fill="#BECF6D"/>
<path d="M63.7147 54.4888L64.3441 54.1019C64.4079 54.3898 64.5224 54.7012 64.4186 54.9542C63.697 55.2999 64.054 56.2979 63.0911 56.8034C63.092 56.0714 63.4664 55.1909 63.7147 54.4888Z" fill="#492C28"/>
<path d="M62.795 54.0544L63.1051 54.3711C62.4516 54.8908 62.1429 54.9139 61.5632 55.2853C61.3063 55.2258 61.3005 55.2139 61.104 55.0275L61.1495 54.8583C61.46 54.6643 61.6744 54.5478 62.0028 54.3851L62.795 54.0544Z" fill="#311518"/>
<path d="M71.4298 50.4933C71.7677 50.6811 72.1077 50.8216 72.3025 51.1477C72.4796 52.8408 70.1369 59.0347 68.9859 60.4282C68.7173 60.7509 68.3647 60.993 67.9672 61.1282C67.8537 59.858 69.101 58.2772 69.5978 56.9711C70.4442 54.7453 70.8976 52.7942 71.4298 50.4933Z" fill="#609142"/>
<path d="M64.2878 43.2506C64.6163 43.2292 64.9921 43.151 65.2414 43.3193C65.9939 44.4142 64.5982 49.3551 65.0443 50.8673C65.1638 51.0038 65.2617 51.1155 65.338 51.2025C65.1034 51.5687 64.2365 52.8145 64.1066 53.0814L64.0111 52.5851C63.5215 51.7059 64.2146 44.81 64.2878 43.2506Z" fill="#609142"/>
<path d="M62.9564 58.0911C63.8542 58.4928 63.6407 58.7226 63.7977 59.6458C63.3619 59.8936 63.1511 59.9667 62.9642 60.4205C62.9644 60.6133 62.9281 60.5932 63.0065 60.7126C63.3518 60.7151 63.2586 60.7076 63.5893 60.4941L63.9191 60.8369C63.4998 60.9899 63.6071 60.8917 63.3686 61.185L63.4555 61.3442L63.7726 61.3818L63.3579 61.6082C63.0916 61.3883 62.6975 61.2989 62.4801 61.6277C62.3534 61.9574 62.2714 62.2975 61.9716 62.4737C61.6513 62.5172 61.5743 62.5401 61.267 62.451C61.8382 60.9927 62.3502 59.5379 62.9564 58.0911Z" fill="#609142"/>
<path d="M71.1672 37.5756C71.0961 37.9453 71.0245 37.9784 71.1603 38.2773C71.9195 38.1779 72.9413 36.8143 73.6405 37.2813C73.4656 37.8352 72.1155 38.6775 71.6067 38.9597C72.2473 39.4131 72.8112 39.7884 73.3749 40.3383C72.6092 40.1994 71.5252 40.0163 70.9096 39.506L70.8263 39.312C70.9633 39.1441 71.0519 39.0481 71.2049 38.8949C70.8397 38.7111 70.7337 38.833 70.3366 38.9925L70.1648 38.6226L70.5965 37.1967L71.1672 37.5756Z" fill="#492C28"/>
<path d="M65.1486 53.6425C65.8604 53.6824 66.4129 53.7079 67.0457 54.0451L67.1626 54.2245C66.5892 54.8176 65.3641 54.4447 64.6345 54.3331C65.0243 54.8371 65.6272 55.4338 65.5088 56.1009C65.0584 56.2018 64.5818 55.3115 64.4186 54.9542C64.5224 54.7012 64.4079 54.3898 64.3441 54.1019L64.351 53.9802C64.6851 53.6751 64.6505 53.7579 65.1486 53.6425Z" fill="#492C28"/>
<path d="M74.7009 37.4354C74.7584 36.5853 73.4229 34.7644 73.2953 33.4093C74.1997 34.3915 74.5849 35.4698 75.2084 36.1929L75.5244 36.6761C75.6168 36.8576 75.7862 37.2295 75.9158 37.3614C75.5644 37.4395 75.0718 37.4294 74.7009 37.4354Z" fill="#BECF6D"/>
<path d="M65.3379 51.2025C65.6696 50.803 65.5589 50.8169 65.9885 50.6806C66.2958 51.4078 64.8347 53.0594 64.8823 53.4905L65.1485 53.6425C64.6505 53.7579 64.6851 53.6751 64.351 53.9802C64.2727 53.6209 64.0895 53.635 64.1065 53.0814C64.2364 52.8145 65.1034 51.5688 65.3379 51.2025Z" fill="#492C28"/>
<path d="M74.7008 37.4354C75.0718 37.4294 75.5644 37.4395 75.9158 37.3614C76.3317 37.5856 76.2704 37.4742 76.4491 37.8433C76.4052 38.0373 76.3681 38.2286 76.2983 38.4148C75.9752 38.3331 75.3532 38.8456 75.1099 39.0885L74.7432 39.1809C74.438 38.9238 74.8826 38.3059 74.7057 37.8607C74.6367 37.687 74.6552 37.6063 74.7008 37.4354Z" fill="#424729"/>
<path d="M62.4801 61.6277C62.6975 61.2989 63.0916 61.3883 63.3579 61.6082C63.9172 62.0618 64.3622 62.2856 64.461 62.9927C63.8254 62.8954 62.9635 62.0721 62.4801 61.6277Z" fill="#492C28"/>
<path d="M63.7977 59.6458C64.1193 59.5378 64.367 59.4096 64.6834 59.4887C64.5318 59.8116 63.916 60.2162 63.5893 60.4941C63.2587 60.7076 63.3518 60.7151 63.0065 60.7126C62.9281 60.5932 62.9644 60.6133 62.9642 60.4206C63.1511 59.9667 63.362 59.8936 63.7977 59.6458Z" fill="#492C28"/>
<path d="M70.5965 37.1967C70.7271 36.6735 70.8332 36.203 71.1459 35.7623L71.2848 35.7851C71.4074 36.4278 71.5084 36.9912 71.1672 37.5756L70.5965 37.1967Z" fill="#584937"/>
<path d="M62.8826 32.4378C62.9811 32.0986 63.0382 32.0352 63.2408 31.7568C63.8327 32.4174 64.0153 32.7209 64.4139 33.5451C63.745 33.1999 63.3868 33.0309 62.8826 32.4378Z" fill="#492C28"/>
<path d="M65.5365 31.0577C65.5 30.6047 65.6081 30.5954 65.9599 30.3872C66.1982 30.6976 66.5273 31.0322 66.5101 31.4033L66.367 31.5929C65.9633 31.6135 66.092 31.6166 65.7062 31.4205C65.6209 31.2829 65.5679 31.2193 65.5365 31.0577Z" fill="#BECF6D"/>
<path d="M63.9192 60.8369C64.3346 60.9591 64.7611 61.0183 64.9935 61.3648C64.6709 61.6452 64.1665 61.4668 63.7727 61.3818L63.4555 61.3442L63.3687 61.185C63.6071 60.8917 63.4998 60.9899 63.9192 60.8369Z" fill="#513A31"/>
<path d="M42.8779 28.211C42.5865 28.118 42.458 28.1024 42.2736 27.8484C41.9992 25.993 48.0982 25.113 49.4514 25.4326C49.8545 25.5278 49.814 26.0508 50.5513 26.265L50.6808 26.3101C50.3078 26.5047 50.4121 26.3851 50.2675 26.7449C50.3852 27.3756 50.4009 27.4798 50.0267 28.0103C49.2286 29.1421 48.1642 30.0695 47.5166 31.3104C47.617 31.7395 47.7253 32.2676 47.8559 32.6799L48.1464 33.5716C47.9995 33.8521 47.8936 34.0807 47.6962 34.3314L47.5709 34.4223C47.4157 34.4887 47.1458 34.6154 46.9902 34.6483L47.1312 34.8228C46.8873 35.4926 46.2894 36.1363 46.004 36.8696C46.4174 37.2229 46.5759 36.9911 46.9911 36.692C47.0959 37.8656 45.6366 43.8988 46.4318 45.0751C46.0159 45.7019 45.9449 45.5943 45.864 46.3034C46.181 46.9984 45.9607 46.9385 46.6733 47.4534C46.4643 47.8438 46.4816 48.5379 46.4585 49.0044C46.6632 49.6448 48.0637 56.0125 47.9507 56.3192L47.6503 56.6132L47.6757 57.2978L47.4805 57.8953C47.5823 58.2474 47.6071 58.3691 47.3793 58.7152L47.257 58.7274C47.4387 59.077 47.4154 58.9228 47.3473 59.3076L47.4369 59.3576C47.7729 59.4145 47.9949 59.3825 48.1097 59.7754C47.8605 60.4123 47.5006 61.7752 47.1466 62.1583L46.8191 62.2518C47.0064 62.6629 47.191 63.1282 47.4768 63.4707L47.0804 63.7297C47.0461 63.4364 47.0646 63.3507 46.8803 63.1413C46.2284 62.8581 44.6419 62.2132 43.9858 62.4556C43.8515 62.4339 43.6384 62.3178 43.5042 62.2537L43.3219 62.4276C42.9701 62.0789 42.4132 61.8222 41.9665 61.5847C40.2872 62.8949 37.6877 60.3213 38.2188 59.1186C38.606 58.9072 38.5039 58.9769 39.0492 59.1087C36.0549 54.9899 34.451 50.9551 34.021 45.8523C33.9262 45.4868 33.9852 44.7319 33.9997 44.3254C33.9808 43.7512 33.9948 43.6512 34.1565 43.1021C34.1829 42.3739 34.2042 42.1693 34.3713 41.4488C34.2761 40.3697 35.7029 36.914 36.193 35.7609C36.6621 34.7287 37.1454 33.8553 37.6902 32.8667C38.1716 32.0108 38.6412 31.5177 39.3667 30.8843L39.3948 30.6051L40.0131 30.1568C40.4924 29.998 40.8257 29.5999 41.1718 29.241C41.6602 28.9649 42.4607 28.5445 42.8779 28.211Z" fill="#7AA863"/>
<path d="M45.364 46.1629L45.8641 46.3034C46.181 46.9984 45.9607 46.9385 46.6733 47.4534C46.4643 47.8438 46.4816 48.5379 46.4585 49.0044C46.6632 49.6448 48.0637 56.0125 47.9507 56.3192L47.6503 56.6132L47.6757 57.2978L47.4805 57.8953C47.5823 58.2474 47.6071 58.3691 47.3793 58.7152L47.257 58.7274C46.6035 58.9251 45.8833 59.1094 45.2879 59.4322C44.3884 58.951 41.7382 48.9659 42.4635 48.0166C42.9701 47.9292 44.5148 47.4111 45.0811 47.2356C45.1993 47.1528 45.2833 47.0687 45.3896 46.972L45.3333 46.7546L45.364 46.1629Z" fill="#BECF6D"/>
<path d="M45.6006 49.4619C46.0552 49.1026 45.9556 49.0739 46.4585 49.0044C46.6632 49.6448 48.0637 56.0125 47.9507 56.3192L47.6503 56.6132C47.5411 56.5931 47.1841 56.6191 47.0519 56.625C46.9279 55.141 45.5407 51.2093 45.6006 49.4619Z" fill="#609142"/>
<path d="M45.2694 49.3028L45.6006 49.4619C45.5407 51.2093 46.9279 55.141 47.0519 56.625L46.5852 56.7572C45.4052 55.7413 44.8855 51.4701 44.7188 49.8666C44.8822 49.7208 45.1102 49.4679 45.2694 49.3028Z" fill="#7AA863"/>
<path d="M45.364 46.1629L45.8641 46.3034C46.181 46.9984 45.9607 46.9385 46.6733 47.4534C46.4643 47.8438 46.4816 48.5379 46.4585 49.0044C45.9556 49.0739 46.0552 49.1026 45.6007 49.4619L45.2695 49.3028C45.1103 49.4679 44.8823 49.7208 44.7188 49.8666C44.5532 49.1533 44.8435 48.0292 45.1991 47.3804L45.0811 47.2356C45.1993 47.1528 45.2833 47.0687 45.3896 46.972L45.3334 46.7546L45.364 46.1629Z" fill="#7AA863"/>
<path d="M45.1991 47.3804L45.4927 47.2309C46.1031 47.5543 45.481 48.787 45.2695 49.3028C45.1103 49.4679 44.8823 49.7208 44.7188 49.8667C44.5532 49.1533 44.8435 48.0292 45.1991 47.3804Z" fill="#492C28"/>
<path d="M47.0519 56.625C47.1841 56.6191 47.5411 56.5931 47.6503 56.6132L47.6757 57.2978L47.4805 57.8953C47.1024 57.628 46.8143 57.4455 46.4141 57.2116L46.5869 57.0414L46.5852 56.7572L47.0519 56.625Z" fill="#7AA863"/>
<path d="M46.4141 57.2116C46.8144 57.4455 47.1024 57.628 47.4806 57.8953C47.5823 58.2474 47.6071 58.3691 47.3794 58.7152C46.9422 58.3521 46.039 57.7842 46.4141 57.2116Z" fill="#492C28"/>
<path d="M46.2134 34.5841L46.9902 34.6483L47.1312 34.8228C46.8873 35.4926 46.2894 36.1363 46.004 36.8696C46.4173 37.2229 46.5759 36.9911 46.9911 36.692C47.0959 37.8656 45.6366 43.8988 46.4318 45.0751C46.0159 45.7019 45.9449 45.5943 45.864 46.3034L45.364 46.1629L45.3333 46.7546L45.3896 46.972C45.2832 47.0687 45.1993 47.1528 45.0811 47.2356C44.5147 47.4111 42.9701 47.9292 42.4635 48.0166L42.2995 47.5913C42.2251 47.3918 42.1974 46.7595 42.1797 46.516C42.315 43.6579 42.6424 42.5169 43.3912 39.789C43.8518 38.2325 44.4327 36.2385 45.3598 34.882C45.5735 34.5694 45.8348 34.6224 46.2134 34.5841Z" fill="#BECF6D"/>
<path d="M46.004 36.8696C46.4174 37.2229 46.5759 36.9911 46.9912 36.692C47.0959 37.8656 45.6366 43.8988 46.4318 45.0751C46.0159 45.7019 45.9449 45.5943 45.8641 46.3034L45.364 46.1629C45.3991 45.6805 44.9779 45.1298 44.5161 44.9964C44.7294 44.7688 44.6916 44.574 44.7155 44.2871C44.9247 41.7862 45.605 39.3407 46.004 36.8696Z" fill="#609142"/>
<path d="M42.2996 47.5913C42.9045 47.158 44.2341 46.5712 44.9965 46.5952L45.3334 46.7546L45.3896 46.972C45.2833 47.0688 45.1993 47.1528 45.0811 47.2356C44.5148 47.4111 42.9701 47.9292 42.4635 48.0166L42.2996 47.5913Z" fill="#492C28"/>
<path d="M44.9965 46.5952C44.6357 46.1236 43.8738 45.0024 43.7902 44.4506L43.9489 44.4483C44.1243 44.73 44.1818 44.7712 44.4451 44.949L44.5161 44.9964C44.9779 45.1298 45.3991 45.6805 45.364 46.1629L45.3334 46.7546L44.9965 46.5952Z" fill="#492C28"/>
<path d="M34.1565 43.1021C34.3904 43.6325 35.1866 43.9883 35.1793 44.1282C34.9621 48.2919 36.248 52.2895 38.1953 55.951C38.9328 57.3374 40.3845 59.0258 41.5855 60.0958C42.2195 60.6876 43.3622 61.415 43.5042 62.2537L43.3219 62.4276C42.9701 62.0789 42.4132 61.8222 41.9665 61.5847C40.2872 62.8949 37.6877 60.3213 38.2188 59.1186C38.606 58.9072 38.5039 58.9768 39.0492 59.1087C36.0549 54.9899 34.451 50.9551 34.021 45.8523C33.9262 45.4868 33.9852 44.7319 33.9997 44.3254C33.9808 43.7512 33.9948 43.6512 34.1565 43.1021Z" fill="#BECF6D"/>
<path d="M41.9665 61.5847C40.2872 62.8949 37.6877 60.3213 38.2188 59.1186C38.606 58.9072 38.504 58.9768 39.0492 59.1087C39.741 59.6464 40.3263 60.2925 40.9875 60.8722C41.3059 61.1513 41.6991 61.3372 41.9665 61.5847Z" fill="#492C28"/>
<path d="M42.1798 46.516C41.6966 49.717 42.2466 53.1382 43.2801 56.1818C43.5824 57.0718 44.7566 59.0647 44.3422 59.8606C44.2495 59.899 44.0734 60.0091 44.0065 59.9253C40.6314 55.7019 39.9389 44.0725 42.3718 39.7076C42.681 39.5659 43.0332 39.7061 43.3912 39.789C42.6424 42.5169 42.315 43.6579 42.1798 46.516Z" fill="#609142"/>
<path d="M42.8779 28.211C42.5866 28.118 42.458 28.1024 42.2736 27.8484C41.9992 25.993 48.0982 25.113 49.4514 25.4326C49.8545 25.5278 49.814 26.0508 50.5513 26.265C49.4349 26.433 46.6503 26.5779 45.8274 26.8712C45.2474 27.0453 43.1239 27.6875 42.8779 28.211Z" fill="#492C28"/>
<path d="M37.6903 32.8667C38.1717 32.0108 38.6412 31.5177 39.3668 30.8843L39.7781 31.3083C38.3633 33.1279 37.3641 34.3287 36.4818 36.4849C36.0465 37.8058 35.4976 39.2403 35.4371 40.6211C35.1066 40.9381 34.7843 41.266 34.4093 41.5284L34.3714 41.4488C34.2762 40.3697 35.703 36.914 36.193 35.7609C36.6622 34.7287 37.1454 33.8553 37.6903 32.8667Z" fill="#D7D975"/>
<path d="M47.257 58.7274C47.4387 59.0771 47.4154 58.9228 47.3473 59.3076L47.4369 59.3576C47.7729 59.4145 47.9949 59.3825 48.1097 59.7754C47.8605 60.4123 47.5006 61.7752 47.1466 62.1583L46.8192 62.2518C46.1615 61.4546 45.7877 60.9693 45.2051 60.1033C44.856 60.0542 44.9497 60.1211 44.7792 59.8964C44.9631 59.5655 44.9326 59.6511 45.2879 59.4322C45.8833 59.1094 46.6035 58.9251 47.257 58.7274Z" fill="#BECF6D"/>
<path d="M47.4369 59.3576C47.7729 59.4145 47.9949 59.3825 48.1097 59.7754C47.8605 60.4123 47.5006 61.7752 47.1466 62.1583L46.8973 62.0129C46.6524 61.4522 47.2252 59.9953 47.4369 59.3576Z" fill="#492C28"/>
<path d="M47.257 58.7274C47.4387 59.0771 47.4154 58.9228 47.3473 59.3076C46.9658 59.4381 45.5532 59.9416 45.2051 60.1033C44.856 60.0542 44.9497 60.1211 44.7792 59.8964C44.9631 59.5655 44.9326 59.6511 45.2879 59.4322C45.8833 59.1094 46.6035 58.9251 47.257 58.7274Z" fill="#492C28"/>
<path d="M42.8779 28.211C43.124 27.6875 45.2474 27.0453 45.8275 26.8712C45.161 27.6481 43.5232 28.1674 42.6329 28.7318C42.1315 29.0495 41.0162 30.1759 40.6033 30.3942C40.4854 30.3311 40.1543 30.2122 40.0131 30.1568C40.4924 29.998 40.8257 29.5999 41.1718 29.241C41.6602 28.9649 42.4608 28.5445 42.8779 28.211Z" fill="#BECF6D"/>
<path d="M35.4371 40.6211C35.8016 40.4133 36.2789 40.0854 36.6771 40.08L36.8233 40.1979C36.6881 40.8736 35.3905 42.0175 34.7243 42.052L34.4816 41.9035L34.4093 41.5284C34.7843 41.266 35.1066 40.9381 35.4371 40.6211Z" fill="#492C28"/>
<path d="M47.0887 32.3514C46.9829 31.9503 46.8346 31.6389 47.0904 31.2989L47.5166 31.3104C47.6171 31.7395 47.7254 32.2676 47.856 32.6799L48.1464 33.5715C47.9996 33.8521 47.8936 34.0807 47.6962 34.3314L47.571 34.4223C47.2521 34.3861 47.2194 34.3612 46.9725 34.1538L47.0701 34.0017L47.597 33.9104C47.5475 33.6348 47.1959 32.667 47.0887 32.3514Z" fill="#311518"/>
<path d="M45.7417 33.8389C46.2593 33.8508 47.1078 33.8448 47.597 33.9104L47.0701 34.0017L46.9724 34.1538C47.2194 34.3612 47.2521 34.3861 47.5709 34.4223C47.4157 34.4887 47.1458 34.6154 46.9902 34.6483L46.2134 34.5841C45.5296 34.5506 45.3691 34.6077 44.8813 34.1713L44.8976 33.9973C45.1534 33.7951 45.4001 33.8401 45.7417 33.8389Z" fill="#492C28"/>
<path d="M47.0887 32.3514C47.1959 32.667 47.5474 33.6348 47.597 33.9104C47.1078 33.8447 46.2593 33.8508 45.7417 33.8388C46.1857 33.1324 46.3639 32.7424 47.0887 32.3514Z" fill="#BECF6D"/>
<path d="M40.0131 30.1568C40.1543 30.2122 40.4854 30.3311 40.6033 30.3942L39.7781 31.3083L39.3668 30.8843L39.3948 30.6051L40.0131 30.1568Z" fill="#D7D975"/>
<path d="M61.7623 32.0643C62.0457 32.6825 61.7812 33.3447 62.0287 33.9069C62.2523 33.8326 62.3795 33.342 62.453 33.1156C62.8353 33.3444 62.8441 33.2739 63.0369 33.6146C63.4159 34.6577 63.6834 35.7379 63.8351 36.8373C64.063 37.5741 64.404 42.4965 64.2878 43.2506C64.2146 44.81 63.5215 51.7059 64.0111 52.5851C63.778 52.6565 63.7533 52.6206 63.6286 52.7751L63.2416 53.3204C62.6477 53.0968 62.4338 52.6135 62.1334 52.0875L62.1507 51.8078C62.1085 51.5434 62.2871 49.271 62.3098 48.7505C62.378 47.2163 62.3246 45.679 62.1502 44.1532C62.0875 43.6068 61.9681 43.3001 62.2447 42.8928C61.9648 42.4805 61.4869 42.1689 61.9032 41.7642L61.7639 41.6349L61.78 41.4177L62.0214 41.2659L61.6756 41.146C61.7508 40.9995 61.9467 40.8332 62.0736 40.7118L61.6443 40.7748C61.8027 39.8439 61.7274 39.1017 61.68 38.1631C61.2766 35.9886 60.9237 34.8751 60.2382 32.7985C60.6246 32.568 61.3335 32.2638 61.7623 32.0643Z" fill="#D7D975"/>
<path d="M62.2447 42.8928C61.9648 42.4805 61.4869 42.1689 61.9033 41.7642C62.6484 42.254 63.0072 42.3856 63.3642 43.2083L63.2657 43.3638C62.878 43.3795 62.5713 43.1181 62.2447 42.8928Z" fill="#311518"/>
<path d="M62.0735 40.7118C62.3786 40.3166 62.5984 39.9171 63.1259 39.8687C63.6106 40.4573 62.4863 41.0893 62.0213 41.2659L61.6755 41.146C61.7508 40.9995 61.9466 40.8331 62.0735 40.7118Z" fill="#492C28"/>
<path d="M63.8351 36.8373C63.3234 36.3666 63.1484 35.1089 62.8377 34.4454C62.6908 34.1316 62.8719 33.8822 63.0369 33.6146C63.4158 34.6577 63.6834 35.7379 63.8351 36.8373Z" fill="#FDEEDE"/>
<path d="M62.1507 51.8078C62.6879 52.2198 63.052 52.436 63.6286 52.7751L63.2416 53.3204C62.6477 53.0968 62.4338 52.6135 62.1334 52.0875L62.1507 51.8078Z" fill="#584937"/>
<path d="M51.6872 25.9647C52.2066 25.8001 52.5657 25.6931 53.0755 25.9257L53.2565 26.1258L53.1791 26.3857L53.713 26.9993C52.6329 27.808 51.1927 30.2024 50.8566 30.3444L50.6545 30.2709C50.5452 30.4672 50.3204 30.8391 50.2565 31.0337C49.9594 31.4205 49.8801 31.5269 49.6746 31.9658C48.9416 32.0582 48.5212 32.9911 48.3687 33.6261L48.1464 33.5716L47.8559 32.6799C47.7253 32.2676 47.617 31.7395 47.5166 31.3104C48.1642 30.0695 49.2286 29.1421 50.0267 28.0103C50.4009 27.4798 50.3852 27.3756 50.2675 26.7449C50.4121 26.3851 50.3078 26.5047 50.6808 26.3101L51.4449 26.5602C51.6941 26.3525 51.6779 26.2454 51.6872 25.9647Z" fill="#BECF6D"/>
<path d="M47.856 32.6799C48.5252 32.2348 49.2196 29.7858 50.3726 29.7328C50.6602 29.9475 50.5725 29.8246 50.6545 30.2709C50.5452 30.4672 50.3204 30.8391 50.2565 31.0337C49.9594 31.4205 49.8801 31.5269 49.6746 31.9658C48.9416 32.0582 48.5213 32.9911 48.3687 33.6261L48.1464 33.5716L47.856 32.6799Z" fill="#609142"/>
<path d="M51.6872 25.9647C52.2067 25.8001 52.5657 25.6931 53.0756 25.9257L53.2565 26.1258L53.1791 26.3857C52.8864 26.6727 52.5463 27.0924 52.1613 27.1237C51.6815 26.9531 51.8129 26.9887 51.4449 26.5602C51.6941 26.3525 51.678 26.2454 51.6872 25.9647Z" fill="#7AA863"/>
<path d="M47.571 34.4223L47.6962 34.3314L47.8061 34.6715C48.8181 34.8221 49.1032 35.7477 49.0849 36.6663L48.9785 36.8425L48.7888 36.8427C48.6884 36.709 48.6281 36.6546 48.6023 36.4879C48.0799 38.3563 47.8643 40.4814 47.7118 42.4185C47.688 42.7215 47.6796 43.6919 47.5076 43.8783C47.0567 44.2349 46.7279 44.5744 46.4319 45.0751C45.6366 43.8988 47.0959 37.8656 46.9912 36.692C46.5759 36.9911 46.4174 37.2229 46.004 36.8696C46.2895 36.1363 46.8873 35.4926 47.1312 34.8228L46.9903 34.6483C47.1458 34.6154 47.4158 34.4887 47.571 34.4223Z" fill="#D7D975"/>
<path d="M47.571 34.4223L47.6962 34.3314L47.8061 34.6715C48.8181 34.8221 49.1032 35.7477 49.0849 36.6663L48.9785 36.8425L48.7888 36.8427C48.6884 36.709 48.6281 36.6546 48.6023 36.4879C48.3699 35.9781 48.1022 35.4204 47.8848 34.9092C47.5918 35.5781 47.344 36.0518 46.9912 36.692C46.5759 36.9911 46.4174 37.2229 46.004 36.8696C46.2895 36.1363 46.8873 35.4926 47.1312 34.8228L46.9903 34.6483C47.1458 34.6154 47.4158 34.4887 47.571 34.4223Z" fill="#492C28"/>
<path d="M56.5467 26.6905C57.5357 26.8154 57.7927 26.9604 58.6669 27.4659C58.9901 27.6531 59.892 28.6201 60.0488 28.9632C60.7632 29.2696 61.5969 30.1517 62.1929 30.7086L62.1617 30.9873C62.0159 31.0754 61.9081 31.1509 61.7447 31.2038L61.644 31.3997C61.8004 31.679 61.7851 31.7407 61.7623 32.0643C61.3335 32.2638 60.6246 32.568 60.2382 32.7985C60.145 32.8275 60.0196 32.809 59.9147 32.8038C59.6863 32.5699 59.7331 32.6866 59.7328 32.3703L59.9303 32.1726C59.7788 31.9806 59.6005 31.6143 59.4928 31.3941C58.7779 29.9329 57.8028 28.7765 56.6843 27.6204C56.3965 27.3229 56.4973 27.06 56.5467 26.6905Z" fill="#D7D975"/>
<path d="M60.0488 28.9632C60.7632 29.2696 61.5968 30.1517 62.1929 30.7086L62.1617 30.9873C62.0159 31.0754 61.9081 31.1509 61.7447 31.2038C61.2234 30.6079 60.4241 30.1482 59.9731 29.5085C59.8736 29.3675 59.9838 29.1758 60.0488 28.9632Z" fill="#492C28"/>
<path d="M59.9303 32.1726C60.5634 31.8404 60.9776 31.6617 61.6439 31.3997C61.8003 31.679 61.7851 31.7406 61.7623 32.0643C61.3334 32.2638 60.6246 32.568 60.2382 32.7985C60.145 32.8275 60.0195 32.809 59.9147 32.8038C59.6862 32.5699 59.7331 32.6866 59.7328 32.3703L59.9303 32.1726Z" fill="#492C28"/>
<path d="M46.6733 47.4534C47.2765 47.6379 47.4858 47.6561 47.9538 48.0789C47.5384 48.9063 48.6382 54.3391 48.7613 55.6392C48.7972 56.0186 48.9719 56.2332 49.1774 56.5287C48.8923 56.9036 48.5208 57.3643 48.2704 57.7515C47.9852 57.5858 47.9178 57.5237 47.6757 57.2978L47.6503 56.6132L47.9507 56.3192C48.0637 56.0125 46.6632 49.6448 46.4586 49.0044C46.4816 48.5379 46.4643 47.8438 46.6733 47.4534Z" fill="#D7D975"/>
<path d="M48.2191 59.3656L48.4887 59.7668C48.6326 60.8017 49.1216 61.7032 49.8612 62.4348C50.0594 62.8454 50.2643 63.2935 50.4885 63.687L50.4384 63.8452C50.0158 63.7661 49.5489 63.6323 49.1517 63.7691C48.9555 63.9229 48.9151 63.9426 48.7772 64.1456C48.5345 64.1161 47.7919 63.6347 47.4768 63.4707C47.191 63.1282 47.0064 62.6629 46.8192 62.2518L47.1466 62.1583C47.5006 61.7752 47.8605 60.4123 48.1097 59.7754L48.2191 59.3656Z" fill="#BECF6D"/>
<path d="M47.5076 43.8783L47.7668 44.1569C47.7407 44.5281 47.7363 44.4333 47.4995 44.7738C47.713 45.1619 47.7223 46.6886 47.5608 47.0612C47.9131 47.1694 48.089 47.1888 48.3052 47.4958C48.3153 47.8207 48.2721 47.9092 47.9538 48.0789C47.4858 47.6561 47.2765 47.6379 46.6733 47.4534C45.9607 46.9385 46.181 46.9984 45.8641 46.3034C45.9449 45.5943 46.0159 45.7019 46.4318 45.0751C46.7279 44.5744 47.0567 44.2349 47.5076 43.8783Z" fill="#492C28"/>
<path d="M47.4995 44.7738C47.713 45.1619 47.7222 46.6886 47.5608 47.0612C47.2073 46.8861 46.5231 46.6523 46.132 46.5052C46.5305 46.066 47.0864 45.2797 47.4995 44.7738Z" fill="#D7D975"/>
<path d="M50.2565 31.0337C50.5048 31.922 49.8813 33.4707 49.2363 34.0982C48.9471 34.1678 48.8261 34.1719 48.5278 34.1855L48.3394 34.5944C48.1 34.6024 48.0284 34.5922 47.806 34.6715L47.6962 34.3314C47.8936 34.0807 47.9995 33.8521 48.1464 33.5715L48.3687 33.6261C48.5212 32.9911 48.9416 32.0582 49.6746 31.9658C49.8801 31.5269 49.9594 31.4205 50.2565 31.0337Z" fill="#BECF6D"/>
<path d="M48.3687 33.6261C48.5212 32.9911 48.9416 32.0582 49.6746 31.9658C49.4864 32.7082 49.3369 33.1698 48.7481 33.6742C48.4749 33.7254 48.5963 33.7492 48.3687 33.6261Z" fill="#492C28"/>
<path d="M48.4888 59.7668C49.1737 59.8928 49.5002 59.9734 50.0312 60.4425C49.9914 61.4183 50.5627 61.3085 50.4137 62.0794C50.1764 62.2856 50.1491 62.3278 49.8612 62.4348C49.1217 61.7032 48.6326 60.8018 48.4888 59.7668Z" fill="#609142"/>
<path d="M47.6757 57.2978C47.9179 57.5237 47.9852 57.5858 48.2704 57.7515C48.15 58.074 48.0641 58.216 48.1665 58.5519C48.6219 58.6677 48.9327 58.1206 49.1769 57.7902C49.4161 58.1979 49.6426 58.8904 49.399 59.3327C49.106 59.1737 48.9001 59.0543 48.5812 58.9416C48.293 59.0841 48.389 59.0178 48.2191 59.3656L48.1097 59.7754C47.9949 59.3825 47.7729 59.4145 47.4369 59.3576L47.3473 59.3076C47.4154 58.9228 47.4387 59.0771 47.257 58.7274L47.3794 58.7152C47.6071 58.3691 47.5823 58.2474 47.4806 57.8953L47.6757 57.2978Z" fill="#BECF6D"/>
<path d="M49.1774 56.5287C49.5609 56.2588 49.4809 56.2334 49.8938 56.1925C50.1114 56.6754 49.487 57.4219 49.1769 57.7902C48.9327 58.1206 48.6219 58.6677 48.1665 58.5519C48.0641 58.216 48.15 58.074 48.2704 57.7515C48.5208 57.3643 48.8923 56.9036 49.1774 56.5287Z" fill="#492C28"/>
<path d="M62.1333 52.0875C62.4338 52.6135 62.6477 53.0968 63.2416 53.3204L63.0359 53.4099C62.9654 53.6128 62.8885 53.867 62.795 54.0544L62.0028 54.3851C61.8103 53.8227 61.8567 52.6289 62.1333 52.0875Z" fill="#D7D975"/>
<path d="M48.2191 59.3656C48.389 59.0178 48.293 59.0841 48.5812 58.9416C48.9001 59.0543 49.106 59.1737 49.399 59.3327C49.7888 59.5188 50.1626 59.6575 50.4324 59.9942L50.447 60.2335C50.3017 60.3359 50.2044 60.4324 50.0312 60.4425C49.5002 59.9733 49.1736 59.8927 48.4888 59.7668L48.2191 59.3656Z" fill="#492C28"/>
<path d="M61.68 38.1631C61.7274 39.1017 61.8027 39.8439 61.6443 40.7748C61.4972 40.8694 61.5326 40.8374 61.3157 40.8208C60.8621 40.3336 61.1814 38.6834 61.68 38.1631Z" fill="#424729"/>
<path d="M48.5278 34.1855C49.0553 34.2365 50.1468 34.2016 50.4404 34.698C49.9793 35.1151 48.8575 34.7954 48.3395 34.5944L48.5278 34.1855Z" fill="#492C28"/>
<path d="M60.3204 41.0131C59.8705 40.869 59.1484 40.0973 59.1544 39.5642L59.3799 39.5199C59.8767 39.6731 60.2536 40.1063 60.636 40.4721C61.2941 41.2247 61.6986 43.7569 60.7026 44.3228C60.3311 43.8684 60.8258 42.6608 60.9961 42.1186C60.2668 42.3697 59.4015 42.5784 58.7617 42.9213L58.4855 42.8884L58.4881 42.7238C59.1075 42.3439 59.9109 41.8697 60.5516 41.5378C60.5337 41.2146 60.5418 41.3177 60.3204 41.0131Z" fill="#311518"/>
<path d="M73.8968 60.0155C74.2595 60.1196 75.7234 60.5675 75.9986 60.5627C76.4935 60.3033 76.7711 60.2822 77.3075 60.4428C78.018 60.6557 78.658 61.126 79.0109 61.7874C80.2496 64.1087 76.8532 80.9131 75.757 84.3392C75.6352 84.7199 75.4557 85.0744 75.2364 85.4079C75.5987 85.4965 75.9634 85.5812 76.3208 85.6877C80.0731 84.4023 79.4544 92.2052 77.3253 91.5837L77.0678 91.2446C76.815 91.3467 76.6887 91.3451 76.5621 91.5417C76.6446 91.8306 76.7566 92.1648 76.5474 92.4381C74.7765 94.1212 69.4451 95.2247 67.1712 95.6598C58.5173 97.3155 48.9691 96.9971 40.6454 94.0263C39.8244 93.7332 37.5854 93.1665 37.4774 92.2228C38.2632 91.5433 40.9048 93.3029 41.7444 93.2385C40.1456 91.6761 38.8262 91.1029 40.1329 88.6214C40.3675 88.2572 40.4644 88.1258 40.7553 87.8056C41.4215 88.0572 43.3952 88.8284 43.9826 88.9278L43.949 88.8866C40.9031 85.1315 38.2575 73.6149 38.7189 68.615C38.8403 67.2995 39.3514 66.348 40.3728 65.5187C39.5395 65.0369 37.5595 64.8643 37.3682 63.6556C37.6248 63.4451 38.6483 63.6709 39.1367 63.6719C39.5981 62.5188 41.9858 62.095 43.0883 62.5658L43.2937 62.5477L43.3219 62.4276L43.5042 62.2537C43.6384 62.3178 43.8515 62.4339 43.9858 62.4556C44.6419 62.2132 46.2284 62.8581 46.8803 63.1413C47.0646 63.3507 47.0461 63.4364 47.0804 63.7297L47.4768 63.4707C47.7919 63.6347 48.5345 64.1161 48.7772 64.1456C48.9151 63.9426 48.9555 63.9229 49.1517 63.7691C49.5489 63.6323 50.0158 63.7661 50.4384 63.8452C53.3381 64.2226 55.845 64.5986 58.7515 64.0794L59.8404 63.8591C60.4978 63.8996 60.5561 63.9199 61.1269 64.2138C62.626 63.793 63.5767 63.6442 64.9703 63.282L65.0349 63.0645L65.3283 63.0706C66.1214 62.8884 66.5852 62.6996 67.3438 62.402C68.3223 62.3239 69.7238 61.2846 70.5228 61.1765L70.6698 61.3198C70.8847 61.043 71.7759 60.5598 72.1323 60.5208C72.9435 60.6002 73.2724 60.4996 73.8968 60.0155Z" fill="#FDEEDE"/>
<path d="M67.3439 62.402C68.3223 62.3239 69.7238 61.2846 70.5228 61.1765L70.6698 61.3198C71.7783 61.6651 73.6768 61.6007 74.337 62.3731C74.4799 62.6459 74.492 62.7006 74.7159 62.9015C72.5528 64.067 68.8401 64.8738 66.3671 65.3219C59.2273 66.6446 51.9081 66.6768 44.7569 65.4169C43.7867 65.249 41.7795 64.9586 41.0126 64.4266C40.9057 63.3751 42.3354 63.3832 43.0884 62.5658L43.2938 62.5477L43.3219 62.4276L43.5043 62.2537C43.6384 62.3178 43.8515 62.4339 43.9859 62.4556C44.6419 62.2132 46.2285 62.8581 46.8803 63.1413C47.0647 63.3507 47.0462 63.4364 47.0805 63.7297L47.4768 63.4707C47.792 63.6347 48.5345 64.1161 48.7772 64.1456C48.9152 63.9426 48.9556 63.9229 49.1517 63.7691C49.5489 63.6323 50.0159 63.7661 50.4385 63.8452C53.3381 64.2226 55.845 64.5986 58.7515 64.0794L59.8405 63.8591C60.4978 63.8996 60.5562 63.9199 61.127 64.2138C62.626 63.793 63.5767 63.6442 64.9703 63.282L65.0349 63.0645L65.3284 63.0706C66.1215 62.8884 66.5853 62.6996 67.3439 62.402Z" fill="#BE9B6F"/>
<path d="M48.7772 64.1456C48.9152 63.9426 48.9556 63.9229 49.1517 63.7691C49.5489 63.6323 50.0159 63.7661 50.4385 63.8452C53.3381 64.2226 55.845 64.5986 58.7515 64.0794L59.8405 63.8592C60.4978 63.8996 60.5562 63.9199 61.127 64.2138C60.131 66.1974 51.8033 65.3801 49.6835 64.8142C49.1294 64.6664 49.0819 64.5791 48.7772 64.1456Z" fill="#492C28"/>
<path d="M67.3439 62.402C68.3223 62.3239 69.7238 61.2846 70.5228 61.1765L70.6698 61.3198C71.7783 61.6651 73.6768 61.6007 74.337 62.3731C74.1672 62.5842 73.9838 62.9075 73.7262 62.8924C72.8202 62.839 71.4212 62.4842 70.5468 62.2526C69.4395 62.9084 66.3578 64.4392 65.1111 63.857C64.9698 63.6049 64.9802 63.5797 64.9703 63.282L65.0349 63.0645L65.3284 63.0706C66.1215 62.8884 66.5853 62.6996 67.3439 62.402Z" fill="#492C28"/>
<path d="M43.9858 62.4556C44.6419 62.2132 46.2284 62.8581 46.8803 63.1413C47.0646 63.3507 47.0461 63.4364 47.0804 63.7297C46.467 64.2528 44.8398 63.7459 44.2404 63.2996C43.977 63.1035 44.015 62.7493 43.9858 62.4556Z" fill="#513A31"/>
<path d="M40.3728 65.5187C39.5395 65.0369 37.5595 64.8643 37.3682 63.6556C37.6248 63.4451 38.6483 63.6709 39.1367 63.6719C39.5981 62.5188 41.9858 62.095 43.0883 62.5658C42.3354 63.3832 40.9056 63.3751 41.0126 64.4266C41.7794 64.9586 43.7867 65.249 44.7569 65.4169C51.9081 66.6768 59.2272 66.6446 66.367 65.3219C68.8401 64.8738 72.5528 64.067 74.7159 62.9015C75.1995 62.6428 75.9446 62.1897 76.3052 62.9141C75.854 64.5729 69.5404 65.7749 67.8879 66.1319C58.8872 68.0764 49.4187 67.9878 40.516 65.56C40.4681 65.5467 40.4204 65.533 40.3728 65.5187Z" fill="#492C28"/>
<path d="M41.7444 93.2385C42.0215 93.3542 42.3019 93.4619 42.5852 93.5616C44.8497 94.3536 47.8818 94.8036 50.2459 95.1358C58.3912 96.2802 69.0891 95.1498 76.5622 91.5417C76.6447 91.8306 76.7566 92.1648 76.5475 92.4381C74.7766 94.1212 69.4452 95.2247 67.1712 95.6598C58.5173 97.3155 48.9692 96.9971 40.6455 94.0263C39.8244 93.7332 37.5854 93.1665 37.4774 92.2228C38.2633 91.5433 40.9049 93.3029 41.7444 93.2385Z" fill="#492C28"/>
<path d="M43.9826 88.9278C44.5989 89.2256 46.0966 89.5538 46.8136 89.6977C53.1242 90.9683 59.5911 90.9176 65.9339 89.9272C68.6281 89.5066 70.7207 88.3398 73.2364 87.6388C73.5124 87.7428 73.4151 87.6846 73.6095 87.9295L73.5649 88.1521C73.0038 88.9331 70.9909 89.6681 70.0947 89.9648C61.9831 92.6507 47.7566 92.4392 40.1329 88.6214C40.3674 88.2572 40.4644 88.1258 40.7553 87.8056C41.4215 88.0572 43.3952 88.8284 43.9826 88.9278Z" fill="#492C28"/>
<path d="M75.9986 60.5627C76.4936 60.3033 76.7711 60.2822 77.3075 60.4428C78.018 60.6557 78.658 61.126 79.0109 61.7874C80.2497 64.1087 76.8533 80.9131 75.757 84.3392C75.6352 84.7199 75.4558 85.0744 75.2364 85.4079C74.9104 85.3557 74.871 85.3374 74.5868 85.1679C74.3633 84.7307 75.3313 81.4844 75.5066 80.7713C76.9325 74.9738 77.8777 68.6263 78.3074 62.667C77.5187 61.2906 76.5068 61.5481 75.9986 60.5627Z" fill="#492C28"/>
<path d="M76.3208 85.6877C80.0731 84.4023 79.4545 92.2052 77.3253 91.5837L77.0678 91.2446C77.3072 91.0342 77.8607 89.6691 77.9077 89.286C78.1405 87.3898 77.1512 86.8732 76.3208 85.6877Z" fill="#492C28"/>
<path d="M47.478 21.4293C47.5776 21.057 47.5996 20.8441 47.8897 20.5933C48.9578 20.1626 50.4443 21.2043 51.3262 21.7946C51.6342 21.2214 51.847 20.7078 52.5438 20.5393C53.3841 20.336 53.6734 21.1872 53.7017 21.8456C53.9609 22.1888 54.215 22.5359 54.4638 22.8868C54.1061 23.6446 53.8026 24.475 54.5467 25.0843L54.5513 25.1412C54.307 25.7862 53.9246 25.9949 53.2565 26.1258L53.0756 25.9256C52.5657 25.6931 52.2067 25.8001 51.6872 25.9647C49.8803 25.9256 47.322 23.2993 47.478 21.4293Z" fill="#492C28"/>
<path d="M47.478 21.4293C50.0384 22.0279 49.9598 22.341 51.7609 23.9802C51.5672 24.508 51.6201 25.4102 51.6872 25.9647C49.8803 25.9256 47.322 23.2993 47.478 21.4293Z" fill="#A3C069"/>
<path d="M51.7609 23.9802C53.0084 23.6194 52.2422 22.8072 52.5794 21.9896C53.0832 21.6727 52.81 22.1494 53.7017 21.8456C53.9609 22.1888 54.215 22.5359 54.4639 22.8868C54.1062 23.6446 53.8026 24.475 54.5467 25.0843L54.5514 25.1412C54.307 25.7862 53.9246 25.9949 53.2565 26.1258L53.0756 25.9256C52.5657 25.6931 52.2067 25.8001 51.6872 25.9647C51.6201 25.4102 51.5672 24.508 51.7609 23.9802Z" fill="#BECF6D"/>
<path d="M35.8536 61.4506C36.3362 61.4697 36.3567 61.3937 36.6978 61.6246C36.7145 62.2599 35.8197 62.4923 35.2298 63.378L35.2026 63.4194C34.9985 67.6183 36.9287 75.5985 37.8731 79.7529C38.2619 81.4636 39.7588 85.3052 39.6249 86.8042L39.2453 86.8019C39.1033 86.7285 39.0243 86.6652 38.9374 86.5308C37.1891 83.8309 33.5779 66.2687 34.3092 63.0845C34.489 62.3019 35.2145 61.8408 35.8536 61.4506Z" fill="#492C28"/>
<path d="M64.4405 25.1143C66.7066 25.3151 69.2058 26.184 70.748 27.9155C70.9035 27.1629 71.0747 26.0598 71.5373 25.4637L71.8447 25.3332C72.3083 26.2461 70.9407 27.8913 71.5793 28.2622C72.2749 28.0878 73.6234 27.5063 74.1334 27.7397C74.1572 28.3597 72.275 28.7109 71.7357 28.8119C73.9156 30.3538 75.5396 32.9325 76.4935 35.4023C76.6354 35.7695 76.7844 36.2398 76.5829 36.6078C76.3019 36.78 76.2578 36.7885 75.931 36.8389L75.5243 36.676L75.2084 36.1929C75.4272 34.3712 72.1893 30.7701 71.0351 29.5484C70.8825 29.3868 71.2334 28.8477 71.1203 28.5279C70.7461 28.5441 70.5133 28.7615 70.1587 28.9759L70.0618 28.8768C69.1196 27.8225 67.0998 26.8084 65.7529 26.446C65.0963 26.2693 64.1103 26.3012 63.7224 25.7685C63.8518 25.4514 64.1416 25.3151 64.4405 25.1143Z" fill="#492C28"/>
<path d="M54.4638 22.8868C55.1882 21.8516 57.0593 18.2947 58.7989 19.2323C59.0677 19.5229 59.0403 19.7841 59.0648 20.1841C59.3988 21.2046 59.3404 21.7119 58.9263 22.7162C58.6239 23.2297 57.3617 24.6983 56.8998 25.0902C56.8727 25.3657 56.8586 25.2591 57.0734 25.538L57.2133 25.8201C56.762 25.8277 56.4589 25.7958 56.0085 25.7479C55.3132 25.5448 55.1624 25.5508 54.5513 25.1412L54.5466 25.0843C53.8025 24.475 54.1061 23.6446 54.4638 22.8868Z" fill="#492C28"/>
<path d="M59.0648 20.1841C59.3988 21.2046 59.3404 21.7119 58.9263 22.7162C58.6239 23.2297 57.3617 24.6983 56.8998 25.0902C56.8727 25.3657 56.8586 25.2591 57.0734 25.538L57.2133 25.8201C56.762 25.8277 56.4589 25.7958 56.0085 25.7479C56.2865 24.7207 56.2668 23.2327 56.7592 22.1495C56.8007 22.0581 56.7722 21.6698 56.7554 21.5437C57.6374 20.5851 57.8016 20.2625 59.0648 20.1841Z" fill="#D7D975"/>
<path d="M54.5467 25.0843C54.6483 25.0829 54.9532 25.0495 55.0025 24.9494C55.6374 23.6632 55.7576 22.6547 56.7554 21.5437C56.7723 21.6698 56.8008 22.0581 56.7592 22.1495C56.2668 23.2327 56.2865 24.7207 56.0085 25.7479C55.3133 25.5448 55.1624 25.5508 54.5514 25.1412L54.5467 25.0843Z" fill="#A3C069"/>
<path d="M32.2961 43.892L32.6249 43.6722C33.1769 43.8566 33.1265 44.0881 33.9997 44.3254C33.9853 44.7319 33.9263 45.4868 34.021 45.8523C33.4611 47.7806 34.7083 52.5129 35.5479 54.3565C35.9165 55.1658 36.8035 56.2992 37.259 57.1216C37.5064 57.5681 37.6228 58.0818 37.0214 58.3101C36.2128 58.2183 35.0784 56.0248 34.7031 55.3579C32.6434 51.6971 32.7765 48.6041 32.6897 44.6506C32.3251 44.3217 32.4326 44.4275 32.2961 43.892Z" fill="#492C28"/>
<path d="M39.1099 29.6144C39.1735 29.825 39.3676 30.4216 39.3948 30.6051L39.3667 30.8843C38.6412 31.5177 38.1716 32.0108 37.6903 32.8667C37.2082 32.9958 36.3767 34.426 36.1144 34.8844C35.0388 36.765 34.3093 38.8544 33.8639 40.9708C33.7172 41.6729 33.2563 41.513 32.7103 41.3651C32.8755 37.4422 34.8515 33.4748 37.6953 30.7843C37.2406 30.6767 36.5959 30.5714 36.2605 30.2486C36.6393 29.7254 37.8175 30.3525 39.1099 29.6144Z" fill="#492C28"/>
<path d="M58.9263 22.7162C59.5334 22.7535 61.9295 20.9355 63.2635 21.5488C63.5424 21.9025 63.4639 21.7664 63.5344 22.228C63.3623 22.8542 62.0936 24.0226 61.5532 24.389C61.3186 24.5733 60.9826 24.8207 60.7676 25.0114C60.2276 25.3362 59.6089 25.262 59.3043 25.6361C58.6239 25.7481 57.9039 25.8348 57.2133 25.8201L57.0735 25.538C56.8586 25.2591 56.8727 25.3657 56.8998 25.0902C57.3617 24.6983 58.6239 23.2297 58.9263 22.7162Z" fill="#492C28"/>
<path d="M61.7639 22.6209C61.5452 22.9663 61.3813 23.2232 61.2025 23.5907C61.2267 24.0878 61.2146 23.9372 61.5532 24.389C61.3187 24.5733 60.9827 24.8207 60.7676 25.0114C60.2276 25.3362 59.6089 25.262 59.3043 25.6361C58.624 25.7481 57.9039 25.8348 57.2133 25.8201L57.0735 25.538C57.9554 25.2798 60.2849 23.3768 61.7639 22.6209Z" fill="#BECF6D"/>
<path d="M37.1812 85.7189C37.583 85.6551 37.7087 85.7227 37.8991 86.0433C37.7792 86.5921 37.5664 86.6491 37.0946 86.9877C34.2455 89.032 36.8095 90.4256 36.5883 91.8487C34.7175 91.6006 34.4482 89.8037 34.8885 88.2115C35.2266 86.9894 36.1074 86.296 37.1812 85.7189Z" fill="#492C28"/>
<path d="M78.0802 50.1736C78.6918 49.8333 79.6142 49.2715 80.3111 49.227L80.3823 49.3763C79.8412 50.1246 78.7761 50.6407 77.9677 51.0908C78.818 51.2392 79.6052 51.319 80.3423 51.7777L80.4037 51.9603C79.8571 52.3171 78.1568 51.8755 77.6069 51.5505C77.8942 51.0643 77.7841 50.6478 77.712 50.1028L77.8691 49.9775L77.9798 50.1628L78.0802 50.1736Z" fill="#492C28"/>
<path d="M39.1099 29.6144C39.3471 28.7628 38.5789 27.6545 38.9919 26.9824L39.211 27.0695C39.6076 27.4665 39.6414 27.9481 39.7657 28.513C40.3746 29.0568 40.4344 28.2241 41.1718 29.241C40.8257 29.5999 40.4924 29.998 40.0131 30.1568L39.3948 30.6051C39.3677 30.4216 39.1735 29.825 39.1099 29.6144Z" fill="#492C28"/>
<path d="M31.3774 40.7C31.2451 40.4708 30.895 39.9629 31.0377 39.6911L31.2227 39.694C32.0183 40.1738 32.2145 40.5906 32.7103 41.3651C32.8048 41.7907 33.3496 41.6782 33.0863 42.2487C32.359 42.6942 31.7491 41.2796 31.3774 40.7Z" fill="#492C28"/>
<path d="M78.1303 34.0163L78.241 34.0768C78.6021 34.7393 77.2308 37.1825 76.6991 37.572C76.4707 37.3655 76.5241 37.4679 76.4484 37.1859C76.8377 36.2229 77.4433 34.7983 78.1303 34.0163Z" fill="#492C28"/>
<path d="M30.8854 42.7817C31.4094 42.7021 32.3208 42.5979 32.6891 43.0232L32.5836 43.2141C32.1713 43.4438 31.9106 43.415 31.4334 43.4271C30.7523 43.5404 30.0381 43.755 29.4503 43.3825L29.4996 43.2011C29.9203 42.8911 30.3703 42.864 30.8854 42.7817Z" fill="#492C28"/>
<path d="M32.2961 43.892C32.4326 44.4275 32.3251 44.3217 32.6897 44.6506C32.2857 44.8508 31.3398 46.3421 30.4685 46.4925L30.4459 46.3212C30.9707 45.1977 31.4469 44.7921 32.2961 43.892Z" fill="#492C28"/>
<path d="M31.8708 55.9909C32.5264 55.9608 34.6375 56.2365 35.0311 56.7753L34.9243 56.9949C34.7514 57.0053 34.5781 57.0049 34.4053 56.9935C33.6904 56.9476 32.146 56.7856 31.7008 56.271L31.8708 55.9909Z" fill="#492C28"/>
<path d="M35.0253 57.1883C35.9157 57.8949 33.8588 58.9775 33.3369 59.2631C33.132 59.1902 33.2272 59.2456 33.0684 59.0539C33.1425 58.5866 34.5801 57.5392 35.0253 57.1883Z" fill="#492C28"/>
</svg>
