<svg width="114" height="114" viewBox="0 0 114 114" fill="none" xmlns="http://www.w3.org/2000/svg">
<path d="M70.8148 29.2781C71.2598 29.4217 71.3363 29.4367 71.8032 29.4499C72.4945 29.7156 72.7871 29.8705 73.3766 30.3258L73.8447 30.2114C74.2277 30.0335 74.6046 29.8432 74.9751 29.6407C76.0466 29.8188 77.0701 29.9478 77.8541 30.7988C77.7175 31.0565 77.4324 31.6583 77.2382 31.8207L77.3375 31.9531L77.8946 32.6983C78.1892 32.479 78.4902 31.9898 78.7099 31.6733C79.6476 33.3693 79.7202 35.3517 78.9892 37.1449C78.8443 37.5073 78.8148 37.566 78.8264 37.9651C78.5245 38.3057 78.3296 38.92 78.1586 39.3603C77.9036 39.6796 77.5124 40.5396 77.4606 40.9211C76.2358 43.1029 75.9291 41.3393 75.2975 40.8679L75.1189 40.9423C75.0251 41.7292 75.1519 43.647 75.0842 44.7181C74.8285 48.7608 74.2482 57.1391 72.7576 60.6805L73.3693 60.4604L73.4223 60.3611C73.5977 60.0365 73.6403 59.9302 73.9595 59.7403C75.9457 59.5224 76.8145 64.0006 75.1248 65.73C72.7846 68.1249 70.7117 67.8976 67.9592 68.9109C67.7386 68.7222 67.2467 68.3288 67.1016 68.1157L66.5945 68.1697C65.5883 67.7847 65.6129 66.9993 64.3533 67.8485C64.0416 67.791 63.9596 67.7937 63.7428 67.5701L63.8187 67.1663C63.6926 66.7963 63.5457 67.1955 62.8445 66.6515L62.605 67.1468C62.3633 67.0997 62.3102 67.0247 62.1137 66.8606C61.7506 66.504 61.4422 66.3191 60.9267 66.3011C59.2252 66.2424 58.6432 67.7112 58.0144 68.8483C57.6888 68.8562 57.3042 68.8382 56.9729 68.8302C56.8864 69.1197 56.6882 69.5122 56.3266 69.5348C54.4598 69.6516 44.4948 68.4832 44.1427 66.5674C44.3809 66.1528 44.372 66.2496 44.8468 65.9798C44.1472 64.822 43.8214 63.7905 44.2154 62.4156C44.391 61.803 45.0431 61.5466 45.6059 61.7915C46.5777 61.9747 46.9257 62.1895 47.7596 62.415C44.9622 56.7082 44.5347 48.9749 44.4165 42.7187C44.3947 41.5693 44.4399 40.6013 45.198 39.6952C44.3064 39.2773 43.9269 39.3863 43.1091 38.5722C43.3178 38.2825 43.8361 38.0976 44.1848 37.938C44.5696 38.2581 45.0566 38.3952 45.53 38.5648C45.6256 37.7131 44.9651 38.1652 45.4711 37.0596C45.7401 37.1641 45.8713 37.1891 46.0669 37.4029C46.3971 37.1797 46.7245 36.9944 47.0691 36.7954C47.2411 36.9822 47.3846 37.1147 47.5017 37.341C48.0003 36.5639 48.3036 36.6628 49.1393 36.833C49.4856 36.685 50.0244 36.5298 50.3959 36.4103L50.5264 35.9876C50.9024 36.0937 50.7437 36.0885 51.1317 35.9983C51.2252 35.8558 51.3241 35.717 51.4283 35.582C51.7786 35.1343 52.1074 35.1507 52.6807 35.0809C53.0952 35.1089 53.1628 35.1205 53.5432 34.9319L53.5889 34.9997C54.0988 34.9603 54.8096 33.6565 56.1767 33.2215C57.4549 32.815 58.9246 32.6484 60.1924 33.2319C60.5697 33.4764 60.8772 33.6915 61.2371 33.9608L61.6448 34.2174C61.7817 34.5675 61.9014 34.9989 62.1861 35.2171L62.3628 35.1343C62.5516 35.2087 62.8398 35.3118 63.011 35.4033L63.1973 35.5376C63.3698 35.5749 63.6593 35.6273 63.8175 35.6763C64.0047 36.1165 64.0484 36.2531 64.3687 36.6041C65.2856 36.8816 65.1725 37.1329 65.7451 37.4266C65.7262 37.0656 65.7822 36.7587 65.8321 36.4018L66.1539 36.1919C66.4466 35.559 66.6714 35.4995 67.231 35.1319C67.3346 34.8066 67.0996 34.72 67.0451 34.3996C66.4973 31.1694 68.0293 30.0693 70.8148 29.2781ZM64.5233 55.0003C63.4788 53.0151 62.9961 51.7366 64.4336 49.798C62.8051 49.2437 62.5363 54.3525 64.5233 55.0003ZM68.855 34.8725C68.6058 32.8346 69.1435 32.1217 70.5806 30.7405C70.2352 30.6011 69.8751 30.7518 69.55 30.8929C68.5945 31.3073 68.2407 32.3197 67.9605 33.1989C68.0978 33.6778 68.3589 34.7575 68.7523 35.0203L68.855 34.8725Z" fill="#FBF8F1"/>
<path d="M70.8148 29.2781C71.2598 29.4217 71.3363 29.4367 71.8032 29.4499C72.4945 29.7156 72.7871 29.8705 73.3766 30.3258L73.8447 30.2114C74.2277 30.0335 74.6046 29.8432 74.9751 29.6407C76.0466 29.8188 77.0701 29.9478 77.8541 30.7988C77.7175 31.0565 77.4324 31.6583 77.2382 31.8207L77.3375 31.9531L77.8946 32.6983C78.1892 32.479 78.4902 31.9898 78.7099 31.6733C79.6476 33.3693 79.7202 35.3517 78.9892 37.1449C78.8443 37.5073 78.8148 37.566 78.8264 37.9651C78.5245 38.3057 78.3296 38.92 78.1586 39.3603C77.9036 39.6796 77.5124 40.5396 77.4606 40.9211C76.2358 43.1029 75.9291 41.3393 75.2975 40.8679L75.1189 40.9423C75.0251 41.7292 75.1519 43.647 75.0842 44.7181C74.8285 48.7608 74.2482 57.1391 72.7576 60.6805L73.3693 60.4604L73.4223 60.3611C73.5977 60.0365 73.6403 59.9302 73.9595 59.7403C75.9457 59.5224 76.8145 64.0006 75.1248 65.73C72.7846 68.1249 70.7117 67.8976 67.9592 68.9109C67.7386 68.7222 67.2467 68.3288 67.1016 68.1157L66.5945 68.1697C65.5883 67.7847 65.6129 66.9993 64.3533 67.8485C64.0416 67.791 63.9595 67.7937 63.7428 67.5701L63.8187 67.1663C64.1066 66.5573 64.1536 64.6713 65.2029 64.3598C65.3145 64.0204 65.4144 63.822 65.5698 63.5029C65.4399 63.1511 66.55 60.313 66.7538 59.7586C66.8364 59.5775 66.9414 59.4855 67.0758 59.3407C67.6331 60.0189 67.9921 60.8074 68.7199 60.8982C69.3105 60.6079 69.496 59.9978 69.7692 59.4002C69.2129 59.1964 69.1642 59.1333 68.8347 58.6735L68.4651 59.0571C68.1221 59.0356 68.2175 59.0321 67.9116 58.7266C67.2307 57.4947 64.6028 55.9292 64.5233 55.0003C63.4788 53.0151 62.9961 51.7366 64.4336 49.798C65.0315 49.5618 64.9465 49.521 65.1667 48.9624C65.6312 48.9871 65.7864 48.9749 66.2493 48.915C66.2158 48.0577 66.042 44.0081 65.7466 43.4416C65.8398 43.1373 65.8493 43.0725 66.0651 42.8427C66.4998 41.9718 66.6756 41.0092 66.8187 40.0573C66.4516 39.0871 66.4662 38.6713 65.9609 37.5532L65.7451 37.4266C65.7262 37.0656 65.7822 36.7587 65.8321 36.4018L66.1539 36.1919C66.4466 35.559 66.6714 35.4995 67.231 35.1319C67.3346 34.8066 67.0996 34.72 67.0451 34.3996C66.4973 31.1694 68.0293 30.0693 70.8148 29.2781ZM68.855 34.8725C68.6058 32.8346 69.1435 32.1217 70.5806 30.7405C70.2352 30.6011 69.8751 30.7518 69.55 30.8929C68.5945 31.3073 68.2407 32.3197 67.9605 33.1989C68.0978 33.6778 68.3589 34.7575 68.7523 35.0203L68.855 34.8725Z" fill="#FBF8F1"/>
<path d="M70.8148 29.2781C71.2598 29.4217 71.3363 29.4367 71.8032 29.4499C72.4945 29.7156 72.7871 29.8705 73.3766 30.3258L73.8447 30.2114C74.2277 30.0335 74.6047 29.8432 74.9752 29.6407C76.0466 29.8188 77.0701 29.9478 77.8541 30.7988C77.7175 31.0565 77.4324 31.6583 77.2382 31.8207L77.3375 31.9531L77.8946 32.6983C78.2858 33.5662 78.4593 34.0844 78.2886 35.0642C78.042 36.4792 77.4681 38.1939 76.7729 39.434C76.5456 39.8944 76.5851 40.0113 76.2149 40.2302C75.9617 40.116 75.9391 40.0747 75.7759 39.847C75.1727 39.4185 72.8512 37.7764 72.3186 37.6725L72.1332 37.8375C71.8194 37.8933 71.6384 37.8167 71.3298 37.7361C71.48 37.4466 71.4567 37.5696 71.4454 37.2638C71.1301 36.8579 70.5915 36.5569 70.1198 36.3649C69.4703 36.556 69.5639 36.6057 69.0793 36.9997L69.1541 37.0866L68.5135 37.6238C67.9003 37.5421 66.5824 37.5355 65.9609 37.5532L65.7452 37.4266C65.7262 37.0656 65.7822 36.7587 65.8321 36.4019L66.154 36.1919C66.4466 35.559 66.6714 35.4995 67.2311 35.1319C67.3346 34.8066 67.0996 34.72 67.0451 34.3996C66.4973 31.1694 68.0293 30.0693 70.8148 29.2781ZM68.855 34.8725C68.6059 32.8346 69.1436 32.1217 70.5806 30.7405C70.2353 30.6011 69.8751 30.7518 69.55 30.8929C68.5945 31.3073 68.2407 32.3197 67.9605 33.1989C68.0979 33.6778 68.3589 34.7575 68.7524 35.0203L68.855 34.8725Z" fill="#769F50"/>
<path d="M74.9752 29.6407C76.0466 29.8188 77.0702 29.9478 77.8541 30.7988C77.7175 31.0565 77.4324 31.6583 77.2383 31.8207L77.3376 31.9531L77.8946 32.6983C78.2859 33.5662 78.4593 34.0844 78.2886 35.0642C78.042 36.4792 77.4682 38.1939 76.7729 39.434C76.5456 39.8944 76.5851 40.0113 76.2149 40.2302C75.9618 40.116 75.9392 40.0747 75.776 39.847C76.8228 38.0249 75.2916 34.2907 74.5089 32.5008C74.2287 32.3398 73.697 32.0888 73.5692 31.8314C73.7316 31.4762 73.8974 31.1227 74.0665 30.7707L74.3763 30.662C74.093 30.287 74.2345 30.3879 73.8448 30.2114C74.2277 30.0335 74.6047 29.8432 74.9752 29.6407Z" fill="#CBDB70"/>
<path d="M77.3375 31.9531L77.8946 32.6983C78.2858 33.5662 78.4593 34.0844 78.2886 35.0642C78.042 36.4792 77.4681 38.1939 76.7729 39.434C76.332 38.6746 76.7881 32.6759 77.3375 31.9531Z" fill="#F2F1A9"/>
<path d="M74.9752 29.6407C76.0466 29.8188 77.0701 29.9478 77.8541 30.7988C77.7175 31.0565 77.4324 31.6583 77.2382 31.8207C76.274 30.929 75.6406 30.797 74.3763 30.662C74.093 30.287 74.2345 30.3879 73.8447 30.2114C74.2277 30.0335 74.6047 29.8432 74.9752 29.6407Z" fill="#462D27"/>
<path d="M70.8148 29.2781C71.2598 29.4217 71.3363 29.4367 71.8032 29.4499C72.4945 29.7156 72.7871 29.8705 73.3766 30.3258C73.1847 30.5993 73.0632 30.8419 72.7367 30.9147C71.8366 30.9057 71.4427 30.3894 70.5806 30.7405C70.2353 30.6011 69.8751 30.7518 69.55 30.8929C68.5945 31.3073 68.2407 32.3197 67.9605 33.1989C68.0979 33.6778 68.3589 34.7575 68.7524 35.0203L68.855 34.8725C68.955 35.474 69.6492 35.9826 70.1198 36.3649C69.4703 36.556 69.5639 36.6057 69.0793 36.9997L69.1541 37.0866L68.5135 37.6238C67.9003 37.5421 66.5824 37.5355 65.9609 37.5532L65.7452 37.4266C65.7262 37.0656 65.7822 36.7587 65.8321 36.4018L66.154 36.1919C66.4466 35.559 66.6714 35.4995 67.2311 35.1319C67.3346 34.8066 67.0996 34.72 67.0451 34.3996C66.4973 31.1694 68.0293 30.0693 70.8148 29.2781Z" fill="#462D27"/>
<path d="M66.154 36.1919C66.7746 36.3403 68.5731 36.7471 69.0793 36.9997L69.1541 37.0866L68.5135 37.6238C67.9003 37.5421 66.5824 37.5355 65.9609 37.5532L65.7452 37.4266C65.7262 37.0656 65.7822 36.7586 65.8321 36.4018L66.154 36.1919Z" fill="#FBF8F1"/>
<path d="M78.7099 31.6733C79.6476 33.3693 79.7202 35.3517 78.9892 37.1448C78.8444 37.5073 78.8149 37.566 78.8265 37.9651C78.5245 38.3057 78.3296 38.92 78.1586 39.3603C77.9037 39.6796 77.5125 40.5396 77.4607 40.9211C76.2359 43.1029 75.9291 41.3392 75.2976 40.8679L75.1189 40.9423C75.0252 41.7292 75.152 43.647 75.0843 44.7181C74.8286 48.7608 74.2482 57.139 72.7576 60.6805C72.3002 60.8534 72.1239 60.8955 71.7864 60.5226C71.6495 59.8923 72.6515 56.4075 72.8054 55.2804C73.216 52.2742 73.5822 49.4015 73.8041 46.3742C73.8727 45.4401 73.9064 41.7606 74.0228 41.2988C74.2922 40.9623 74.3324 41.0466 74.8499 40.9145L74.8861 40.7562C74.5685 40.1971 73.2517 39.5181 72.6738 39.1872C71.5704 39.9716 69.5842 40.279 68.2258 40.3698C67.6709 40.407 67.5872 40.3507 67.197 39.9866L66.8187 40.0573C66.4517 39.0871 66.4663 38.6713 65.9609 37.5532C66.5824 37.5355 67.9003 37.5421 68.5135 37.6238L69.1542 37.0866L69.0793 36.9997C69.564 36.6057 69.4703 36.556 70.1198 36.3649C70.5915 36.5569 71.1301 36.8578 71.4454 37.2637C71.4568 37.5696 71.48 37.4465 71.3298 37.7361C71.6384 37.8167 71.8195 37.8933 72.1332 37.8375L72.3187 37.6725C72.8513 37.7764 75.1727 39.4185 75.776 39.847C75.9392 40.0747 75.9618 40.116 76.2149 40.2302C76.5851 40.0113 76.5456 39.8944 76.7729 39.434C77.4681 38.1939 78.042 36.4792 78.2886 35.0642C78.4593 34.0844 78.2858 33.5662 77.8946 32.6983C78.1892 32.479 78.4902 31.9898 78.7099 31.6733Z" fill="#462D27"/>
<path d="M65.9609 37.5532C66.5824 37.5355 67.9003 37.5421 68.5135 37.6238C68.213 38.1311 67.8525 38.6071 67.7075 39.159C67.4919 39.4679 67.3638 39.6456 67.197 39.9866L66.8187 40.0573C66.4517 39.0871 66.4663 38.6713 65.9609 37.5532Z" fill="#BB996E"/>
<path d="M69.1541 37.0866L69.3827 37.1998C69.5366 37.9603 69.6136 38.2452 69.4667 39.0235C68.7277 39.1834 68.4837 39.2141 67.7074 39.159C67.8525 38.6071 68.2129 38.1311 68.5134 37.6238L69.1541 37.0866Z" fill="#677632"/>
<path d="M70.1198 36.3649C70.5915 36.5569 71.1301 36.8578 71.4454 37.2637C71.4568 37.5696 71.48 37.4465 71.3298 37.7361C71.1661 37.8175 70.9338 37.9202 70.8007 38.0322C70.5716 37.9412 69.8535 37.4254 69.3827 37.1998L69.1542 37.0866L69.0793 36.9997C69.564 36.6057 69.4703 36.556 70.1198 36.3649Z" fill="#525830"/>
<path d="M69.3827 37.1998C69.8535 37.4254 70.5716 37.9412 70.8007 38.0322C71.041 38.1515 71.4852 38.3558 71.6827 38.5023C70.9344 38.7663 70.2449 38.8767 69.4667 39.0235C69.6136 38.2452 69.5367 37.9603 69.3827 37.1998Z" fill="#BB996E"/>
<path d="M71.3298 37.7361C71.6384 37.8167 71.8194 37.8933 72.1331 37.8375C72.0198 38.3066 72.0848 38.1517 71.6827 38.5023C71.4852 38.3558 71.041 38.1515 70.8007 38.0322C70.9338 37.9202 71.166 37.8175 71.3298 37.7361Z" fill="#5A463B"/>
<path d="M66.2493 48.915L66.2566 48.9927L66.4575 48.9938C66.8227 49.0679 67.1517 49.0884 67.4204 49.326L67.1291 49.7618C67.1872 50.3287 68.4148 52.5332 68.3694 52.6996C67.8446 54.6204 69.2709 57.0832 67.9116 58.7266C67.2307 57.4947 64.6028 55.9293 64.5233 55.0003C63.4788 53.0151 62.9961 51.7366 64.4336 49.798C65.0315 49.5618 64.9465 49.521 65.1667 48.9624C65.6312 48.9871 65.7864 48.9749 66.2493 48.915Z" fill="#8AB262"/>
<path d="M66.4575 48.9938C66.8227 49.0679 67.1517 49.0884 67.4204 49.326L67.1291 49.7618C66.8042 49.8476 66.9405 49.8417 66.5707 49.7166C66.3065 49.438 66.3078 49.3571 66.2566 48.9927L66.4575 48.9938Z" fill="#769F50"/>
<path d="M67.4204 49.326C67.9391 48.8968 68.4763 48.8068 69.132 48.6388C69.5342 48.7551 70.4904 49.0022 70.7113 49.342C71.4996 50.3441 71.481 50.5325 71.5298 51.851C71.4407 53.0868 71.4107 53.4299 70.8941 54.5748C70.4356 55.5995 69.9321 56.774 69.2883 57.6862C69.1175 58.0111 68.9315 58.322 68.8347 58.6735L68.4651 59.0571C68.1221 59.0356 68.2175 59.0321 67.9116 58.7266C69.2709 57.0832 67.8446 54.6204 68.3694 52.6996C68.4148 52.5332 67.1872 50.3287 67.1291 49.7618L67.4204 49.326Z" fill="#CBDB70"/>
<path d="M67.4204 49.326C67.9391 48.8968 68.4763 48.8068 69.132 48.6388C69.5342 48.7551 70.4904 49.0022 70.7113 49.342C70.2476 49.7117 70.1749 50.8827 69.7799 51.7187C69.2229 50.8998 68.2576 49.652 67.1291 49.7618L67.4204 49.326Z" fill="#8AB262"/>
<path d="M69.2883 57.6862L69.1155 57.6484L69.3415 57.1807C69.3261 57.033 69.3339 57.0155 69.2697 56.886C68.947 56.2366 68.9019 53.6815 69.5085 53.2718C70.1593 53.6707 70.0617 54.1555 70.8941 54.5748C70.4356 55.5995 69.9321 56.774 69.2883 57.6862Z" fill="#F2F1A9"/>
<path d="M73.3693 60.4604L73.4223 60.3611C73.5977 60.0365 73.6403 59.9301 73.9595 59.7403C75.9457 59.5224 76.8145 64.0006 75.1248 65.73C72.7846 68.1249 70.7117 67.8976 67.9592 68.9109C67.7386 68.7222 67.2467 68.3287 67.1016 68.1157C69.503 66.8536 73.2106 67.0283 74.5983 64.1736C74.9379 63.4747 74.8504 62.6967 74.7989 61.9494C74.3596 61.2499 74.0664 60.9 73.3693 60.4604Z" fill="#462D27"/>
<path d="M71.5297 51.851C71.6274 51.7045 71.6504 51.4595 71.6874 51.2723C72.0159 50.9109 72.263 50.9121 72.762 50.7393C73.1185 53.882 71.2676 56.7448 69.7692 59.4002C69.2129 59.1964 69.1642 59.1333 68.8347 58.6735C68.9315 58.322 69.1175 58.0111 69.2883 57.6862C69.9321 56.774 70.4356 55.5995 70.8941 54.5748C71.4106 53.4299 71.4407 53.0868 71.5297 51.851Z" fill="#462D27"/>
<path d="M67.4539 47.9364C69.6317 47.1248 71.6899 47.7608 72.5267 50.1009C72.5937 50.2884 72.6721 50.5728 72.762 50.7394C72.2629 50.9121 72.0159 50.9109 71.6874 51.2723C71.6504 51.4595 71.6274 51.7045 71.5297 51.851C71.481 50.5325 71.4996 50.3441 70.7113 49.342C70.4904 49.0022 69.5342 48.7552 69.1319 48.6388C68.4762 48.8068 67.9391 48.8968 67.4204 49.326C67.1516 49.0884 66.8227 49.0679 66.4575 48.9938C66.736 48.6359 67.1293 48.2627 67.4539 47.9364Z" fill="#525830"/>
<path d="M65.5698 63.5029C66.9053 63.1673 68.2523 62.8406 69.5502 62.3796C70.3303 62.1024 71.6238 60.6805 71.9412 62.2675C71.5212 63.297 66.3846 64.8799 65.2029 64.3598C65.3145 64.0203 65.4144 63.822 65.5698 63.5029Z" fill="#462D27"/>
<path d="M65.7466 43.4416C65.8398 43.1373 65.8493 43.0725 66.0651 42.8427C66.4218 42.8966 66.6447 42.8962 66.8969 43.1604C67.1287 43.6089 67.4705 47.2685 67.4539 47.9364C67.1293 48.2627 66.736 48.6359 66.4575 48.9938L66.2566 48.9927L66.2493 48.915C66.2158 48.0577 66.042 44.0081 65.7466 43.4416Z" fill="#677632"/>
<path d="M53.5433 34.9319L53.5889 34.9997C54.0988 34.9603 54.8096 33.6565 56.1767 33.2215C57.4549 32.815 58.9246 32.6484 60.1924 33.2319C60.5697 33.4764 60.8772 33.6914 61.2371 33.9608L61.6448 34.2174C61.7818 34.5675 61.9014 34.9989 62.1861 35.2171L62.3628 35.1343C62.5516 35.2087 62.8398 35.3118 63.0111 35.4033L63.1973 35.5376C63.3699 35.5749 63.6593 35.6273 63.8175 35.6763C64.0048 36.1165 64.0484 36.2531 64.3687 36.6041C65.2856 36.8816 65.1725 37.1329 65.7452 37.4266L65.9609 37.5532C66.4662 38.6713 66.4516 39.0871 66.8187 40.0573C66.6756 41.0092 66.4999 41.9718 66.0651 42.8427C65.8494 43.0725 65.8398 43.1373 65.7466 43.4416C62.9094 46.8831 58.2463 46.9859 54.4629 48.8302C53.7656 47.933 52.9213 46.8571 53.6722 45.6946L53.702 45.6475C53.6632 45.5606 53.426 45.2129 53.3597 45.1112C53.0039 44.3343 52.6731 41.2874 52.4753 40.2028C51.6442 40.7269 50.4592 41.0679 49.8517 40.0259L49.8704 39.6408C49.4747 38.7236 49.6505 37.9796 49.1393 36.833C49.4856 36.685 50.0244 36.5298 50.3959 36.4103L50.5264 35.9876C50.9024 36.0937 50.7437 36.0885 51.1317 35.9983C51.2252 35.8558 51.3242 35.717 51.4284 35.582C51.7786 35.1343 52.1075 35.1507 52.6807 35.0809C53.0952 35.1089 53.1629 35.1205 53.5433 34.9319Z" fill="#8AB262"/>
<path d="M63.1973 35.5376C63.3699 35.5749 63.6593 35.6273 63.8175 35.6763C64.0048 36.1165 64.0484 36.2531 64.3687 36.6041C65.2856 36.8816 65.1725 37.1329 65.7452 37.4266L65.9609 37.5532C66.4662 38.6713 66.4517 39.0871 66.8187 40.0573C66.6756 41.0092 66.4999 41.9718 66.0651 42.8427C65.8494 43.0725 65.8398 43.1373 65.7466 43.4416C62.9094 46.8831 58.2463 46.9859 54.463 48.8302C53.7656 47.933 52.9213 46.8571 53.6722 45.6946L53.702 45.6475C54.4823 45.5544 54.4812 46.4068 54.6075 47.0578C55.6952 46.2711 57.9295 41.2472 59.0591 40.0758C59.4712 40.0085 60.8796 38.4118 61.21 38.0337C61.4537 37.5025 61.3547 37.1706 61.684 36.6552C61.9818 36.4114 62.3802 36.4898 62.7851 36.5063L62.7522 36.3974C62.7966 36.1279 63.0435 35.7763 63.1973 35.5376Z" fill="#462D27"/>
<path d="M59.0591 40.0758L59.244 40.6478C59.4748 40.8258 59.6556 40.9883 59.9256 41.0979L60.0006 41.044C60.7603 41.6633 61.0924 41.8352 61.4108 42.7894C61.1027 43.0648 60.9981 43.4994 60.8245 43.9089C60.5262 44.6129 59.8197 45.0961 59.7113 45.7034C59.2704 45.9087 55.0545 47.2134 54.7653 47.1728L54.6074 47.0578C55.6952 46.2711 57.9294 41.2472 59.0591 40.0758Z" fill="#CBDB70"/>
<path d="M59.9256 41.0979C59.8572 41.4486 58.9036 42.3333 58.5399 42.4L58.4192 42.2317C58.4126 41.674 58.6327 40.7733 59.244 40.6478C59.4748 40.8258 59.6556 40.9883 59.9256 41.0979Z" fill="#F2F1A9"/>
<path d="M61.21 38.0337C61.4537 37.5025 61.3547 37.1706 61.684 36.6552C61.9818 36.4114 62.3802 36.4898 62.7851 36.5063C63.2573 36.8174 63.8377 37.1778 64.2725 37.5244C64.1077 38.1108 64.1497 38.7444 64.0213 39.0383L63.6666 38.8723L63.4802 38.9615C63.3781 39.3086 63.5001 39.784 63.5645 40.1545C63.1253 41.1129 62.8017 42.6376 62.1428 43.124C61.7546 43.1352 61.7778 43.0896 61.4108 42.7894C61.0924 41.8352 60.7604 41.6633 60.0006 41.044L59.9256 41.0979C59.6556 40.9883 59.4748 40.8258 59.2441 40.6478L59.0591 40.0758C59.4712 40.0085 60.8796 38.4118 61.21 38.0337Z" fill="#CBDB70"/>
<path d="M61.21 38.0337C61.3544 40.3839 61.0508 39.5478 60.0006 41.044L59.9256 41.0979C59.6556 40.9883 59.4748 40.8258 59.2441 40.6478L59.0591 40.0758C59.4712 40.0085 60.8796 38.4118 61.21 38.0337Z" fill="#8AB262"/>
<path d="M63.5645 40.1545C63.5001 39.784 63.3781 39.3086 63.4802 38.9615L63.6666 38.8723L64.0213 39.0383C64.4347 39.7734 64.6488 39.9382 65.4838 40.0994C65.4652 43.0064 62.3285 45.247 59.7113 45.7034C59.8197 45.0961 60.5262 44.6129 60.8246 43.9089C60.9981 43.4993 61.1028 43.0648 61.4108 42.7894C61.7778 43.0895 61.7546 43.1352 62.1428 43.124C62.8017 42.6376 63.1253 41.1129 63.5645 40.1545Z" fill="#F2F1A9"/>
<path d="M64.2725 37.5244C65.0592 38.2604 65.425 39.0034 65.4838 40.0994C64.6488 39.9382 64.4347 39.7734 64.0212 39.0383C64.1497 38.7444 64.1076 38.1108 64.2725 37.5244Z" fill="#8AB262"/>
<path d="M53.5433 34.9319L53.5889 34.9997C54.0988 34.9603 54.8096 33.6565 56.1767 33.2215C57.4549 32.815 58.9246 32.6484 60.1924 33.2319C59.5648 33.4434 59.0813 33.6549 58.473 33.9143C58.3393 33.9712 57.7606 33.9664 57.6064 34.0027C52.0814 35.5883 54.3429 40.6939 54.1586 44.7364C54.1504 44.915 53.8208 44.9766 53.6642 45.0245C53.5632 45.055 53.4617 45.084 53.3597 45.1112C53.0039 44.3343 52.6731 41.2874 52.4753 40.2028C51.6442 40.7269 50.4592 41.0679 49.8517 40.0259L49.8704 39.6408C49.4747 38.7236 49.6505 37.9796 49.1393 36.833C49.4856 36.685 50.0244 36.5298 50.3959 36.4103L50.5264 35.9876C50.9024 36.0937 50.7437 36.0885 51.1317 35.9983C51.2252 35.8558 51.3242 35.717 51.4284 35.582C51.7786 35.1343 52.1075 35.1507 52.6807 35.0809C53.0952 35.1089 53.1629 35.1205 53.5433 34.9319Z" fill="#462D27"/>
<path d="M50.5264 35.9876C50.9024 36.0937 50.7437 36.0885 51.1317 35.9983C51.994 36.3668 52.1699 36.3578 53.0978 36.2059C52.7615 37.501 52.5857 38.3721 52.5237 39.7113C52.0737 39.5721 51.5622 39.385 51.0986 39.3684C50.6536 39.4487 50.3023 39.5067 49.8704 39.6408C49.4747 38.7236 49.6505 37.9796 49.1393 36.833C49.4856 36.685 50.0244 36.5298 50.3959 36.4103L50.5264 35.9876Z" fill="#BB996E"/>
<path d="M50.3959 36.4103C50.5078 36.9038 50.9433 39.0281 51.0986 39.3684C50.6536 39.4487 50.3023 39.5067 49.8704 39.6408C49.4747 38.7236 49.6505 37.9796 49.1393 36.833C49.4856 36.685 50.0244 36.5298 50.3959 36.4103Z" fill="#677632"/>
<path d="M60.1924 33.2319C60.5697 33.4764 60.8772 33.6915 61.2371 33.9608L60.6896 34.9763C59.5247 34.1023 59.0209 34.1597 57.6064 34.0027C57.7606 33.9664 58.3393 33.9712 58.473 33.9143C59.0813 33.6549 59.5648 33.4434 60.1924 33.2319Z" fill="#525830"/>
<path d="M61.2371 33.9608L61.6448 34.2174C61.7818 34.5675 61.9014 34.9989 62.1861 35.2171L62.3628 35.1343C62.5516 35.2087 62.8398 35.3118 63.011 35.4033C62.4746 35.7035 62.0265 35.5743 61.4358 35.7602C61.2072 35.6043 60.8865 35.2036 60.6896 34.9763L61.2371 33.9608Z" fill="#463C2B"/>
<path d="M63.011 35.4034L63.1973 35.5376C63.0434 35.7763 62.7966 36.1279 62.7522 36.3974C62.4453 36.3876 62.1381 36.3856 61.8311 36.3915C61.4908 36.1652 61.5905 36.2251 61.4357 35.7602C62.0264 35.5743 62.4745 35.7035 63.011 35.4034Z" fill="#769F50"/>
<path d="M45.6059 61.7915C46.5777 61.9747 46.9257 62.1895 47.7597 62.415C50.5977 63.7728 55.7994 64.0569 58.9199 64.0248C59.8876 64.0149 62.0107 63.7071 62.8201 64.0019C63.0522 64.3453 62.9964 64.1854 63.0156 64.6162C61.9027 66.2552 46.6476 64.8155 45.4941 62.5179C45.4429 62.1579 45.4397 62.1126 45.6059 61.7915Z" fill="#462D27"/>
<path d="M66.4387 58.7611C64.6332 56.6502 61.4823 54.9618 61.6129 51.7001C61.6579 50.6787 62.1202 49.7205 62.8917 49.0495C63.5866 48.4363 64.4951 48.2102 65.1667 48.9624C64.9465 49.521 65.0315 49.5618 64.4336 49.798C62.8051 49.2437 62.5364 54.3525 64.5233 55.0003C64.6028 55.9292 67.2307 57.4947 67.9116 58.7266C68.2175 59.0321 68.1221 59.0356 68.4651 59.0571L68.8347 58.6735C69.1643 59.1333 69.2129 59.1964 69.7692 59.4002C69.496 59.9978 69.3106 60.6079 68.72 60.8982C67.9921 60.8074 67.6332 60.0189 67.0759 59.3407L66.4387 58.7611Z" fill="#462D27"/>
<path d="M56.9729 68.8302C56.8864 69.1197 56.6882 69.5122 56.3266 69.5348C54.4598 69.6515 44.4948 68.4832 44.1427 66.5674C44.3809 66.1528 44.372 66.2496 44.8468 65.9798C47.4984 67.4808 50.8578 67.8076 53.8359 68.2592C54.9543 68.4288 56.1134 68.0946 56.9729 68.8302Z" fill="#462D27"/>
<path d="M47.5017 37.341C48.0003 36.5639 48.3036 36.6628 49.1393 36.833C49.6504 37.9796 49.4747 38.7236 49.8704 39.6408L49.8517 40.0259L49.7472 39.9006C49.4528 39.7426 49.2122 39.8311 48.8675 39.8902C48.0047 40.6549 46.272 39.9632 45.198 39.6952C44.3064 39.2773 43.9269 39.3863 43.1091 38.5722C43.3178 38.2825 43.8361 38.0976 44.1848 37.938C44.5696 38.2581 45.0566 38.3952 45.53 38.5648C45.6256 37.7131 44.9651 38.1652 45.4711 37.0596C45.7401 37.1641 45.8713 37.1891 46.0669 37.4029C46.3971 37.1797 46.7245 36.9944 47.0691 36.7954C47.2411 36.9822 47.3846 37.1147 47.5017 37.341Z" fill="#462D27"/>
<path d="M47.5017 37.341C48.0003 36.5639 48.3036 36.6628 49.1393 36.833C49.6505 37.9796 49.4747 38.7236 49.8704 39.6408L49.8517 40.0259L49.7472 39.9006C49.4528 39.7426 49.2123 39.8311 48.8675 39.8902C48.5499 39.3575 48.436 39.2776 47.8904 39.0962C47.995 38.5336 47.8321 37.8094 47.5017 37.341Z" fill="#BB996E"/>
<path d="M47.0691 36.7954C47.2411 36.9822 47.3846 37.1147 47.5017 37.341C47.8321 37.8094 47.995 38.5336 47.8904 39.0962C47.4453 39.0095 47.0939 38.9281 46.6565 38.809L45.53 38.5648C45.6256 37.7131 44.9651 38.1652 45.4711 37.0596C45.7402 37.1641 45.8713 37.1891 46.0669 37.4029C46.3971 37.1797 46.7245 36.9944 47.0691 36.7954Z" fill="#677632"/>
<path d="M45.4711 37.0596C45.7402 37.1641 45.8713 37.189 46.0669 37.4029L46.0006 37.6123C46.4853 37.861 46.859 38.2301 46.6565 38.809L45.53 38.5648C45.6256 37.7131 44.9651 38.1652 45.4711 37.0596Z" fill="#BB996E"/>
<path d="M66.4387 58.7611L67.0758 59.3407C66.9414 59.4855 66.8364 59.5775 66.7538 59.7586C66.55 60.313 65.4399 63.1511 65.5698 63.5029C65.4144 63.822 65.3145 64.0203 65.2029 64.3598C64.1536 64.6713 64.1066 66.5573 63.8187 67.1663C63.6926 66.7963 63.5457 67.1955 62.8445 66.6515C62.9887 66.0529 65.6023 59.4474 65.8824 59.1207L66.2759 59.0543L66.4387 58.7611Z" fill="#677632"/>
<path d="M66.4388 58.7611L67.0759 59.3407C66.9414 59.4855 66.8364 59.5775 66.7538 59.7586C66.6004 59.2829 66.3158 59.2349 65.8824 59.1207L66.276 59.0543L66.4388 58.7611Z" fill="#F2F1A9"/>
<path d="M34.1802 33.1017C33.8154 33.2408 33.6511 33.3471 33.274 33.2298C32.199 32.3781 33.0067 28.0249 33.8104 26.9053C34.7004 25.4352 36.0956 24.3635 37.7888 23.9299C39.7339 23.4317 43.0115 23.7825 43.5679 26.1574C43.7378 26.4521 43.9019 26.7562 44.105 27.0282L44.3333 27.0299C45.7391 26.2299 47.5528 27.1316 48.2204 28.409C48.3635 28.7401 48.5569 29.263 48.7839 29.5132C48.5841 30.0067 48.5723 30.9601 48.5953 31.4933C48.3767 31.7109 48.3429 31.741 48.2548 32.0346C47.4297 33.5098 46.8787 33.4763 46.0678 34.4756C45.6657 34.5683 45.6037 34.6254 45.2729 34.8602C44.7612 35.0599 44.2512 35.2641 43.743 35.4727C42.841 35.8246 42.528 35.9363 41.7123 36.4102C41.2647 36.2998 40.0237 36.7758 39.8459 37.1784C39.7158 37.089 39.4966 37.03 39.3417 36.9792C39.1294 37.0509 38.7596 37.1892 38.5556 37.2342L37.9589 38.003C37.5975 38.295 36.8902 39.2798 36.5441 39.7093C36.1653 39.2675 35.7317 39.007 35.4055 38.6314C34.4834 37.5693 32.8179 35.3934 34.1043 34.1421L34.2598 33.9779C34.2107 33.7998 34.1933 33.3096 34.1802 33.1017ZM41.5655 25.5339C39.832 23.9186 36.9244 25.1136 35.5116 26.6196C34.3799 27.8259 33.894 29.7457 34.0347 31.3696C34.065 31.7146 34.0403 32.0945 34.2201 32.3801C35.2344 28.4816 36.8108 25.155 41.5655 25.5339Z" fill="#769F50"/>
<path d="M34.1802 33.1017C33.8154 33.2408 33.6511 33.3471 33.274 33.2298C32.199 32.3781 33.0067 28.0249 33.8104 26.9053C34.7004 25.4352 36.0956 24.3635 37.7888 23.9299C39.7339 23.4317 43.0115 23.7825 43.5679 26.1574L42.9328 26.8029L42.931 27.118C42.1509 28.1957 38.8098 29.5051 38.7107 31.276C38.8843 31.7065 38.9457 31.6449 38.8102 31.965C38.6019 32.0077 38.0791 32.1199 37.8938 32.2029C36.4467 32.4127 34.9229 34.3973 34.3778 34.0195L34.322 33.8672L34.2598 33.9779C34.2107 33.7998 34.1933 33.3096 34.1802 33.1017ZM41.5655 25.5339C39.832 23.9186 36.9244 25.1136 35.5116 26.6196C34.3799 27.8259 33.894 29.7457 34.0347 31.3696C34.065 31.7146 34.0403 32.0945 34.2201 32.3801C35.2344 28.4816 36.8108 25.155 41.5655 25.5339Z" fill="#8AB262"/>
<path d="M34.1802 33.1017C33.8154 33.2408 33.6511 33.3471 33.274 33.2298C32.199 32.3781 33.0067 28.0249 33.8104 26.9053C34.7004 25.4352 36.0956 24.3635 37.7888 23.9299C39.7339 23.4317 43.0115 23.7825 43.5679 26.1574L42.9328 26.8029C42.5484 26.3329 42.1142 25.7982 41.5655 25.5339C39.832 23.9186 36.9244 25.1136 35.5116 26.6196C34.3799 27.8259 33.894 29.7457 34.0347 31.3696C34.065 31.7146 34.0403 32.0945 34.2201 32.3801L34.1802 33.1017Z" fill="#462D27"/>
<path d="M34.322 33.8672C34.3131 33.4935 34.3129 33.3724 34.3714 32.9952C35.5506 32.6062 37.5515 30.7835 38.7107 31.276C38.8843 31.7065 38.9457 31.6449 38.8102 31.965C38.6019 32.0077 38.0791 32.1199 37.8938 32.2029C36.4467 32.4127 34.9229 34.3973 34.3778 34.0195L34.322 33.8672Z" fill="#F2F1A9"/>
<path d="M34.322 33.8672L34.3778 34.0195C34.9229 34.3973 36.4467 32.4127 37.8938 32.2029C37.4728 33.3834 36.6187 35.5476 36.7298 36.733C36.7262 36.9683 36.7067 37.3793 36.7377 37.5974C37.1382 37.7545 37.6647 37.8423 37.9589 38.003C37.5975 38.295 36.8902 39.2798 36.5441 39.7093C36.1653 39.2675 35.7317 39.007 35.4055 38.6314C34.4834 37.5693 32.8179 35.3934 34.1043 34.1421L34.2598 33.9779L34.322 33.8672Z" fill="#CBDB70"/>
<path d="M34.1043 34.1421C35.37 34.9144 35.1176 38.2311 36.7377 37.5974C37.1382 37.7545 37.6647 37.8423 37.9589 38.003C37.5975 38.295 36.8902 39.2798 36.5441 39.7093C36.1653 39.2675 35.7317 39.007 35.4055 38.6314C34.4834 37.5693 32.8179 35.3934 34.1043 34.1421Z" fill="#462D27"/>
<path d="M44.3333 27.0299C45.739 26.2299 47.5528 27.1316 48.2203 28.409C48.3635 28.7401 48.5569 29.263 48.7839 29.5132C48.584 30.0067 48.5722 30.9601 48.5953 31.4933C48.3766 31.7109 48.3429 31.741 48.2547 32.0346C47.4297 33.5098 46.8787 33.4763 46.0678 34.4756C45.6657 34.5683 45.6037 34.6254 45.2729 34.8602C44.7611 35.0599 44.2511 35.2641 43.7429 35.4727C43.9465 34.6618 44.5983 34.6887 44.7331 33.783C47.4191 32.1566 49.2991 29.0134 44.9285 27.7248C44.5612 27.6165 44.4874 27.3204 44.3333 27.0299Z" fill="#462D27"/>
<path d="M40.422 35.4636C40.7257 35.2667 43.8927 34.1595 44.7331 33.783C44.5983 34.6887 43.9466 34.6618 43.7429 35.4727C42.841 35.8246 42.528 35.9363 41.7123 36.4102C41.2647 36.2998 40.0237 36.7758 39.8459 37.1784C39.7157 37.089 39.4965 37.03 39.3417 36.9792C39.0311 36.7432 39.1239 36.8293 39.0356 36.3546C39.4384 35.771 39.7801 35.6979 40.422 35.4636Z" fill="#525830"/>
<path d="M39.0356 36.3546C39.4384 35.771 39.7801 35.6979 40.422 35.4636C40.2206 35.9312 39.8089 36.4366 39.3387 36.6502C39.1198 36.5873 39.1916 36.6125 39.0356 36.3546Z" fill="#463C2B"/>
<path d="M36.7298 36.733C36.9014 36.4657 36.799 36.5413 37.1191 36.4574C37.3407 36.6458 37.3636 36.7119 37.4977 36.9726C38.1233 37.0041 38.0907 36.9066 38.5556 37.2342L37.9589 38.003C37.6646 37.8423 37.1382 37.7545 36.7377 37.5974C36.7066 37.3793 36.7261 36.9683 36.7298 36.733Z" fill="#5A463B"/>
<path d="M42.9328 26.8029L43.5679 26.1574C43.7378 26.4521 43.9019 26.7562 44.105 27.0282C43.6033 27.2915 43.5659 27.2565 42.931 27.118L42.9328 26.8029Z" fill="#8AB262"/>
<path d="M58.8462 20.7555C60.1031 20.0374 61.5392 19.5242 63.005 19.8904C63.8886 20.1112 64.9048 20.897 64.4964 21.9253C64.3924 22.1958 64.2123 22.5411 63.9958 22.7302L63.6283 23.4922L64.0296 23.8333L64.1645 23.8607C65.7781 23.383 66.013 23.68 67.1804 24.8846L67.5102 25.5438C67.6303 28.3234 67.139 29.5262 64.7249 31.0066L64.1586 31.3626L63.7037 31.7107C63.3128 31.7091 62.573 31.9836 62.3276 32.2911C61.8784 32.1385 60.7513 32.5103 60.1536 32.5839C59.0832 32.6731 57.2205 32.9115 56.1544 32.6575C55.9027 32.5975 55.7523 32.2533 55.6534 32.0192L55.5299 31.8523C55.1525 32.1476 54.9987 32.3807 54.546 32.1333C54.3044 31.7286 54.3078 31.1613 54.269 30.6799C52.6569 29.3868 53.0317 29.054 52.3739 27.3905C52.6469 25.9711 52.9319 25.594 53.9013 24.5883L53.9932 24.5884C54.5058 24.4176 55.1464 24.13 55.6566 23.9182C57.0417 22.2487 56.6215 22.1157 58.8462 20.7555ZM54.9073 28.9737L54.9222 28.8034C54.9102 28.433 54.8676 28.3451 54.7326 28.0046C54.3347 27.0013 54.7952 26.1734 55.1672 25.2572C54.3949 25.8013 53.8286 26.1418 53.666 27.1477C53.5405 27.9234 53.8277 28.785 54.5597 29.1444C54.7313 29.1054 54.7962 29.1095 54.9073 28.9737Z" fill="#8AB262"/>
<path d="M58.8462 20.7555C60.1031 20.0374 61.5392 19.5242 63.005 19.8904C63.8886 20.1112 64.9048 20.897 64.4964 21.9253C64.3924 22.1958 64.2123 22.5411 63.9958 22.7302L63.6283 23.4922C60.987 24.6495 61.9909 23.7903 59.5619 25.7394C58.0281 26.86 57.0201 27.5822 56.0768 29.3247C56.1179 29.708 56.1604 30.3046 56.297 30.6428C56.0855 31.0316 55.97 31.4833 55.5238 31.5688L55.5299 31.8523C55.1525 32.1476 54.9987 32.3807 54.546 32.1333C54.3044 31.7286 54.3078 31.1613 54.269 30.6799C52.6569 29.3868 53.0317 29.054 52.3739 27.3905C52.6469 25.9711 52.9319 25.594 53.9013 24.5883L53.9932 24.5884C54.5058 24.4176 55.1464 24.13 55.6566 23.9182C57.0417 22.2487 56.6215 22.1157 58.8462 20.7555ZM54.9073 28.9737L54.9222 28.8034C54.9102 28.433 54.8676 28.3451 54.7326 28.0046C54.3347 27.0013 54.7952 26.1734 55.1672 25.2572C54.3949 25.8013 53.8286 26.1418 53.666 27.1477C53.5405 27.9234 53.8277 28.785 54.5597 29.1444C54.7313 29.1054 54.7962 29.1095 54.9073 28.9737Z" fill="#8AB262"/>
<path d="M53.9932 24.5884C54.5058 24.4176 55.1464 24.13 55.6566 23.9182C55.6038 24.8832 55.5225 24.9535 56.2826 25.5229C55.9836 26.3208 55.7254 27.1501 55.3941 27.9288C55.2183 28.3417 54.9462 28.2471 54.9222 28.8034C54.9102 28.433 54.8676 28.3451 54.7326 28.0046C54.3347 27.0013 54.7952 26.1734 55.1672 25.2572C54.3949 25.8013 53.8286 26.1418 53.666 27.1477C53.5405 27.9234 53.8277 28.785 54.5597 29.1444C54.7313 29.1054 54.7962 29.1095 54.9073 28.9737C55.2759 29.2736 55.3661 29.4619 55.616 29.8701C55.7496 29.7739 55.9633 29.4706 56.0768 29.3247C56.1179 29.708 56.1604 30.3046 56.297 30.6428C56.0855 31.0316 55.97 31.4833 55.5238 31.5688L55.5299 31.8523C55.1525 32.1476 54.9987 32.3807 54.546 32.1333C54.3044 31.7286 54.3078 31.1613 54.269 30.6799C52.6569 29.3868 53.0317 29.054 52.3739 27.3905C52.6469 25.9711 52.9319 25.594 53.9013 24.5883L53.9932 24.5884Z" fill="#462D27"/>
<path d="M55.616 29.8701C55.7496 29.7739 55.9633 29.4706 56.0768 29.3247C56.1178 29.708 56.1604 30.3046 56.297 30.6428C56.0854 31.0316 55.97 31.4833 55.5238 31.5688C55.3758 30.8579 55.351 30.5435 55.616 29.8701Z" fill="#F2F1A9"/>
<path d="M58.8461 20.7555C60.103 20.0374 61.5392 19.5242 63.0049 19.8904C63.8885 20.1112 64.9047 20.897 64.4964 21.9253C64.3924 22.1958 64.2123 22.5411 63.9957 22.7302C62.5702 22.1212 64.3732 20.0273 60.6264 21.2201C60.3691 21.2089 59.4701 20.9958 59.0125 20.9596L58.8461 20.7555Z" fill="#462D27"/>
<path d="M58.8461 20.7555L59.0125 20.9596C59.4701 20.9958 60.3691 21.2089 60.6264 21.2201C58.9754 21.6879 57.6713 22.9139 56.8525 24.3946C56.688 24.6917 56.4277 25.2907 56.2826 25.5229C55.5224 24.9535 55.6037 24.8832 55.6566 23.9182C57.0416 22.2487 56.6215 22.1157 58.8461 20.7555Z" fill="#525830"/>
<path d="M59.5619 25.7394C61.9909 23.7903 60.987 24.6495 63.6283 23.4922L64.0296 23.8333C62.0771 25.0408 59.8994 27.4925 58.3977 29.2296C58.0526 29.6289 57.3931 30.146 57.1819 30.6069C56.9843 30.9526 56.8258 31.2366 56.5919 31.5605C56.1956 31.6985 55.9777 31.7501 55.6534 32.0192L55.5299 31.8523L55.5238 31.5688C55.97 31.4833 56.0855 31.0316 56.297 30.6428C56.1604 30.3046 56.1179 29.708 56.0768 29.3247C57.0201 27.5822 58.0281 26.86 59.5619 25.7394Z" fill="#CBDB70"/>
<path d="M59.5619 25.7394L59.7188 25.9334C59.5794 26.6816 57.7851 28.289 57.2879 29.0365C56.9238 29.584 56.6311 30.0609 56.297 30.6428C56.1604 30.3046 56.1179 29.708 56.0768 29.3247C57.0201 27.5822 58.0281 26.86 59.5619 25.7394Z" fill="#F2F1A9"/>
<path d="M64.1646 23.8607C65.7781 23.383 66.013 23.68 67.1804 24.8846L67.5102 25.5438C67.6303 28.3234 67.139 29.5262 64.7249 31.0066C64.6387 30.2485 65.04 30.2658 64.8322 29.4929C66.1577 28.5803 66.3943 27.4682 66.34 25.9842C66.0836 25.5527 64.5169 23.9529 64.1646 23.8607Z" fill="#462D27"/>
<path d="M57.1819 30.6069C57.9945 31.347 56.8784 31.4794 58.5931 31.5262C59.1166 31.4976 59.8213 31.4013 60.3569 31.3432C60.3017 31.7955 60.2642 32.1419 60.1536 32.5839C59.0832 32.6731 57.2204 32.9115 56.1544 32.6576C55.9026 32.5975 55.7522 32.2533 55.6534 32.0192C55.9777 31.7501 56.1956 31.6985 56.5919 31.5605C56.8258 31.2366 56.9843 30.9526 57.1819 30.6069Z" fill="#677632"/>
<path d="M57.1819 30.6069C57.9945 31.347 56.8784 31.4794 58.5931 31.5262C58.0779 31.5954 57.1082 31.6665 56.5919 31.5605C56.8258 31.2366 56.9843 30.9526 57.1819 30.6069Z" fill="#8AB262"/>
<path d="M63.1517 30.5322C63.623 30.7447 63.548 31.0406 64.1586 31.3626L63.7036 31.7107C63.3127 31.7091 62.5729 31.9836 62.3276 32.2911C61.8784 32.1385 60.7513 32.5103 60.1536 32.5838C60.2641 32.1419 60.3016 31.7955 60.3568 31.3432C61.2711 31.2171 62.2896 30.8441 63.1517 30.5322Z" fill="#462D27"/>
<path d="M63.1518 30.5322C63.6405 30.2919 64.3556 29.8002 64.8322 29.4929C65.04 30.2658 64.6387 30.2485 64.7249 31.0066L64.1586 31.3626C63.548 31.0406 63.623 30.7447 63.1518 30.5322Z" fill="#5A463B"/>
<path d="M37.5186 45.821C37.807 45.4578 38.2263 45.3156 38.6509 45.1267C39.0079 45.2986 39.2184 45.4357 39.6139 45.4184L39.8569 45.6159C40.7177 46.0688 41.2267 46.3428 41.6311 47.277C41.4058 47.7634 41.1453 48.4341 40.9975 48.95L40.974 49.0308L40.9603 49.0794C40.8833 49.4846 40.7943 49.9456 40.6786 50.3169C40.4773 50.9628 39.4642 52.5742 39.9204 53.1426C39.9779 53.2144 40.094 53.3501 40.1647 53.4227C40.0258 53.6577 39.844 53.9418 39.7389 54.1881C39.1814 55.7853 37.3318 57.612 36.4196 59.1018C35.6621 60.3391 35.314 60.5749 34.1954 59.5323C33.0484 58.5068 31.8058 57.2812 30.9234 56.0257C30.8159 55.6692 30.6689 55.4943 30.4559 55.1914C28.9122 51.7217 28.0186 46.9957 33.0407 45.2144C34.026 44.8649 35.3941 45.1665 36.2909 45.7392C36.2248 45.9128 36.1511 46.047 36.1702 46.2284C36.6129 46.4485 36.3541 46.517 36.8962 46.5777C37.1303 46.3804 37.3361 46.1943 37.5602 45.9872L37.5186 45.821ZM31.8918 54.2098C30.7387 51.6134 31.3725 47.7161 33.9877 46.2528L34.0127 46.1618C33.53 46.1336 32.4841 46.5452 32.1119 46.8416C29.7465 48.7254 30.1621 52.9669 31.9313 55.0739L31.8918 54.2098Z" fill="#8AB262"/>
<path d="M35.3135 57.3662C35.5997 56.7185 35.5403 55.8055 35.6907 55.4197C36.0297 54.5501 38.0292 49.3836 38.4681 48.9892C39.0057 49.0531 38.7591 49.4043 39.286 49.499C40.0814 48.8975 39.2434 48.6898 40.6957 48.4197C40.7662 48.5778 40.9371 48.927 40.9603 49.0795C40.8834 49.4846 40.7943 49.9456 40.6786 50.3169C40.4773 50.9628 39.4643 52.5742 39.9204 53.1426C39.9779 53.2144 40.094 53.3501 40.1647 53.4227C40.0258 53.6577 39.844 53.9418 39.7389 54.1881C39.1814 55.7853 37.3318 57.612 36.4197 59.1018C35.6621 60.3391 35.3141 60.5749 34.1954 59.5323C34.4185 59.048 34.4568 58.9039 34.5696 58.379L34.9135 58.6371C35.162 58.5608 35.071 58.6317 35.2154 58.4492C35.0514 58.0263 35.1388 57.8715 35.2755 57.4426L35.3135 57.3662Z" fill="#F2F1A9"/>
<path d="M35.2154 58.4492C36.4399 57.193 37.8776 54.6708 38.798 53.9663C39.2803 53.9083 39.2279 53.9749 39.7389 54.1881C39.1814 55.7853 37.3318 57.612 36.4197 59.1018C35.6621 60.3391 35.3141 60.5748 34.1954 59.5323C34.4185 59.048 34.4568 58.9039 34.5696 58.379L34.9135 58.6371C35.162 58.5608 35.071 58.6317 35.2154 58.4492Z" fill="#677632"/>
<path d="M30.4559 55.1914C28.9122 51.7217 28.0186 46.9957 33.0407 45.2144C34.026 44.8649 35.3941 45.1665 36.2909 45.7392C36.2248 45.9128 36.1511 46.047 36.1702 46.2284C35.4825 46.9737 35.138 46.1788 34.0127 46.1618C33.53 46.1336 32.4841 46.5452 32.1119 46.8416C29.7465 48.7254 30.1621 52.9669 31.9313 55.0739C31.9127 55.5527 32.8131 56.5234 33.1529 56.8915C33.6205 57.3918 34.0928 57.8876 34.5696 58.379C34.4568 58.9039 34.4185 59.048 34.1954 59.5323C33.0484 58.5068 31.8058 57.2812 30.9234 56.0257C30.8159 55.6692 30.6689 55.4943 30.4559 55.1914Z" fill="#462D27"/>
<path d="M33.9877 46.2528C34.9943 47.0028 34.9473 48.7669 33.982 49.3958L33.5049 49.3864C32.957 49.9456 33.363 50.4689 33.7325 50.9815C32.7843 52.195 32.4716 52.777 31.8918 54.2098C30.7387 51.6134 31.3725 47.7161 33.9877 46.2528Z" fill="#F2F1A9"/>
<path d="M37.5186 45.821C37.807 45.4578 38.2263 45.3156 38.6509 45.1267C39.0079 45.2986 39.2184 45.4357 39.6139 45.4184L39.8569 45.6159C40.7177 46.0688 41.2267 46.3428 41.6311 47.277C41.4058 47.7634 41.1453 48.4341 40.9974 48.95L40.974 49.0308L40.9603 49.0794C40.9371 48.927 40.7662 48.5778 40.6956 48.4197C40.7898 47.2988 39.555 46.4588 38.4526 46.5333L38.1832 46.5697C37.7945 46.408 37.855 46.3683 37.5602 45.9872L37.5186 45.821Z" fill="#525830"/>
<path d="M37.5186 45.821C37.807 45.4578 38.2263 45.3156 38.6509 45.1267C39.0079 45.2986 39.2184 45.4357 39.6139 45.4184L39.8569 45.6159C39.4255 45.9842 38.9981 46.4321 38.4526 46.5333L38.1832 46.5697C37.7945 46.408 37.855 46.3683 37.5602 45.9872L37.5186 45.821Z" fill="#462D27"/>
<path d="M35.2756 57.4426C34.8364 57.5491 34.9013 57.6019 34.5249 57.4784C34.1062 56.9527 34.2931 55.634 34.7837 55.2419C35.0079 55.4085 35.2353 56.9669 35.3135 57.3662L35.2756 57.4426Z" fill="#769F50"/>
<path d="M84.578 59.2373C85.0691 58.6983 85.6192 58.3195 86.3639 58.3267C92.7154 58.3886 89.1432 66.8037 87.7744 69.5989C85.9745 73.6521 86.4021 71.8807 83.7844 70.2576C81.1007 68.7 77.9394 65.9354 78.601 62.4069C78.7999 61.3455 79.2593 60.476 80.163 59.8695C80.4649 59.667 80.8606 59.4981 81.0971 59.2301C81.7971 59.2376 82.6531 59.2842 83.3014 59.0649L83.8989 59.8147L84.578 59.2373ZM80.9429 65.8626C80.6096 64.0889 80.4097 63.0733 81.2519 61.378L82.0608 60.3468C81.4009 60.3567 81.4294 60.5458 80.9013 60.775C78.9956 61.6025 79.7326 66.1347 81.2998 66.6783L80.9429 65.8626Z" fill="#769F50"/>
<path d="M84.578 59.2373C85.0692 58.6983 85.6192 58.3195 86.3639 58.3267C92.7154 58.3886 89.1432 66.8037 87.7744 69.5989C87.3945 68.9851 87.89 68.6901 87.2911 67.8016L87.556 67.0405C87.5325 66.5885 87.0919 65.739 86.8689 65.3297C86.4005 64.5594 86.1873 63.3488 85.258 63.1108C85.4025 62.4118 84.4003 61.6684 84.5357 59.7055L84.8133 59.6025C84.7766 59.4394 84.693 59.3782 84.578 59.2373Z" fill="#8AB262"/>
<path d="M84.578 59.2373C85.0692 58.6983 85.6193 58.3195 86.3639 58.3267C92.7154 58.3886 89.1432 66.8037 87.7745 69.5989C87.3945 68.9851 87.89 68.6901 87.2911 67.8016L87.556 67.0405C88.6135 64.5468 89.7083 61.6084 87.593 59.4042C85.9748 59.4109 86.4636 59.5584 85.1145 59.902L84.8133 59.6025C84.7766 59.4394 84.693 59.3782 84.578 59.2373Z" fill="#462D27"/>
<path d="M83.3014 59.0649L83.8989 59.8147C83.7326 60.265 83.8265 60.2285 83.4901 60.4417C82.9342 60.378 82.5108 60.0769 82.0608 60.3467C81.4009 60.3567 81.4294 60.5458 80.9013 60.775C78.9956 61.6025 79.7326 66.1347 81.2998 66.6783C81.8736 67.7553 83.4681 68.4019 84.2205 69.2627L84.0799 69.664C83.9944 69.8965 83.9518 70.0778 83.7844 70.2576C81.1007 68.7 77.9394 65.9354 78.601 62.4069C78.7999 61.3455 79.2593 60.476 80.163 59.8695C80.4649 59.667 80.8606 59.4981 81.0971 59.2301C81.7971 59.2376 82.6531 59.2842 83.3014 59.0649Z" fill="#462D27"/>
<path d="M86.4612 69.5009C86.7346 68.9827 87.0993 68.3426 87.291 67.8016C87.89 68.6901 87.3945 68.9851 87.7744 69.5989C85.9745 73.6521 86.4021 71.8807 83.7844 70.2576C83.9519 70.0778 83.9944 69.8965 84.0799 69.664L84.2205 69.2627C84.8708 69.276 84.9163 70.0966 85.7946 69.9458C86.11 70.0394 85.9936 69.9699 86.2274 70.2673L86.4612 69.5009Z" fill="#525830"/>
<path d="M84.2205 69.2627C84.8708 69.276 84.9163 70.0966 85.7946 69.9458C86.11 70.0394 85.9936 69.9699 86.2274 70.2673C85.6465 70.7443 84.4543 70.1587 84.0799 69.664L84.2205 69.2627Z" fill="#BDCBA5"/>
<path d="M85.258 63.1108C86.1874 63.3488 86.4006 64.5594 86.8689 65.3297C87.0919 65.739 87.5325 66.5885 87.556 67.0405L87.2911 67.8016C87.0994 68.3426 86.7347 68.9827 86.4612 69.5009L86.2274 70.2673C85.9937 69.9699 86.11 70.0394 85.7946 69.9458C85.8692 69.8096 86.1158 69.344 86.1029 69.2139C85.9554 67.7229 85.8428 66.0775 85.6238 64.6087C85.557 64.1608 85.3545 63.6484 85.258 63.1108Z" fill="#CBDB70"/>
<path d="M86.4612 69.5009C86.0749 68.8465 86.4088 65.8763 86.8689 65.3297C87.0919 65.739 87.5325 66.5885 87.556 67.0405L87.2911 67.8016C87.0994 68.3426 86.7346 68.9827 86.4612 69.5009Z" fill="#F2F1A9"/>
<path d="M81.2519 61.378C82.2854 62.871 81.1393 62.7992 81.2658 64.4022C81.3047 64.8955 81.9057 65.5956 81.548 65.848L80.9429 65.8626C80.6096 64.0889 80.4097 63.0733 81.2519 61.378Z" fill="#F2F1A9"/>
<path d="M21.0632 65.7269C20.3014 62.3692 20.47 55.8621 24.7199 54.595C25.1378 54.4704 25.9614 54.4571 26.3487 54.6875C27.1321 55.0034 27.9176 55.2517 28.2782 56.0799C28.3554 56.2564 28.4221 56.4376 28.4778 56.622L28.7965 56.7415C29.0814 56.8405 29.1112 56.8644 29.3285 57.0745L29.54 57.3861C29.7857 57.8281 30.1131 57.8913 30.4756 58.1962C32.5476 59.2655 31.5443 62.0528 30.4234 63.4938L30.109 63.7846C28.4439 64.9541 26.6571 65.6141 25.0426 66.8098C24.6519 67.099 23.4299 69.2278 23.2559 69.1506C22.7919 68.9444 21.7947 67.6905 21.5601 67.2283C21.3251 66.643 21.2259 66.3315 21.0632 65.7269ZM26.1592 55.8446L25.974 55.6478C22.6129 55.1212 21.6419 61.042 21.9813 63.3455C22.6579 60.3506 23.1481 57.3377 26.1592 55.8446Z" fill="#8AB262"/>
<path d="M29.3285 57.0745L29.54 57.3861C29.7857 57.8281 30.1131 57.8913 30.4756 58.1962C32.5475 59.2655 31.5442 62.0529 30.4234 63.4938L30.109 63.7846C28.4439 64.9541 26.6571 65.6141 25.0426 66.8098C24.6519 67.099 23.4299 69.2278 23.2559 69.1506C22.7919 68.9444 21.7947 67.6905 21.5601 67.2283L22.7139 67.163L22.8404 67.1983C22.8241 67.0441 24.3198 63.5817 24.5316 63.1222C25.0755 61.942 26.6273 60.4131 26.8392 59.0462L27.3087 58.3629C27.8332 57.9935 28.7794 57.2322 29.3285 57.0745Z" fill="#462D27"/>
<path d="M22.8404 67.1983C22.8241 67.0441 24.3198 63.5817 24.5316 63.1222C25.0755 61.942 26.6273 60.4131 26.8392 59.0462C27.5173 59.5459 27.4661 60.4015 28.0213 61.2931L28.2848 61.4064C28.4119 61.9532 28.5356 62.6921 28.8244 63.1502L28.8507 63.1926C27.4919 64.1269 26.0174 64.695 24.6175 65.6464C24.1874 66.0473 23.2695 67.1115 22.8404 67.1983Z" fill="#CBDB70"/>
<path d="M28.0213 61.2931L28.2848 61.4064C28.4119 61.9532 28.5356 62.6921 28.8244 63.1502L28.8507 63.1926C27.4919 64.1269 26.0174 64.695 24.6175 65.6464C24.4164 64.9354 27.4289 61.8358 28.0213 61.2931Z" fill="#F2F1A9"/>
<path d="M29.3285 57.0745L29.5401 57.3861C29.7858 57.8281 30.1132 57.8913 30.4757 58.1962C30.0496 58.4538 30.0568 58.3546 29.9216 58.7319C30.0692 59.5406 30.35 59.6787 30.5329 60.5941C30.1441 61.9405 29.9611 62.234 28.8507 63.1926L28.8244 63.1502C28.5357 62.6921 28.412 61.9532 28.2848 61.4064L28.0213 61.2931C27.4661 60.4015 27.5173 59.5459 26.8392 59.0462L27.3087 58.3629C27.8333 57.9935 28.7795 57.2322 29.3285 57.0745Z" fill="#CBDB70"/>
<path d="M27.3087 58.3629C28.6928 59.5385 27.7651 60.1898 28.2848 61.4064L28.0213 61.2932C27.4661 60.4015 27.5173 59.5459 26.8392 59.0462L27.3087 58.3629Z" fill="#F2F1A9"/>
<path d="M21.0632 65.7269C20.3014 62.3692 20.47 55.8621 24.7199 54.595C25.1378 54.4704 25.9614 54.4571 26.3487 54.6875C25.9995 55.0563 26.1413 55.1129 25.974 55.6478C22.6129 55.1212 21.6419 61.042 21.9813 63.3455C21.9604 63.726 21.9128 64.2142 21.9802 64.5788C21.5748 64.9327 21.2283 65.197 21.0632 65.7269Z" fill="#462D27"/>
<path d="M25.9739 55.6478C26.1413 55.1129 25.9994 55.0563 26.3487 54.6875C27.1321 55.0034 27.9176 55.2517 28.2782 56.0799C28.3554 56.2564 28.422 56.4376 28.4778 56.622C27.5896 57.3531 27.1033 56.2721 26.1592 55.8446L25.9739 55.6478Z" fill="#463C2B"/>
<path d="M21.9802 64.5788C22.217 65.733 22.3319 66.0596 22.7139 67.163L21.5601 67.2283C21.3251 66.643 21.2259 66.3315 21.0632 65.7269C21.2283 65.197 21.5748 64.9327 21.9802 64.5788Z" fill="#525830"/>
<path d="M45.9721 20.6105C45.8581 20.7087 45.3422 21.1928 45.2493 21.1402C44.4225 20.6717 41.2955 18.7457 40.9732 18.076C41.5742 16.9488 45.5339 15.2602 46.7791 14.9063C49.0101 14.2723 51.7937 14.009 53.9213 15.111C56.496 16.351 57.1283 20.2863 54.4106 21.6984L54.0741 22.1591C53.6458 22.0029 53.7563 21.9694 53.3923 22.0881L53.0947 22.4154L52.897 22.6426L52.3785 22.7117C50.9578 21.9491 50.4998 23.0233 49.2329 22.4415C48.986 22.2879 48.5963 22.1591 48.2729 21.9631C47.4695 21.4762 46.8764 20.8827 45.9721 20.6105ZM43.7798 18.7195C44.5924 17.5623 47.9079 16.6615 49.2854 16.5186C50.8475 16.3567 52.7071 16.4572 53.939 17.547C54.3043 17.8701 54.6052 18.1928 54.9943 18.505C55.0407 18.1485 54.9015 17.9779 54.7255 17.6572C52.2728 13.1873 45.7503 16.4325 42.7283 18.0654L43.7798 18.7195Z" fill="#8AB262"/>
<path d="M45.9721 20.6105C45.8581 20.7087 45.3422 21.1928 45.2493 21.1402C44.4225 20.6717 41.2955 18.7457 40.9732 18.076C41.5742 16.9488 45.5339 15.2602 46.7791 14.9063C49.0101 14.2723 51.7937 14.009 53.9213 15.111C56.496 16.351 57.1283 20.2863 54.4106 21.6984L53.8017 20.9948C54.481 20.1654 54.8959 19.5801 54.9943 18.505C55.0407 18.1485 54.9015 17.9779 54.7255 17.6572C52.2728 13.1873 45.7503 16.4325 42.7283 18.0654L43.7798 18.7195C44.3702 19.1504 45.361 19.7826 45.6662 20.4332L45.9721 20.6105Z" fill="#462D27"/>
<path d="M48.7205 19.5157C49.3101 19.3604 50.0568 19.1431 50.6391 19.0289C51.097 19.4531 51.7876 20.0552 52.1572 20.5221C52.2509 20.6732 52.7314 21.476 52.8326 21.5663C52.919 21.8229 53.0446 22.1563 53.0947 22.4154L52.897 22.6426L52.3786 22.7117C50.9578 21.9491 50.4998 23.0233 49.2329 22.4415C48.9861 22.2879 48.5963 22.1591 48.2729 21.9631C47.4696 21.4762 46.8764 20.8827 45.9721 20.6105L45.6663 20.4332C46.1887 20.1476 48.112 19.6306 48.7205 19.5157Z" fill="#F2F1A9"/>
<path d="M48.7205 19.5157C49.3101 19.3604 50.0568 19.1431 50.639 19.0289C51.0969 19.4531 51.7876 20.0552 52.1572 20.5221C51.8379 22.2449 49.5952 20.4972 48.8499 20.0781C48.8153 19.8346 48.793 19.7515 48.7205 19.5157Z" fill="#F2F1A9"/>
<path d="M52.8325 21.5663C53.0546 21.1461 53.3306 21.1557 53.8016 20.9948L54.4106 21.6984L54.074 22.1591C53.6458 22.0029 53.7563 21.9694 53.3923 22.0881L53.0947 22.4154C53.0446 22.1563 52.9189 21.8229 52.8325 21.5663Z" fill="#769F50"/>
<path d="M34.799 68.1534C38.1801 66.3447 39.7743 68.2244 40.7376 71.3717C40.7541 72.6359 40.7466 73.2222 40.4839 74.4519L40.2258 75.616C39.9193 76.7595 39.0092 81.8359 37.7429 81.6705C37.2867 81.3583 36.5021 80.4237 36.3809 79.8657C36.1669 79.618 36.0229 79.5435 35.753 79.3728C35.9241 79.1503 36.0078 78.9902 36.1431 78.749C35.7972 78.363 34.7807 77.5238 34.3476 77.1478C33.7324 76.7161 33.5113 76.5685 33.0001 76.0075L32.7621 75.5001C32.7449 75.4843 32.7278 75.4686 32.7106 75.4527C31.1342 73.5054 30.8769 71.4678 32.6377 69.7613C32.8098 69.6931 33.197 69.29 33.3557 69.1374L33.9116 69.2561L34.0112 69.5368C34.1382 69.4685 34.3757 69.2567 34.4985 69.1548C34.5583 68.7791 34.5745 68.4583 34.799 68.1534Z" fill="#8AB262"/>
<path d="M33.3557 69.1374L33.9116 69.2561L34.0112 69.5368C34.1704 69.7772 34.3338 70.0786 34.385 70.3622C34.6865 72.0326 35.4149 73.4879 35.9438 75.0605C35.6863 74.9655 34.7798 74.8684 34.3261 74.7564L34.0511 75.1042L33.8041 74.8391C33.5365 74.9826 32.9158 75.2799 32.7621 75.5001C32.7449 75.4843 32.7278 75.4686 32.7106 75.4527C31.1342 73.5054 30.8769 71.4678 32.6377 69.7613C32.8098 69.6931 33.197 69.29 33.3557 69.1374Z" fill="#CBDB70"/>
<path d="M33.8041 74.8391C33.8437 74.3467 33.769 74.3548 34.0134 73.9996C34.2527 74.173 34.2344 74.1879 34.2979 74.5608C34.3083 74.6258 34.3178 74.691 34.3262 74.7564L34.0512 75.1042L33.8041 74.8391Z" fill="#F2F1A9"/>
<path d="M34.7991 68.1534C38.1801 66.3447 39.7743 68.2244 40.7376 71.3717C40.7541 72.6359 40.7467 73.2222 40.4839 74.4519L40.2259 75.616C40.0249 75.5042 39.909 75.4278 39.7205 75.2958C39.7023 75.0239 39.6982 74.8367 39.706 74.5642L39.3424 74.2019C39.3892 73.7415 39.4725 73.2711 39.5245 72.806C39.8098 70.255 37.8783 66.9462 35.1706 69.4535C34.7915 69.4829 34.885 69.4523 34.4985 69.1548C34.5584 68.7791 34.5745 68.4583 34.7991 68.1534Z" fill="#463C2B"/>
<path d="M40.7377 71.3717C40.7541 72.6359 40.7467 73.2222 40.4839 74.4519C40.4451 74.3405 40.1711 74.1118 40.0404 73.9533C40.0771 73.3628 40.1095 72.7638 40.1644 72.1746C40.2435 71.3266 40.3128 71.9215 40.7377 71.3717Z" fill="#462D27"/>
<path d="M39.3424 74.2019L39.706 74.5642C39.6982 74.8367 39.7023 75.0239 39.7205 75.2958C39.909 75.4278 40.0249 75.5042 40.2259 75.616C39.9194 76.7595 39.0093 81.8359 37.7429 81.6705C37.2867 81.3583 36.5022 80.4237 36.3809 79.8657C36.789 79.5477 36.6604 79.5514 37.1064 79.5287C37.3471 79.6572 37.5918 79.7917 37.8346 79.915C38.194 79.2109 39.0905 75.2148 39.3424 74.2019Z" fill="#462D27"/>
<path d="M32.7621 75.5001C32.9158 75.2799 33.5365 74.9826 33.8041 74.8391L34.0512 75.1042L34.3261 74.7564C34.7798 74.8684 35.6863 74.9655 35.9438 75.0605C36.1776 75.5399 36.5834 76.3045 36.7097 76.7949C36.7817 77.3007 36.9895 78.1965 36.8149 78.6119C36.6488 78.7375 36.343 78.7635 36.1431 78.749C35.7972 78.363 34.7807 77.5238 34.3476 77.1478C33.7324 76.7161 33.5113 76.5685 33.0001 76.0075L32.7621 75.5001Z" fill="#F2F1A9"/>
<path d="M32.7621 75.5001C32.9158 75.2799 33.5365 74.9826 33.8041 74.8391L34.0512 75.1042C34.166 75.5635 34.4276 76.7054 34.3476 77.1478C33.7324 76.7161 33.5113 76.5685 33.0001 76.0075L32.7621 75.5001Z" fill="#CBDB70"/>
<path d="M36.7097 76.7949C37.0495 77.6562 37.3609 78.7316 37.8475 79.495L37.8347 79.915C37.5919 79.7917 37.3472 79.6572 37.1065 79.5287C36.6604 79.5514 36.7891 79.5477 36.3809 79.8657C36.167 79.618 36.0229 79.5435 35.7531 79.3728C35.9242 79.1503 36.0079 78.9902 36.1431 78.749C36.343 78.7635 36.6488 78.7375 36.8149 78.6119C36.9896 78.1965 36.7817 77.3007 36.7097 76.7949Z" fill="#F2F1A9"/>
<path d="M85.8016 46.4523C85.538 45.1645 86.5168 44.5297 87.6742 44.3272C88.5884 44.1618 89.5306 44.3732 90.2866 44.9132C92.8316 46.7588 91.691 51.6863 90.9116 54.2419C90.3607 54.6156 90.0924 54.7781 89.6337 55.2783C89.1329 54.8398 88.3892 54.2387 88.0819 53.6599C87.619 53.3056 87.4692 53.1985 86.9484 52.9469C86.8734 52.9213 86.7989 52.8939 86.7252 52.8647C84.0336 51.7999 82.0402 50.0322 83.3494 46.9903L83.4139 46.8523C83.7207 46.8308 83.9093 46.6827 84.1783 46.5235C84.5089 46.5248 84.7641 46.6384 85.0726 46.7496C85.3777 46.6763 85.556 46.6572 85.8016 46.4523Z" fill="#769F50"/>
<path d="M85.8016 46.4523C85.538 45.1645 86.5168 44.5297 87.6743 44.3272C88.5884 44.1618 89.5307 44.3732 90.2866 44.9132C92.8317 46.7588 91.691 51.6863 90.9116 54.2419C90.3607 54.6156 90.0924 54.7781 89.6338 55.2783C89.1329 54.8398 88.3892 54.2387 88.082 53.6599C88.5378 52.3797 89.1007 53.5437 89.8107 53.5211C90.1207 53.2459 90.0333 53.2647 90.1395 52.7728C90.1949 52.5986 90.233 52.0246 90.2766 51.7606C90.5161 50.3085 91.0162 48.1631 90.3261 46.7964C89.8417 45.8369 89.2381 45.6976 88.3079 45.4197C86.7193 45.7343 86.7527 46.4923 85.8016 46.4523Z" fill="#462D27"/>
<path d="M84.1783 46.5235C84.5089 46.5248 84.7641 46.6384 85.0726 46.7496C84.9087 47.2367 84.8714 47.3255 84.5879 47.7524C84.2014 48.7685 84.577 49.4483 84.9783 50.4292C85.3783 50.7507 86.8102 51.7783 87.2221 51.914C87.4449 52.2935 87.4992 52.2381 87.4371 52.578L86.9484 52.9469C86.8734 52.9213 86.7989 52.8939 86.7252 52.8647C84.0336 51.7999 82.0402 50.0322 83.3494 46.9903L83.4139 46.8523C83.7207 46.8308 83.9093 46.6827 84.1783 46.5235Z" fill="#462D27"/>
<path d="M84.1783 46.5235C84.5088 46.5248 84.7641 46.6384 85.0726 46.7496C84.9087 47.2367 84.8714 47.3255 84.5879 47.7524C83.7543 47.6499 83.9345 47.3422 83.3494 46.9903L83.4139 46.8523C83.7206 46.8308 83.9093 46.6827 84.1783 46.5235Z" fill="#525830"/>
<path d="M87.2221 51.914C87.5979 51.6948 87.715 51.5955 88.1468 51.6422C88.6338 51.8554 88.7539 52.4547 89.3046 52.714C89.3788 52.7488 89.9314 52.7071 90.1395 52.7728C90.0333 53.2647 90.1207 53.2459 89.8106 53.5211C89.1007 53.5437 88.5378 52.3797 88.0819 53.6599C87.619 53.3056 87.4692 53.1985 86.9484 52.9469L87.4371 52.5781C87.4992 52.2381 87.4449 52.2935 87.2221 51.914Z" fill="#BDCBA5"/>
<path d="M58.0144 68.8483C58.6432 67.7112 59.2252 66.2423 60.9267 66.3011C61.4422 66.319 61.7506 66.504 62.1137 66.8606C62.3102 67.0246 62.3633 67.0997 62.605 67.1468L62.8445 66.6515C63.5457 67.1955 63.6926 66.7963 63.8187 67.1663L63.7428 67.57C63.9595 67.7937 64.0416 67.791 64.3533 67.8485C65.6129 66.9993 65.5883 67.7847 66.5945 68.1697C66.9909 69.0361 67.4391 70.1138 67.1956 71.0757C66.4446 74.0428 62.7334 75.3721 60.4308 76.9373C60.2762 77.0424 59.9556 77.0883 59.7855 77.072C59.2464 76.5595 59.6373 76.0024 59.8977 75.3912C59.7649 74.6642 59.6698 74.2189 59.4598 73.5324C59.1305 72.4567 57.9109 69.8695 58.0144 68.8483Z" fill="#462D27"/>
<path d="M62.8445 66.6515C63.5458 67.1955 63.6926 66.7963 63.8188 67.1663L63.7428 67.57C63.6884 67.7437 63.6217 68.0048 63.5342 68.1537C63.3716 69.2307 63.5034 69.6893 63.1387 70.7716L63.351 70.6336C63.7074 70.7273 63.8539 70.9279 64.1874 70.8943C63.757 71.1695 63.8483 71.0309 63.6511 71.4637C63.67 71.6207 63.6917 71.8645 63.7281 72.009C63.4778 72.5572 63.22 72.8728 62.8653 73.3494C62.6259 73.7046 62.5438 73.7836 62.557 74.214C62.2349 74.4829 61.3012 75.007 60.906 75.1355C60.9043 72.7485 59.8755 71.8248 59.3344 69.9066C59.7194 69.4507 60.254 68.3142 60.069 67.7178C61.0298 67.1556 61.507 67.9675 62.1138 66.8606C62.3103 67.0247 62.3634 67.0997 62.6051 67.1468L62.8445 66.6515Z" fill="#769F50"/>
<path d="M63.1386 70.7716L63.3509 70.6336C63.7074 70.7273 63.8539 70.9279 64.1874 70.8943C63.757 71.1695 63.8482 71.0309 63.6511 71.4637C63.67 71.6207 63.6917 71.8645 63.7281 72.009C63.4777 72.5572 63.22 72.8728 62.8653 73.3494C62.7501 72.955 62.6702 72.9064 62.3672 72.6355C62.2827 71.8395 62.5608 71.709 62.9818 70.963L63.1386 70.7716Z" fill="#F2F1A9"/>
<path d="M62.3672 72.6355C62.6702 72.9065 62.7501 72.955 62.8653 73.3494C62.6259 73.7046 62.5438 73.7836 62.5569 74.214C62.2349 74.4829 61.3012 75.007 60.9059 75.1355C60.9219 74.6394 61.4939 74.0811 61.8447 73.7097C62.2431 73.3787 62.2778 73.1174 62.3672 72.6355Z" fill="#CBDB70"/>
<path d="M61.8447 73.7097C62.3344 72.4329 62.0937 72.6144 61.972 71.2745C61.9461 70.9895 62.0328 70.9373 62.1876 70.7766C62.5176 70.7428 62.6727 70.8389 62.9818 70.963C62.5608 71.709 62.2827 71.8395 62.3672 72.6355C62.2778 73.1174 62.2431 73.3787 61.8447 73.7097Z" fill="#8AB262"/>
<path d="M62.8445 66.6515C63.5458 67.1955 63.6926 66.7963 63.8187 67.1663L63.7428 67.57C63.6884 67.7437 63.6217 68.0048 63.5342 68.1537C62.9928 67.9081 62.6918 67.7585 62.605 67.1468L62.8445 66.6515Z" fill="#677632"/>
<path d="M63.5342 68.1537C63.6217 68.0048 63.6883 67.7437 63.7428 67.5701C63.9595 67.7937 64.0416 67.791 64.3533 67.8485C64.6143 68.615 65.2039 68.6771 65.8279 69.2278C65.9859 69.8396 66.1104 70.1777 66.0188 70.8136C65.0392 70.4527 65.4089 70.7369 64.67 71.0953L64.1873 70.8943C63.8539 70.9279 63.7074 70.7273 63.3509 70.6336L63.1386 70.7716C63.5033 69.6893 63.3715 69.2307 63.5342 68.1537Z" fill="#CBDB70"/>
<path d="M64.6701 71.0953C65.4089 70.7369 65.0392 70.4527 66.0188 70.8136C65.6729 71.7544 65.4399 72.1472 64.674 72.8289L64.2934 73.1063C64.2536 72.4098 64.3532 72.3064 63.7281 72.009C63.6917 71.8645 63.67 71.6207 63.6511 71.4637C63.8482 71.0309 63.7569 71.1695 64.1873 70.8943L64.6701 71.0953Z" fill="#F2F1A9"/>
<path d="M64.1873 70.8943L64.6701 71.0952C64.9735 71.7542 64.3097 71.9924 64.674 72.8289L64.2934 73.1063C64.2536 72.4098 64.3532 72.3064 63.7281 72.009C63.6917 71.8645 63.67 71.6207 63.6511 71.4637C63.8482 71.0309 63.7569 71.1695 64.1873 70.8943Z" fill="#F2F1A9"/>
<path d="M63.7281 72.009C64.3532 72.3064 64.2536 72.4098 64.2934 73.1063C63.5993 73.6332 63.3418 73.8424 62.5569 74.214C62.5438 73.7836 62.6259 73.7046 62.8653 73.3494C63.22 72.8728 63.4777 72.5572 63.7281 72.009Z" fill="#FBF8F1"/>
<path d="M60.069 67.7178C60.254 68.3142 59.7194 69.4507 59.3344 69.9066C59.1415 68.9874 59.3944 68.3531 60.069 67.7178Z" fill="#BDCBA5"/>
<path d="M26.1711 45.4525C25.715 45.8337 25.2027 46.364 24.6238 46.3793C23.4359 45.6469 24.3989 42.145 24.8086 41.078C25.8482 38.3175 28.2012 36.0667 31.3231 37.3431C32.3367 37.7575 33.02 38.5698 32.5129 39.652C32.6316 39.8732 32.7451 40.0859 32.8729 40.3027L33.4607 40.5817L33.7736 40.8739C34.7769 43.1284 32.3488 44.5104 30.4028 44.7522C29.3602 44.8745 27.0659 45.0849 26.1711 45.4525ZM26.1237 41.2717C25.9041 41.7095 25.8133 42.0314 25.8172 42.5318C25.6208 43.1252 25.3948 43.7377 25.4691 44.3674C25.5161 44.4218 25.6327 44.5655 25.6817 44.6015C25.8919 44.3571 25.9438 44.3324 26.2266 44.1739C26.1452 43.3369 26.1471 43.1182 26.4228 42.3167C26.5584 42.2155 26.66 41.9213 26.7345 41.7531C27.4126 40.4874 27.7465 40.067 28.7306 39.0125C29.2234 38.7237 29.7 38.5288 29.9387 38.0591C28.907 38.0926 28.5913 38.2748 27.7431 38.8973C26.943 39.5833 26.4338 40.2198 26.1237 41.2717Z" fill="#8AB262"/>
<path d="M27.7431 38.8973C28.0663 39.1906 27.932 39.1519 28.27 39.1565L28.6372 38.9411L28.7306 39.0125C27.7466 40.067 27.4126 40.4874 26.7345 41.7531C26.7847 41.442 26.86 41.1739 26.7339 40.8842L26.5234 40.8967C26.383 41.0733 26.3507 41.1072 26.1668 41.2411L26.1237 41.2717C26.4338 40.2198 26.943 39.5833 27.7431 38.8973Z" fill="#FBF8F1"/>
<path d="M25.8172 42.5318C25.9423 42.2181 25.9962 41.967 26.2671 41.788C26.4484 41.9581 26.396 42.0113 26.4228 42.3167C26.147 43.1182 26.1452 43.3369 26.2265 44.1739C25.9438 44.3324 25.8919 44.3571 25.6817 44.6015C25.6327 44.5655 25.516 44.4218 25.4691 44.3674C25.3948 43.7377 25.6208 43.1252 25.8172 42.5318Z" fill="#FBF8F1"/>
<path d="M29.9387 38.0591C29.7 38.5288 29.2234 38.7237 28.7306 39.0125L28.6372 38.9411L28.27 39.1566C27.932 39.1519 28.0663 39.1906 27.7431 38.8973C28.5913 38.2748 28.907 38.0926 29.9387 38.0591Z" fill="#FBF8F1"/>
<path d="M26.1237 41.2717L26.1668 41.2411C26.3507 41.1072 26.383 41.0733 26.5234 40.8967L26.7339 40.8842C26.86 41.1739 26.7846 41.442 26.7344 41.7531C26.66 41.9213 26.5584 42.2155 26.4228 42.3167C26.396 42.0113 26.4484 41.9581 26.2671 41.788C25.9962 41.967 25.9423 42.2181 25.8172 42.5318C25.8133 42.0314 25.904 41.7095 26.1237 41.2717Z" fill="#FBF8F1"/>
<path d="M26.1711 45.4525C25.715 45.8337 25.2027 46.364 24.6238 46.3793C23.4359 45.6469 24.3989 42.145 24.8086 41.078C25.8482 38.3175 28.2012 36.0667 31.3231 37.3431C32.3367 37.7575 33.02 38.5698 32.5129 39.652C31.729 39.5417 30.7819 37.9039 29.9387 38.0591C28.907 38.0926 28.5913 38.2748 27.7431 38.8973C26.943 39.5833 26.4338 40.2198 26.1237 41.2717C25.9041 41.7095 25.8133 42.0314 25.8172 42.5318C25.6208 43.1252 25.3948 43.7377 25.4691 44.3674C25.5161 44.4218 25.6327 44.5655 25.6817 44.6015C25.8924 44.9219 26.0143 45.0995 26.1711 45.4525Z" fill="#462D27"/>
<path d="M32.8729 40.3027L33.4607 40.5817L33.7736 40.8739C34.7769 43.1284 32.3488 44.5104 30.4028 44.7522C30.521 44.2732 30.5172 44.2057 30.4525 43.715C32.7789 43.2793 32.3827 42.1167 32.8489 40.3894L32.8729 40.3027Z" fill="#462D27"/>
<path d="M26.2265 44.1739C26.4685 44.2083 29.8254 43.7471 30.4524 43.715C30.5171 44.2057 30.5209 44.2732 30.4028 44.7522C29.3602 44.8745 27.0658 45.0849 26.1711 45.4525C26.0142 45.0995 25.8923 44.9219 25.6817 44.6015C25.8919 44.3571 25.9438 44.3324 26.2265 44.1739Z" fill="#677632"/>
<path d="M78.0723 44.6534C78.3968 45.0666 78.4352 45.1299 78.6048 45.6264C79.4427 45.85 78.8428 46.2495 79.7813 46.1146C80.0745 47.4653 80.3119 48.8058 80.5172 50.1725C80.5017 50.0695 82.0873 51.1576 82.3257 51.3829C82.7933 52.978 82.5601 53.7482 81.7551 55.2223C81.5792 55.5425 81.3968 55.8592 81.2082 56.1722C80.9132 56.5043 80.735 56.6564 80.7447 57.1287C80.5999 57.2021 80.4079 57.3241 80.2405 57.2197C78.5207 56.1463 75.2744 54.4264 75.9595 51.9362C76.1929 51.0877 76.8793 50.7724 77.578 50.4284C76.0928 48.9919 77.0029 46.1149 78.0723 44.6534ZM78.5628 50.5001C78.5612 50.9367 78.5059 51.0337 78.3458 51.4343L78.4376 51.4379C79.2548 51.4759 79.5568 51.8738 80.1211 51.4288C79.9901 51.181 79.7235 50.6045 79.5801 50.3998C79.0175 49.5973 78.9672 46.2096 78.6011 45.7732C77.623 47.8953 77.7762 48.4416 78.5628 50.5001Z" fill="#677632"/>
<path d="M80.1211 51.4288C80.7696 51.0343 81.6131 52.021 81.4455 52.6659C81.2561 53.3943 80.8767 55.671 79.7151 55.3318C78.0492 54.8451 76.4203 52.8068 78.3458 51.4343L78.4375 51.4379C79.2548 51.4759 79.5568 51.8738 80.1211 51.4288Z" fill="#769F50"/>
<path d="M78.0723 44.6534C78.3968 45.0666 78.4352 45.1299 78.6048 45.6264L78.6011 45.7732C77.623 47.8953 77.7762 48.4416 78.5628 50.5001C78.1551 50.4999 77.9822 50.5056 77.578 50.4284C76.0928 48.9919 77.0029 46.1149 78.0723 44.6534Z" fill="#677632"/>
<path d="M71.6744 22.8226C73.0236 21.1267 75.0636 20.8767 76.9006 21.9102C77.2032 21.9142 77.6593 21.85 77.8777 22.1402C78.8556 23.439 79.004 26.5237 78.1244 27.8915C77.8066 28.3858 76.7509 27.5165 76.3817 27.2421C75.8029 27.1411 75.406 27.0959 74.8254 27.0469H73.2552C72.9082 27.0328 72.1552 26.9714 71.8554 27.0537C71.7589 27.0103 71.3487 26.9024 71.2225 26.8663C69.8063 26.4255 69.5691 25.8802 69.3782 24.5037C69.4252 24.2055 69.4669 23.9065 69.5033 23.6069C69.7659 23.5195 70.1847 23.2676 70.4406 23.1244L70.4721 22.8675C70.847 22.7844 71.0686 22.6748 71.4175 22.5207L71.6744 22.8226Z" fill="#8AB262"/>
<path d="M69.5033 23.6069C69.7659 23.5195 70.1847 23.2676 70.4406 23.1244C70.7114 23.4752 71.101 24.3295 71.0477 24.7803C71.6217 25.5997 73.1167 25.9464 74.0744 25.9292C74.6834 25.7117 75.4642 25.9238 76.0951 26.0518L76.3817 27.2421C75.8029 27.1411 75.406 27.0959 74.8254 27.0469H73.2552C72.9082 27.0328 72.1552 26.9714 71.8554 27.0537C71.7589 27.0103 71.3487 26.9024 71.2225 26.8663C69.8063 26.4255 69.5691 25.8802 69.3782 24.5037C69.4252 24.2055 69.4669 23.9065 69.5033 23.6069Z" fill="#462D27"/>
<path d="M74.0744 25.9292C74.6834 25.7117 75.4642 25.9238 76.0951 26.0518L76.3817 27.2421C75.8029 27.1411 75.406 27.0959 74.8254 27.0469H73.2552C72.8959 26.8948 72.9091 26.9737 72.7871 26.681L72.9864 26.232L73.0337 26.1518C73.3791 26.0709 73.726 25.9968 74.0744 25.9292Z" fill="#462D27"/>
<path d="M72.9864 26.232C73.5884 26.2084 74.8695 26.1091 74.8254 27.0469H73.2552C72.8959 26.8948 72.9091 26.9737 72.7871 26.681L72.9864 26.232Z" fill="#525830"/>
<path d="M76.9006 21.9102C77.2031 21.9142 77.6593 21.85 77.8777 22.1402C78.8556 23.439 79.004 26.5237 78.1244 27.8915C77.8065 28.3858 76.7509 27.5165 76.3816 27.2421L76.0951 26.0518C76.1756 26.0476 76.976 26.2331 77.2147 26.2652C78.044 25.7962 76.7032 22.5703 76.9006 21.9102Z" fill="#677632"/>
<path d="M71.4176 22.5207L71.6744 22.8226C71.4964 23.3009 71.074 24.3269 71.0477 24.7803C71.1011 24.3295 70.7114 23.4752 70.4407 23.1244L70.4722 22.8675C70.847 22.7844 71.0687 22.6748 71.4176 22.5207Z" fill="#769F50"/>
<path d="M41.684 37.8873C42.2039 37.3447 43.6974 36.1781 44.3496 37.0396C44.2113 37.4581 44.2208 37.3562 43.849 37.686C43.5475 37.8552 43.136 38.0704 42.866 38.269C42.1553 40.8359 43.6375 52.4613 44.1964 55.4276C44.4298 56.6666 45.0631 58.7542 45.3314 60.0599C45.4187 60.4843 45.3897 60.6851 45.082 60.986C44.5022 61.0592 44.2966 60.7396 43.9164 60.3326C39.9167 63.1805 43.691 64.6443 43.2524 66.1282C42.6729 66.5105 41.6341 65.3837 41.3924 64.9021C40.2157 62.5575 41.4341 59.9391 43.8962 59.2856C43.2539 57.0292 42.2807 52.2471 42.2421 49.9014C41.6116 51.1895 41.3049 52.648 40.1648 53.4227C40.0941 53.3501 39.9779 53.2144 39.9204 53.1426C39.4643 52.5742 40.4774 50.9628 40.6786 50.3169C40.7943 49.9456 40.8834 49.4846 40.9603 49.0794L40.974 49.0308L40.9975 48.95C41.1453 48.4341 41.4058 47.7634 41.6312 47.277L41.6482 47.3165L41.7286 47.3335C41.8569 46.6257 41.6407 45.7922 41.6574 45.1026C41.7131 42.8052 41.4308 40.1386 41.684 37.8873Z" fill="#462D27"/>
<path d="M36.9396 91.1743C36.4502 89.3513 38.8308 89.34 39.858 90.1141C41.2199 91.1404 41.267 92.281 41.2379 93.8178C41.2322 94.8924 41.3548 96.6011 40.6714 97.405C39.8734 97.7504 35.759 95.7472 35.047 95.0492C33.4863 93.9668 33.567 92.131 34.9269 90.898C35.3749 90.881 35.6902 90.8855 36.1383 90.9102L36.2772 91.3189C36.476 91.3398 36.6765 91.3688 36.8751 91.3672L36.9396 91.1743Z" fill="#8AB262"/>
<path d="M36.9396 91.1743C36.4502 89.3513 38.8308 89.34 39.858 90.1141C41.2199 91.1404 41.267 92.281 41.238 93.8178C40.7722 93.6693 40.5902 93.6296 40.197 93.345C40.1416 93.7313 40.0815 94.1169 40.0167 94.5018C39.3665 93.6648 37.9394 92.3289 37.1087 91.6395C37.0775 91.5684 36.9368 91.433 36.8751 91.3672L36.9396 91.1743Z" fill="#462D27"/>
<path d="M38.5455 90.5414C39.6027 91.2641 39.9359 91.8618 40.1653 93.1352C40.1781 93.2048 40.1887 93.2747 40.197 93.345C40.1416 93.7313 40.0815 94.1169 40.0167 94.5018C39.3665 93.6648 37.9394 92.3289 37.1087 91.6395C37.0775 91.5684 36.9368 91.433 36.8751 91.3672L36.9396 91.1743C37.7177 91.0722 37.8922 90.9654 38.5455 90.5414Z" fill="#8AB262"/>
<path d="M40.197 93.345C40.5902 93.6296 40.7722 93.6693 41.238 93.8178C41.2322 94.8924 41.3548 96.6011 40.6714 97.405C39.8734 97.7504 35.7591 95.7472 35.047 95.0492C35.6454 94.5243 35.7328 94.5504 36.5375 94.5752C37.0537 95.0929 37.6879 95.3322 38.365 95.602C38.5991 95.3483 38.8222 95.2893 39.14 95.1675C39.4963 95.4321 39.7637 95.636 40.1497 95.8545C40.1193 95.3622 40.0915 94.9882 40.0167 94.5018C40.0815 94.1169 40.1416 93.7313 40.197 93.345Z" fill="#677632"/>
<path d="M39.1399 95.1675C39.4963 95.4321 39.7637 95.636 40.1497 95.8545L39.9337 96.0149C39.4728 96.0222 38.8214 95.7571 38.365 95.602C38.5991 95.3483 38.8222 95.2893 39.1399 95.1675Z" fill="#F2F1A9"/>
<path d="M34.9269 90.898C35.3749 90.881 35.6902 90.8855 36.1383 90.9102L36.2772 91.3189C35.1856 92.286 35.3641 93.2796 36.3074 94.3285C36.3827 94.412 36.4593 94.4943 36.5375 94.5752C35.7328 94.5504 35.6454 94.5243 35.047 95.0492C33.4863 93.9668 33.567 92.131 34.9269 90.898Z" fill="#462D27"/>
<path d="M37.1087 91.6395C37.9394 92.3289 39.3665 93.6648 40.0167 94.5018C40.0915 94.9882 40.1193 95.3622 40.1497 95.8545C39.7637 95.636 39.4963 95.4321 39.14 95.1675L39.2048 95.1444C39.3759 94.2527 36.8151 92.8448 37.1087 91.6395Z" fill="#CBDB70"/>
<path d="M84.7097 84.5314C85.7393 83.4973 86.3317 83.8263 87.525 84.3434C88.3088 85.4113 88.2869 85.8835 88.1841 87.2352C88.118 88.1053 87.0084 90.6358 86.4723 91.1739L86.1577 91.7533L85.2564 91.0587C85.0661 91.2198 85.0368 91.2095 84.7782 91.2414C84.5269 90.9997 84.5974 91.0237 84.5164 90.6198C84.3837 90.815 84.1655 91.1136 84.0614 91.3119C82.9776 90.4285 81.7607 89.7031 80.9843 88.5544C81.4185 88.3121 81.4971 87.9708 81.654 87.5238C81.8157 87.7374 82.0214 88.0312 82.2069 88.214C81.949 86.7835 81.9805 86.8586 82.5808 85.448L82.1771 85.7142C81.9305 85.5324 81.9765 85.1887 81.4185 84.8052C81.7688 84.6012 82.0713 84.3745 82.3992 84.1373C82.6955 83.9771 82.9699 83.968 83.3015 83.9297C83.5933 84.1743 84.0061 84.4962 84.2364 84.783L84.7097 84.5314Z" fill="#769F50"/>
<path d="M84.7097 84.5314C85.7392 83.4973 86.3317 83.8263 87.525 84.3434C88.3088 85.4113 88.2869 85.8835 88.1841 87.2352C88.118 88.1053 87.0084 90.6358 86.4723 91.1739L86.1577 91.7533L85.2564 91.0587C85.0156 90.646 85.0383 90.5746 85.3391 90.2803C85.3961 89.4588 85.3892 88.9673 85.3493 88.1427C85.2166 87.9335 85.337 87.665 85.2562 87.3311C85.1108 86.7311 84.7009 86.021 84.7018 85.4172C84.7019 85.326 84.9449 85.1494 85.0396 85.0662C84.9502 84.7812 84.9433 84.7099 84.7097 84.5314Z" fill="#462D27"/>
<path d="M85.0396 85.0662C87.2837 84.717 87.7213 86.5764 86.7062 88.0816C86.2387 87.9857 85.9824 87.9886 85.5018 87.9809L85.3493 88.1427C85.2166 87.9335 85.337 87.665 85.2562 87.3311C85.1108 86.7311 84.7009 86.021 84.7018 85.4172C84.7019 85.326 84.9449 85.1494 85.0396 85.0662Z" fill="#8AB262"/>
<path d="M85.3492 88.1427L85.5018 87.9809C85.9824 87.9886 86.2386 87.9857 86.7062 88.0816C86.3722 88.8174 86.0255 89.5473 85.666 90.2712L85.5015 90.5041L85.3391 90.2803C85.3961 89.4588 85.3892 88.9673 85.3492 88.1427Z" fill="#F2F1A9"/>
<path d="M85.2564 91.0587C85.0156 90.646 85.0384 90.5746 85.3392 90.2803L85.5016 90.5041L85.666 90.2712C85.8103 90.9146 85.8379 90.918 86.4724 91.1739L86.1578 91.7533L85.2564 91.0587Z" fill="#968D8A"/>
<path d="M81.654 87.5238C81.8157 87.7374 82.0214 88.0312 82.2069 88.214C82.9017 89.1355 83.9928 89.5464 84.5164 90.6198C84.3837 90.815 84.1655 91.1136 84.0614 91.3119C82.9776 90.4285 81.7607 89.7031 80.9843 88.5544C81.4185 88.3121 81.4971 87.9708 81.654 87.5238Z" fill="#462D27"/>
<path d="M83.3015 83.9297C83.5933 84.1743 84.0061 84.4962 84.2364 84.783C83.7592 85.5503 83.4925 85.164 82.6767 85.3156L82.5807 85.448L82.177 85.7142C81.9305 85.5324 81.9764 85.1887 81.4185 84.8052C81.7688 84.6012 82.0713 84.3745 82.3991 84.1373C82.6955 83.9771 82.9698 83.968 83.3015 83.9297Z" fill="#462D27"/>
<path d="M80.7515 36.7247C83.0186 33.3972 88.1783 39.1561 87.0221 40.8524C86.7277 40.9161 86.4509 40.9095 86.1914 40.714C85.1432 40.892 84.4216 41.1459 83.4447 41.5669C82.8284 41.7769 82.013 42.0984 81.3821 42.1528C79.8753 42.0099 78.8076 40.5503 80.0037 39.2449L79.7249 38.9539C79.977 38.6971 79.962 38.5973 80.3205 38.3036C80.237 38.1236 80.0936 37.9545 79.9726 37.7916L80.7515 36.7247Z" fill="#462D27"/>
<path d="M80.7444 38.3567L81.1667 38.2271C81.6341 39.466 84.3133 38.548 85.1939 39.8085C85.5984 39.7193 85.5245 39.7915 85.811 39.5397C85.9322 40.106 86.3624 40.3951 86.1914 40.714C85.1432 40.892 84.4216 41.1459 83.4447 41.5669C82.8284 41.7769 82.013 42.0984 81.3821 42.1528C79.8753 42.0099 78.8076 40.5503 80.0037 39.2449L79.7249 38.9539C79.977 38.6971 79.962 38.5973 80.3205 38.3035L80.7444 38.3567Z" fill="#8AB262"/>
<path d="M80.0037 39.2449C80.3339 39.3144 80.3146 39.2537 80.4957 39.455C80.7758 40.0028 80.9646 40.5041 81.5702 40.711C81.7081 40.7575 81.8473 40.7993 81.9878 40.8365C81.6511 41.3757 81.538 41.532 81.3821 42.1528C79.8753 42.0099 78.8076 40.5503 80.0037 39.2449Z" fill="#462D27"/>
<path d="M85.8109 39.5397C85.9322 40.106 86.3623 40.3951 86.1913 40.714C85.1432 40.892 84.4216 41.1459 83.4447 41.5669L83.4353 41.3066L83.6229 41.1646C83.7711 40.7428 83.788 40.6571 83.8258 40.2113C84.1087 40.046 84.8579 39.8766 85.1938 39.8085C85.5984 39.7193 85.5245 39.7915 85.8109 39.5397Z" fill="#677632"/>
<path d="M81.9878 40.8365L82.1593 40.9239L82.4966 40.7649C82.707 40.8828 83.2689 41.1812 83.4353 41.3066L83.4447 41.5669C82.8283 41.7769 82.013 42.0984 81.3821 42.1528C81.5379 41.532 81.6511 41.3757 81.9878 40.8365Z" fill="#677632"/>
<path d="M80.3205 38.3036L80.7444 38.3567C80.9948 38.9578 80.9329 38.9391 80.4957 39.455C80.3146 39.2537 80.3339 39.3144 80.0037 39.2449L79.7249 38.9539C79.977 38.6971 79.962 38.5974 80.3205 38.3036Z" fill="#769F50"/>
<path d="M83.8258 40.2113C83.788 40.6571 83.7711 40.7428 83.6229 41.1646L83.4353 41.3066C83.2689 41.1812 82.707 40.8828 82.4966 40.7649L83.8258 40.2113Z" fill="#462D27"/>
<path d="M81.296 38.0705C82.4869 37.406 82.9525 37.5107 84.2752 37.7259C85.0017 38.3502 85.2786 38.7217 85.811 39.5397C85.5245 39.7915 85.5984 39.7193 85.1939 39.8085C84.3133 38.548 81.6342 39.466 81.1667 38.2271L81.296 38.0705Z" fill="#8AB262"/>
<path d="M80.7515 36.7247C81.0718 36.8073 81.3425 36.8306 81.5421 37.0735C81.4137 37.529 81.0369 37.7082 81.296 38.0705L81.1666 38.2271L80.7444 38.3567L80.3204 38.3036C80.2369 38.1237 80.0935 37.9545 79.9725 37.7916L80.7515 36.7247Z" fill="#525830"/>
<path d="M75.002 71.4631C76.1977 71.4435 76.6601 71.33 77.5366 72.1794C77.5771 72.2187 77.6173 72.2583 77.657 72.2985L77.876 72.1697C78.2659 72.3371 78.3034 72.3765 78.5681 72.7042C78.245 72.7965 78.0192 72.8542 77.7099 72.9986C77.6696 73.097 77.5956 73.2615 77.5693 73.3571L77.9387 73.4544C78.2474 73.3599 78.5491 73.1907 78.8509 73.3974C79.6611 73.9523 79.542 75.1247 79.0354 75.8451C78.2108 77.0178 76.7552 77.1389 75.4497 77.2823C74.4915 77.275 73.4013 78.1382 72.5694 77.3268C72.2205 76.9865 72.2755 75.5435 72.3331 75.0679L72.5295 74.4369L72.8975 74.6519L73.0046 74.5751C72.904 74.1198 73.003 74.1507 73.2841 73.8105C73.2795 73.2934 73.7343 72.7457 74.1581 72.4857L74.3658 72.5725C74.5352 72.3515 74.8525 71.7361 75.002 71.4631Z" fill="#CBDB70"/>
<path d="M73.2841 73.8105C73.2795 73.2934 73.7343 72.7457 74.1581 72.4857L74.3658 72.5725L74.4675 72.7998L74.7647 72.6734C74.9047 73.2964 73.9985 74.1023 73.8763 75.3441C73.9646 75.9443 73.9643 76.0925 74.3794 76.5507C74.5947 76.3901 75.0371 76.3367 75.3214 76.2788L76.6311 76.1146C76.3121 76.5371 75.919 77.019 75.4497 77.2823C74.4915 77.275 73.4013 78.1382 72.5694 77.3268C72.2205 76.9865 72.2755 75.5435 72.3331 75.0679L72.5295 74.4369L72.8975 74.6519L73.0046 74.5751C72.904 74.1198 73.003 74.1507 73.2841 73.8105Z" fill="#525830"/>
<path d="M73.2841 73.8105C73.2795 73.2934 73.7343 72.7457 74.1581 72.4857L74.3658 72.5725L74.4675 72.7998L74.7647 72.6734C74.9047 73.2964 73.9984 74.1023 73.8763 75.3441C73.9646 75.9443 73.9643 76.0925 74.3794 76.5507C73.8571 76.6441 73.768 76.6923 73.3776 76.3168C73.1722 75.8697 73.2346 75.3167 73.2465 74.8151L73.1752 74.8145C73.0689 74.6227 73.2843 74.2596 73.2841 73.8105Z" fill="#FBF8F1"/>
<path d="M73.2841 73.8105C73.2795 73.2934 73.7343 72.7457 74.1581 72.4857L74.3658 72.5725L74.4675 72.7998C73.4096 73.7922 73.6983 74.048 73.2465 74.8151L73.1752 74.8145C73.0689 74.6227 73.2843 74.2596 73.2841 73.8105Z" fill="#525830"/>
<path d="M75.002 71.4631C76.1978 71.4435 76.6601 71.33 77.5366 72.1794C77.5771 72.2187 77.6173 72.2583 77.657 72.2985L77.876 72.1697C78.2659 72.3371 78.3034 72.3765 78.5682 72.7042C78.245 72.7965 78.0192 72.8542 77.7099 72.9986C77.6696 73.097 77.5956 73.2615 77.5693 73.3571C76.5903 73.8741 74.8117 74.7926 73.8763 75.3441C73.9985 74.1023 74.9047 73.2964 74.7647 72.6734L74.4675 72.7998L74.3658 72.5725C74.5352 72.3515 74.8525 71.7361 75.002 71.4631Z" fill="#8AB262"/>
<path d="M75.002 71.4631C76.1978 71.4435 76.6601 71.33 77.5366 72.1794C77.5771 72.2187 77.6173 72.2583 77.657 72.2985C77.496 72.741 77.6023 72.6585 77.2584 72.8441C76.2586 72.7226 75.7092 72.1118 74.7647 72.6734L74.4675 72.7998L74.3658 72.5725C74.5352 72.3515 74.8525 71.7361 75.002 71.4631Z" fill="#525830"/>
<path d="M77.9387 73.4544C78.2474 73.3599 78.5491 73.1907 78.851 73.3974C79.6611 73.9523 79.5421 75.1247 79.0354 75.8451C78.2108 77.0178 76.7552 77.1389 75.4498 77.2823C75.919 77.019 76.3121 76.5371 76.6312 76.1146C77.5105 75.8617 77.6879 75.7816 78.2335 75.0545L78.3533 74.8635C78.435 74.5041 78.0897 73.9358 77.9387 73.4544Z" fill="#462D27"/>
<path d="M75.3214 76.2788C75.7272 75.5803 76.4416 75.7762 77.1235 75.4913C77.5408 75.3169 77.7775 75.12 78.2335 75.0545C77.6879 75.7816 77.5105 75.8617 76.6312 76.1146L75.3214 76.2788Z" fill="#F2F1A9"/>
<path d="M84.4757 77.5476C84.4108 74.9747 87.4419 75.0369 88.5796 77.2049L88.8005 78.1195C88.9219 79.0897 89.3039 80.973 89.0088 81.7983C88.8018 82.0258 88.7295 82.1403 88.4239 82.217C88.1899 82.043 87.5704 81.5711 87.3351 81.4861C85.92 80.9745 84.5227 81.1464 83.5059 79.8414C83.1561 79.3061 83.2272 78.538 83.2237 77.8954C83.3952 77.8396 83.6969 77.5632 83.8517 77.4355L84.4757 77.5476Z" fill="#8AB262"/>
<path d="M83.8517 77.4355L84.4757 77.5476L84.4526 77.9879C84.5307 78.4712 84.7503 78.9254 84.9426 79.3776L84.9614 79.497C85.3231 79.9472 87.2712 80.5223 87.8564 80.0958C88.0038 79.7444 87.8491 78.7269 87.8072 78.2916C88.2528 78.0909 88.3124 78.0838 88.8005 78.1195C88.9219 79.0897 89.3039 80.973 89.0088 81.7983C88.8018 82.0258 88.7295 82.1403 88.4239 82.217C88.1899 82.043 87.5704 81.5711 87.3351 81.4861C85.92 80.9745 84.5227 81.1464 83.5059 79.8414C83.1561 79.3062 83.2272 78.538 83.2237 77.8954C83.3952 77.8396 83.6969 77.5632 83.8517 77.4355Z" fill="#677632"/>
<path d="M83.8517 77.4355L84.4757 77.5476L84.4526 77.9879C84.5307 78.4712 84.7503 78.9254 84.9426 79.3776L84.7038 79.4882L84.6161 79.4386C84.3642 79.2984 84.2541 79.2159 83.9603 79.2468C83.6756 79.4548 83.6523 79.5304 83.5059 79.8414C83.1561 79.3062 83.2272 78.538 83.2237 77.8954C83.3952 77.8396 83.6969 77.5632 83.8517 77.4355Z" fill="#462D27"/>
<path d="M84.4757 77.5476C84.4108 74.9747 87.4419 75.0369 88.5796 77.2049L88.8006 78.1195C88.3124 78.0838 88.2528 78.0909 87.8072 78.2916C87.5574 77.4025 87.5112 77.0272 86.5433 76.9303C86.0135 77.1311 84.8428 77.4071 84.5941 77.6478L84.4526 77.9879L84.4757 77.5476Z" fill="#462D27"/>
<path d="M86.5433 76.9303C87.8073 76.6166 87.7473 77.081 88.5796 77.2049L88.8006 78.1195C88.3124 78.0838 88.2528 78.0909 87.8072 78.2916C87.5574 77.4026 87.5112 77.0272 86.5433 76.9303Z" fill="#525830"/>
<path d="M29.9276 83.0934C30.8464 82.3341 31.4645 83.505 32.3399 83.4587L32.2321 83.6355C32.4095 84.0579 32.2973 83.9581 32.6227 84.1066L32.7031 84.0979C32.8846 84.4612 33.0832 84.8406 33.2369 85.2144C33.3538 85.8959 33.78 86.0787 34.0565 86.6869C32.5763 88.4877 31.331 88.0581 29.3013 88.8037C28.8332 88.9757 27.9771 89.8358 27.4779 89.8854C27.1488 89.7375 27.0832 89.6287 26.8601 89.359C26.9645 88.6962 27.258 88.1655 27.866 87.8317L27.9973 87.9965C28.4177 87.9802 28.3567 87.9283 28.762 87.6442L28.7305 87.5398L28.4707 87.3338C28.2878 86.944 28.4089 86.4742 28.4729 86.0383C28.552 85.4939 28.7215 84.7655 28.9946 84.2903C29.31 84.0457 29.8223 83.4924 29.9276 83.0934Z" fill="#8AB262"/>
<path d="M33.2369 85.2144C33.3538 85.8959 33.78 86.0787 34.0565 86.6869C32.5763 88.4877 31.331 88.0581 29.3013 88.8037C28.8332 88.9757 27.9771 89.8358 27.4779 89.8854C27.1488 89.7375 27.0832 89.6287 26.8601 89.359C26.9645 88.6962 27.258 88.1655 27.866 87.8316L27.9973 87.9965C28.4177 87.9802 28.3567 87.9283 28.762 87.6442C30.208 87.7154 31.6746 86.7675 32.9198 86.1744L33.2369 85.2144Z" fill="#677632"/>
<path d="M29.9277 83.0934C30.8465 82.3341 31.4646 83.505 32.3399 83.4587L32.2322 83.6355L32.192 84.0241C30.7074 83.6852 30.1092 85.9915 28.473 86.0383C28.552 85.4939 28.7216 84.7655 28.9946 84.2903C29.31 84.0457 29.8224 83.4924 29.9277 83.0934Z" fill="#8AB262"/>
<path d="M28.473 86.0383C30.1091 85.9915 30.7074 83.6852 32.192 84.0241C31.9877 84.4792 29.9604 85.9282 29.5319 86.5876C29.4458 86.7199 28.8751 87.4702 28.7306 87.5398L28.4707 87.3338C28.2878 86.944 28.4089 86.4742 28.473 86.0383Z" fill="#CBDB70"/>
<path d="M32.5268 68.6874C32.7261 68.7767 33.1468 69.023 33.3557 69.1374C33.197 69.29 32.8098 69.6931 32.6377 69.7613C31.0612 70.0494 30.189 70.7209 30.4375 72.4914C30.5934 73.6019 32.0015 75.5062 33.0001 76.0075C33.5113 76.5685 33.7324 76.7161 34.3476 77.1478C34.7807 77.5238 35.7972 78.363 36.1431 78.749C36.0079 78.9902 35.9241 79.1503 35.753 79.3728C34.9113 79.2326 34.0106 78.4053 33.323 77.9252C30.7338 76.118 26.7584 71.41 30.995 69.0308C31.4823 68.7572 31.9823 68.7408 32.5268 68.6874Z" fill="#462D27"/>
<path d="M50.3416 29.1662C50.6696 29.3128 50.978 29.4181 51.2347 29.6628C51.431 30.1086 51.6781 30.5795 51.7113 31.0593C52.2392 31.5115 53.353 32.432 52.833 33.188C53.02 33.61 53.4815 34.5284 53.5433 34.9319C53.1629 35.1205 53.0952 35.1089 52.6807 35.0809L52.1654 34.499C51.8902 34.3069 51.7367 34.0172 51.5475 33.7314C51.2151 33.6117 50.6257 33.4898 50.2642 33.4036C50.2016 33.4507 50.0533 33.5553 50.007 33.6057C50.195 34.2061 50.3474 34.8236 49.683 35.1581C48.8499 34.7844 49.1418 33.9209 49.2525 33.1683C49.1561 32.896 48.4951 32.2799 48.2548 32.0346C48.3429 31.741 48.3767 31.7109 48.5953 31.4933C48.762 31.5604 48.9213 31.5678 49.1013 31.5928C49.7486 31.3055 49.8164 30.6482 49.7334 29.9948C50.0074 29.7848 50.1627 29.4662 50.3416 29.1662Z" fill="#525830"/>
<path d="M50.2642 33.4036L50.7338 32.9677C50.8055 32.6151 50.7468 32.6725 50.5204 32.2699C50.5677 31.9587 50.5083 32.0642 50.7191 31.8539L51.1033 31.988L51.2273 31.9091C51.3815 31.4699 51.4036 31.405 51.7113 31.0593C52.2392 31.5115 53.353 32.432 52.833 33.188C53.02 33.61 53.4815 34.5284 53.5433 34.9319C53.1629 35.1205 53.0952 35.1089 52.6807 35.0809L52.1654 34.499C51.8902 34.3069 51.7366 34.0172 51.5475 33.7314C51.2151 33.6117 50.6257 33.4898 50.2642 33.4036Z" fill="#677632"/>
<path d="M52.1653 34.499C52.3941 34.2094 52.6693 33.5518 52.833 33.188C53.02 33.61 53.4815 34.5284 53.5433 34.9319C53.1628 35.1205 53.0952 35.1089 52.6807 35.0809L52.1653 34.499Z" fill="#8AB262"/>
<path d="M51.6352 31.9705C51.7651 32.0056 51.9341 32.0739 52.0645 32.1213C52.3013 32.5182 52.2185 32.5027 52.2111 33.0408C51.9228 33.0196 51.8803 33.0177 51.625 32.885C51.4629 32.4966 51.5517 32.4608 51.6352 31.9705Z" fill="#525830"/>
<path d="M49.2524 33.1683C49.5544 33.2059 49.7634 33.1888 49.9636 33.3989L50.0069 33.6057C50.1949 34.2061 50.3474 34.8235 49.6829 35.1581C48.8499 34.7844 49.1418 33.9209 49.2524 33.1683Z" fill="#677632"/>
<path d="M80.2327 71.7027C80.4265 71.436 80.6383 71.1156 80.9629 71.0878C81.8996 71.6895 82.812 75.4813 82.8222 76.5788L83.8517 77.4355C83.6969 77.5632 83.3952 77.8396 83.2237 77.8954L82.6635 77.7594L82.5455 77.8701C82.5563 77.8976 82.5679 77.9249 82.578 77.9527C83.0013 79.1211 81.0212 82.0522 83.3015 83.9297C82.9698 83.968 82.6955 83.9771 82.3992 84.1373C80.6447 83.1066 81.1192 80.4289 81.3266 78.7329C81.3391 78.6311 81.9502 77.9226 82.0544 77.796C82.2799 77.1729 80.616 72.5258 80.2327 71.7027Z" fill="#677632"/>
<path d="M34.7926 82.5442C35.2173 81.7843 34.4216 80.8864 35.1009 80.1097C35.4629 80.0915 35.3211 80.0528 35.6324 80.2698C36.2498 81.6221 36.7166 85.9521 36.288 87.4898C36.1205 88.0902 35.6327 89.2325 35.5948 89.8141C35.5742 90.1309 36.0699 90.3349 36.1383 90.9102C35.6902 90.8855 35.3749 90.881 34.9269 90.898C34.7448 90.5759 34.5822 89.8451 34.481 89.4599C35.0828 87.5095 35.6485 85.6126 35.1168 83.559L34.4119 84.1288C33.9766 84.0996 33.7814 83.9543 33.4023 83.7395C33.8172 83.3196 34.3323 82.9206 34.7926 82.5442Z" fill="#677632"/>
<path d="M34.7926 82.5442C35.0843 82.9501 35.1542 82.9821 35.1168 83.559L34.4119 84.1288C33.9766 84.0996 33.7814 83.9543 33.4023 83.7395C33.8172 83.3196 34.3323 82.9206 34.7926 82.5442Z" fill="#677632"/>
<path d="M39.8459 37.1784C40.0237 36.7758 41.2646 36.2998 41.7123 36.4102C41.1498 37.3924 39.1484 40.3371 39.2633 41.2727C38.9777 41.6416 38.7447 41.9209 38.8116 42.4186C38.2516 42.9157 37.5944 45.0886 37.5186 45.821L37.5602 45.9872C37.3361 46.1943 37.1303 46.3804 36.8962 46.5777C36.3541 46.517 36.6129 46.4485 36.1702 46.2284C36.1511 46.047 36.2248 45.9128 36.291 45.7392C36.5677 45.5488 36.7103 44.1063 36.878 43.6086C37.5777 41.5316 38.5651 38.9514 39.8459 37.1784Z" fill="#677632"/>
<path d="M70.4721 22.8675C69.983 20.4793 71.5196 19.7194 73.68 19.1766C74.9692 18.8528 76.9125 19.1126 77.1224 20.702C77.1634 21.012 77.182 20.9528 77.0091 21.1871C76.27 21.2077 76.0361 20.7764 75.6062 20.2618C73.8566 20.2114 71.6325 20.296 71.4175 22.5207C71.0686 22.6748 70.847 22.7844 70.4721 22.8675Z" fill="#462D27"/>
<path d="M33.9116 69.2561C34.0663 68.0547 32.5935 61.1987 34.1825 60.7191L34.4347 60.8789C34.5799 61.0999 34.7587 61.4648 34.743 61.7291C34.6152 63.8799 34.6759 65.9992 34.799 68.1534C34.5745 68.4583 34.5583 68.7791 34.4984 69.1548C34.3757 69.2567 34.1382 69.4685 34.0112 69.5368L33.9116 69.2561Z" fill="#677632"/>
<path d="M52.3785 22.7117C50.577 25.3831 45.5735 23.024 46.1241 21.4766C47.0529 21.0376 47.9439 22.6656 49.2328 22.4415C50.4997 23.0233 50.9578 21.9491 52.3785 22.7117Z" fill="#462D27"/>
<path d="M77.4607 40.9211C77.5125 40.5396 77.9037 39.6796 78.1586 39.3603C78.6954 40.3824 79.7179 44.9111 79.7813 46.1146C78.8428 46.2495 79.4428 45.85 78.6048 45.6264C78.4353 45.1299 78.3969 45.0666 78.0723 44.6534C78.147 44.524 78.2217 44.3945 78.2964 44.2652C78.0775 43.1453 77.734 42.0375 77.4607 40.9211Z" fill="#677632"/>
<path d="M33.4392 89.445L33.8752 89.5595C34.6349 90.3009 33.0875 91.766 32.9511 92.698C32.7946 93.7678 33.239 94.3049 32.5332 95.2041C31.962 95.0327 31.9063 94.6857 31.6726 94.163C31.7344 92.0831 32.1937 91.0838 33.4392 89.445Z" fill="#677632"/>
<path d="M63.9794 32.1537C65.3831 32.3593 65.4844 35.1957 65.8321 36.4018C65.7822 36.7587 65.7262 37.0656 65.7452 37.4266C65.1725 37.1329 65.2856 36.8816 64.3687 36.6041C64.0484 36.2531 64.0048 36.1165 63.8175 35.6763L64.2167 35.446C64.479 34.8499 63.8083 33.2962 63.528 32.7213C63.7485 32.6142 63.8271 32.3943 63.9794 32.1537Z" fill="#462D27"/>
<path d="M64.2167 35.446C64.6069 35.7201 64.4983 35.57 64.6431 36.0016C64.5617 36.4612 64.6471 36.3258 64.3687 36.6041C64.0484 36.2531 64.0048 36.1165 63.8175 35.6763L64.2167 35.446Z" fill="#5A463B"/>
<path d="M27.3623 83.8236C27.9211 83.896 28.414 83.8138 28.8062 83.8784L28.7322 84.1985C28.3207 84.8969 28.2175 85.1802 28.1055 85.9828C27.9707 86.5505 27.9191 87.661 27.866 87.8317C27.258 88.1655 26.9645 88.6962 26.8601 89.359C26.6194 87.7555 26.6224 86.3126 26.9743 84.7321C27.0889 84.3895 27.2077 84.148 27.3623 83.8236Z" fill="#462D27"/>
<path d="M27.3623 83.8236C27.9211 83.896 28.4141 83.8138 28.8063 83.8784L28.7322 84.1985C28.3208 84.8969 28.2176 85.1802 28.1056 85.9828C28.0691 85.8516 27.9985 85.2112 27.9705 85.026C27.6432 84.7517 27.4535 84.8042 26.9744 84.7321C27.0889 84.3895 27.2077 84.148 27.3623 83.8236Z" fill="#5A463B"/>
<path d="M30.561 81.6818C31.6584 81.9917 32.5681 82.0948 32.34 83.4587C31.4646 83.505 30.8465 82.334 29.9277 83.0934C29.3698 83.3238 29.2524 83.4589 28.8063 83.8784C28.4141 83.8138 27.9211 83.896 27.3624 83.8236C28.097 82.4437 29.1147 82.003 30.561 81.6818Z" fill="#462D27"/>
<path d="M50.2468 29.1008C50.1982 29.1461 52.7291 24.5601 52.8472 24.3187C53.3472 24.298 53.449 24.3587 53.9013 24.5883C52.9319 25.594 52.6469 25.9711 52.3739 27.3905C52.1558 27.8485 51.4948 29.3154 51.2347 29.6628C50.9779 29.4181 50.6696 29.3128 50.3416 29.1662L50.2468 29.1008Z" fill="#677632"/>
<path d="M80.7448 57.1287C80.7351 56.6564 80.9132 56.5043 81.2082 56.1722C82.199 56.6515 82.1752 57.2476 82.4115 58.2563L83.3014 59.0649C82.6531 59.2842 81.7971 59.2376 81.0971 59.2301C81.0726 58.7034 81.0613 57.4178 80.7448 57.1287Z" fill="#677632"/>
<path d="M46.915 35.8623C47.7544 35.676 49.5322 35.2323 50.2489 35.6456L50.5264 35.9876L50.3959 36.4103C50.0244 36.5298 49.4856 36.685 49.1393 36.833C48.3036 36.6628 48.0003 36.5639 47.5017 37.341C47.3846 37.1147 47.2411 36.9822 47.0691 36.7954C46.8534 36.4036 46.878 36.3118 46.915 35.8623Z" fill="#462D27"/>
<path d="M33.4607 40.5817C34.8072 39.3029 36.6133 40.3039 36.9967 41.8714L36.9423 42.1535C36.3786 42.3963 34.7991 40.9942 33.7736 40.8739L33.4607 40.5817Z" fill="#769F50"/>
<path d="M62.3276 32.2911C62.573 31.9836 63.3128 31.7091 63.7036 31.7107L63.9794 32.1537C63.8271 32.3943 63.7485 32.6142 63.528 32.7213C63.317 33.0129 62.3315 34.8769 62.3628 35.1343L62.1861 35.2171C61.9014 34.9989 61.7818 34.5675 61.6448 34.2174C61.6781 33.4465 61.9522 32.9395 62.3276 32.2911Z" fill="#769F50"/>
<path d="M80.8523 85.4505C80.9888 85.2494 81.2464 84.9904 81.4185 84.8052C81.9765 85.1887 81.9305 85.5324 82.1771 85.7142L81.6865 86.3222C81.5638 86.8767 81.5514 86.97 81.654 87.5238C81.4971 87.9708 81.4185 88.3121 80.9843 88.5544L80.7511 88.2435C80.6584 87.9795 80.4889 87.6067 80.3772 87.3383C80.3058 86.3628 80.3325 86.2904 80.8523 85.4505Z" fill="#5A463B"/>
<path d="M80.8523 85.4505C80.9888 85.2494 81.2464 84.9904 81.4185 84.8052C81.9765 85.1887 81.9305 85.5324 82.1771 85.7142L81.6865 86.3222C81.6288 85.8723 81.5055 85.8601 81.1749 85.6301L80.8523 85.4505Z" fill="#968D8A"/>
<path d="M80.8523 85.4505L81.1749 85.6301C81.0811 85.9273 81.0149 86.1607 80.9416 86.4633C80.7696 86.7842 80.6378 87.0895 80.3772 87.3382C80.3058 86.3628 80.3325 86.2904 80.8523 85.4505Z" fill="#462D27"/>
<path d="M80.9416 86.4633C81.0314 87.3123 81.0966 87.4446 80.7511 88.2435C80.6584 87.9795 80.4889 87.6067 80.3773 87.3383C80.6378 87.0895 80.7696 86.7842 80.9416 86.4633Z" fill="#462D27"/>
<path d="M38.8116 42.4186C38.7447 41.9209 38.9777 41.6416 39.2633 41.2727C40.1179 42.4473 40.2247 44.1122 39.6139 45.4184C39.2184 45.4357 39.0079 45.2986 38.6509 45.1267C39.0973 44.0078 38.941 43.6385 38.8116 42.4186Z" fill="#769F50"/>
<path d="M30.109 63.7846L30.4234 63.4938C31.031 64.0374 33.0409 65.4162 33.1139 65.82C32.3194 66.654 30.7122 65.5321 30.3692 64.6901C30.2464 64.3886 30.208 64.0811 30.109 63.7846Z" fill="#677632"/>
<path d="M83.4139 46.8523C82.5058 46.3171 80.2987 46.7271 80.029 45.9345C80.2036 45.6562 80.6333 45.5667 80.9437 45.527C82.3074 45.3525 83.1216 45.7468 84.1783 46.5235C83.9093 46.6827 83.7206 46.8308 83.4139 46.8523Z" fill="#677632"/>
<path d="M45.2729 34.8602C45.6036 34.6254 45.6657 34.5683 46.0678 34.4756C46.3616 34.9309 46.6441 35.3932 46.915 35.8623C46.878 36.3118 46.8534 36.4036 47.0691 36.7954C46.7245 36.9944 46.3971 37.1797 46.0669 37.4029C45.8713 37.189 45.7401 37.1641 45.4711 37.0596C45.6799 35.9845 45.6297 35.8597 45.2729 34.8602Z" fill="#525830"/>
<path d="M32.7031 84.0979C32.9236 83.9429 33.1565 83.8508 33.4023 83.7395C33.7814 83.9543 33.9765 84.0996 34.4118 84.1288C34.1109 84.8144 34.7751 85.8353 34.0565 86.6869C33.7801 86.0787 33.3538 85.8959 33.2369 85.2144C33.0833 84.8406 32.8846 84.4612 32.7031 84.0979Z" fill="#462D27"/>
<path d="M79.7254 70.2096L80.4678 70.5124C80.1989 70.867 79.9228 71.2228 79.6714 71.5893C79.2957 72.1782 79.0933 72.2802 78.5682 72.7042C78.3034 72.3765 78.2659 72.3371 77.876 72.1697C78.0425 71.8019 78.8228 71.0046 79.1394 70.6585L79.7254 70.2096Z" fill="#769F50"/>
<path d="M79.7254 70.2096L80.4678 70.5124C80.1989 70.867 79.9228 71.2228 79.6714 71.5893C79.438 71.2792 79.3126 71.0037 79.1394 70.6585L79.7254 70.2096Z" fill="#8AB262"/>
<path d="M53.0947 22.4154L53.3923 22.0881C53.7563 21.9694 53.6458 22.0029 54.0741 22.1591C54.2226 22.9958 54.1247 23.7589 53.9931 24.5884L53.9013 24.5883C53.449 24.3587 53.3472 24.298 52.8472 24.3187C52.9853 23.805 53.1458 23.1422 52.897 22.6426L53.0947 22.4154Z" fill="#677632"/>
<path d="M67.641 24.4204C68.1931 23.6815 68.6291 23.5905 69.5033 23.6069C69.4669 23.9065 69.4252 24.2055 69.3783 24.5037L68.2667 25.2034L67.5102 25.5438L67.1804 24.8846L67.641 24.4204Z" fill="#677632"/>
<path d="M67.641 24.4204C67.957 24.7392 68.0411 24.8163 68.2667 25.2034L67.5102 25.5438L67.1804 24.8846L67.641 24.4204Z" fill="#769F50"/>
<path d="M71.2225 26.8663C71.3487 26.9024 71.7589 27.0103 71.8554 27.0537C71.8768 27.7954 71.9399 28.7415 71.8032 29.4499C71.3363 29.4367 71.2598 29.4217 70.8148 29.2781C70.8337 28.2203 70.6158 27.7218 71.2225 26.8663Z" fill="#677632"/>
<path d="M79.7254 70.2096C79.7202 69.6693 79.6671 68.6915 79.8117 68.2097L79.9948 68.0637C81.0337 68.3568 81.2329 69.9961 80.4677 70.5125L79.7254 70.2096Z" fill="#677632"/>
<path d="M72.3331 75.0679C72.3235 73.1809 73.2051 72.0496 75.002 71.4631C74.8524 71.7361 74.5352 72.3515 74.3658 72.5725L74.1581 72.4857C73.7343 72.7457 73.2795 73.2934 73.284 73.8105C73.0029 74.1507 72.904 74.1198 73.0046 74.5751L72.8975 74.6519L72.5295 74.4369L72.3331 75.0679Z" fill="#5A463B"/>
<path d="M30.4559 55.1914C30.6689 55.4943 30.8159 55.6692 30.9234 56.0257C30.4718 56.5128 30.0222 56.9318 29.54 57.3861L29.3285 57.0745C29.1112 56.8644 29.0813 56.8405 28.7964 56.7415C29.534 55.9466 29.1996 55.9287 30.4559 55.1914Z" fill="#677632"/>
<path d="M84.5164 90.6198C84.5973 91.0237 84.5269 90.9997 84.7781 91.2414C85.0367 91.2095 85.066 91.2198 85.2564 91.0587L86.1577 91.7533C86.0481 92.1768 85.9335 92.418 85.5409 92.5937C84.9862 92.4669 84.459 91.7556 84.0614 91.3119C84.1655 91.1136 84.3837 90.815 84.5164 90.6198Z" fill="#462D27"/>
<path d="M48.2203 28.409C48.9954 28.4057 49.6094 28.6938 50.2468 29.1008L50.3416 29.1662C50.1627 29.4662 50.0074 29.7848 49.7334 29.9948C49.4089 29.8629 49.0935 29.6804 48.7839 29.5132C48.5569 29.263 48.3635 28.7401 48.2203 28.409Z" fill="#677632"/>
<path d="M28.7322 84.1985L28.9946 84.2903C28.7215 84.7655 28.552 85.4939 28.4729 86.0383C28.4089 86.4742 28.2878 86.944 28.4707 87.3338L28.7305 87.5398L28.762 87.6442C28.3567 87.9283 28.4177 87.9802 27.9973 87.9965L27.866 87.8317C27.9191 87.661 27.9707 86.5505 28.1055 85.9828C28.2175 85.1801 28.3207 84.8969 28.7322 84.1985Z" fill="#FBF8F1"/>
<path d="M78.9892 37.1449C79.5628 37.3535 79.5537 37.3849 79.9726 37.7916C80.0936 37.9545 80.237 38.1236 80.3205 38.3036C79.962 38.5973 79.977 38.6971 79.7248 38.9539C79.4488 38.6797 79.096 38.2634 78.8264 37.9651C78.8149 37.566 78.8444 37.5073 78.9892 37.1449Z" fill="#677632"/>
<path d="M77.8541 30.7988C78.2332 31.1232 78.4977 31.4885 78.7099 31.6733C78.4902 31.9898 78.1892 32.479 77.8946 32.6983L77.3375 31.9531L77.2382 31.8207C77.4324 31.6583 77.7175 31.0565 77.8541 30.7988Z" fill="#677632"/>
<path d="M29.9277 83.0934C29.8224 83.4924 29.31 84.0457 28.9946 84.2903L28.7322 84.1985L28.8063 83.8784C29.2524 83.4589 29.3698 83.3238 29.9277 83.0934Z" fill="#FBF8F1"/>
<path d="M42.866 38.269C43.136 38.0704 43.5475 37.8552 43.8491 37.686C43.9821 37.7714 44.0876 37.8195 44.1848 37.938C43.8361 38.0976 43.3178 38.2825 43.1092 38.5722L42.866 38.269Z" fill="#462D27"/>
</svg>
